<svg width="88" height="88" viewBox="0 0 88 88" fill="none" xmlns="http://www.w3.org/2000/svg">
<path d="M51.5076 14.2588H17.5176C15.6951 14.2618 13.9482 14.987 12.6595 16.2757C11.3709 17.5644 10.6456 19.3113 10.6426 21.1338V75.625C10.6456 77.4475 11.3709 79.1944 12.6595 80.4831C13.9482 81.7717 15.6951 82.497 17.5176 82.5H51.5076C53.33 82.497 55.077 81.7717 56.3656 80.4831C57.6543 79.1944 58.3796 77.4475 58.3826 75.625V21.1338C58.3796 19.3113 57.6543 17.5644 56.3656 16.2757C55.077 14.987 53.33 14.2618 51.5076 14.2588ZM18.9613 62.7413H50.0638C50.4248 62.7469 50.7691 62.8942 51.0224 63.1515C51.2757 63.4087 51.4177 63.7553 51.4177 64.1163C51.4176 64.4773 51.2757 64.8239 51.0224 65.0811C50.7691 65.3384 50.4247 65.4857 50.0638 65.4913H18.9613C18.6003 65.4857 18.256 65.3383 18.0027 65.0811C17.7494 64.8238 17.6075 64.4773 17.6075 64.1163C17.6075 63.7552 17.7494 63.4087 18.0027 63.1514C18.256 62.8942 18.6003 62.7469 18.9613 62.7413ZM17.5863 54.6288C17.5874 54.2644 17.7326 53.9153 17.9903 53.6577C18.2479 53.4001 18.597 53.2549 18.9613 53.2538H50.0638C50.4285 53.2538 50.7782 53.3986 51.0361 53.6565C51.294 53.9144 51.4388 54.2641 51.4388 54.6288C51.4388 54.9934 51.294 55.3432 51.0361 55.601C50.7782 55.8589 50.4285 56.0038 50.0638 56.0038H18.9613C18.597 56.0027 18.2479 55.8575 17.9902 55.5999C17.7326 55.3422 17.5874 54.9931 17.5863 54.6288ZM18.9613 72.2288H50.0638C50.425 72.2341 50.7695 72.3814 51.023 72.6386C51.2765 72.8959 51.4186 73.2426 51.4185 73.6038C51.4185 73.965 51.2764 74.3117 51.0229 74.5689C50.7694 74.8262 50.4249 74.9734 50.0638 74.9788H18.9613C18.6002 74.9734 18.2557 74.8262 18.0022 74.5689C17.7487 74.3116 17.6066 73.9649 17.6066 73.6038C17.6066 73.2426 17.7487 72.8959 18.0022 72.6386C18.2557 72.3813 18.6002 72.2341 18.9613 72.2288ZM50.0638 46.5025H18.9613C18.6002 46.4972 18.2557 46.3499 18.0022 46.0927C17.7487 45.8354 17.6066 45.4887 17.6066 45.1275C17.6066 44.7663 17.7487 44.4197 18.0022 44.1624C18.2557 43.9051 18.6002 43.7579 18.9613 43.7525H50.0638C50.425 43.7579 50.7695 43.9051 51.023 44.1624C51.2765 44.4197 51.4186 44.7663 51.4186 45.1275C51.4186 45.4887 51.2765 45.8354 51.023 46.0927C50.7695 46.3499 50.425 46.4972 50.0638 46.5025ZM24.0626 35.9288V26.3038C24.0626 25.9391 24.2074 25.5894 24.4653 25.3315C24.7232 25.0736 25.0729 24.9288 25.4376 24.9288C25.8023 24.9288 26.152 25.0736 26.4099 25.3315C26.6677 25.5894 26.8126 25.9391 26.8126 26.3038V35.9288H29.9338V28.9713C29.9392 28.6101 30.0864 28.2656 30.3437 28.0121C30.601 27.7586 30.9476 27.6165 31.3088 27.6165C31.67 27.6165 32.0167 27.7586 32.274 28.0121C32.5312 28.2656 32.6785 28.6101 32.6838 28.9713V35.9288H35.8051V32.56C35.8115 32.1996 35.9592 31.8561 36.2164 31.6035C36.4736 31.3509 36.8196 31.2094 37.1801 31.2094C37.5406 31.2094 37.8866 31.351 38.1438 31.6036C38.401 31.8562 38.5486 32.1997 38.5551 32.5601V35.9288H41.8138C42.1748 35.9344 42.5191 36.0817 42.7724 36.339C43.0257 36.5962 43.1677 36.9428 43.1677 37.3038C43.1676 37.6648 43.0257 38.0114 42.7724 38.2686C42.5191 38.5259 42.1747 38.6732 41.8138 38.6788H20.5151C20.1507 38.6777 19.8016 38.5325 19.544 38.2748C19.2864 38.0172 19.1412 37.6681 19.1401 37.3038V20.6388C19.1401 20.2741 19.2849 19.9244 19.5428 19.6665C19.8007 19.4086 20.1504 19.2638 20.5151 19.2638C20.8798 19.2638 21.2295 19.4086 21.4874 19.6665C21.7452 19.9244 21.8901 20.2741 21.8901 20.6388V35.9288H24.0626Z" fill="#7BD0FF"/>
<path d="M76.2016 14.025C75.7299 13.3544 75.1296 12.7841 74.4357 12.3474C73.7417 11.9108 72.9679 11.6163 72.1591 11.4812L37.3854 5.5825C35.7551 5.31941 34.0868 5.70851 32.7411 6.66569C31.3954 7.62288 30.4805 9.07122 30.1941 10.6976L30.0566 11.5087H51.5066C54.0585 11.5116 56.505 12.5265 58.3094 14.3309C60.1139 16.1354 61.1288 18.5819 61.1316 21.1337C61.1043 21.5462 60.9116 77.8938 60.6091 78.7463L60.7466 78.7738C62.3757 79.0427 64.045 78.6577 65.3916 77.7024C66.7383 76.7472 67.6534 75.2989 67.9379 73.6725L77.2604 18.6725C77.402 17.8664 77.3812 17.0401 77.1994 16.242C77.0176 15.444 76.6784 14.6903 76.2016 14.025Z" fill="#7BD0FF"/>
</svg>
