<svg width="88" height="88" viewBox="0 0 88 88" fill="none" xmlns="http://www.w3.org/2000/svg">
<path d="M51.5056 14.2588H17.5156C15.6932 14.2618 13.9462 14.987 12.6576 16.2757C11.3689 17.5644 10.6436 19.3113 10.6406 21.1338V75.625C10.6436 77.4475 11.3689 79.1944 12.6576 80.4831C13.9462 81.7717 15.6932 82.497 17.5156 82.5H51.5056C53.3281 82.497 55.075 81.7717 56.3637 80.4831C57.6523 79.1944 58.3776 77.4475 58.3806 75.625V21.1338C58.3776 19.3113 57.6523 17.5644 56.3637 16.2757C55.075 14.987 53.3281 14.2618 51.5056 14.2588ZM18.9594 62.7413H50.0619C50.4229 62.7469 50.7672 62.8942 51.0205 63.1515C51.2737 63.4087 51.4157 63.7553 51.4157 64.1163C51.4157 64.4773 51.2737 64.8239 51.0204 65.0811C50.7671 65.3384 50.4228 65.4857 50.0618 65.4913H18.9594C18.5984 65.4857 18.2541 65.3383 18.0008 65.0811C17.7475 64.8238 17.6055 64.4773 17.6055 64.1163C17.6055 63.7552 17.7475 63.4087 18.0008 63.1514C18.2541 62.8942 18.5984 62.7469 18.9594 62.7413ZM17.5844 54.6288C17.5855 54.2644 17.7307 53.9153 17.9883 53.6577C18.2459 53.4001 18.595 53.2549 18.9594 53.2538H50.0619C50.4265 53.2538 50.7763 53.3986 51.0341 53.6565C51.292 53.9144 51.4369 54.2641 51.4369 54.6288C51.4369 54.9934 51.292 55.3432 51.0341 55.601C50.7763 55.8589 50.4265 56.0038 50.0619 56.0038H18.9594C18.595 56.0027 18.2459 55.8575 17.9883 55.5999C17.7306 55.3422 17.5854 54.9931 17.5844 54.6288ZM18.9594 72.2288H50.0619C50.423 72.2341 50.7675 72.3814 51.021 72.6386C51.2745 72.8959 51.4166 73.2426 51.4166 73.6038C51.4166 73.965 51.2745 74.3117 51.021 74.5689C50.7675 74.8262 50.4229 74.9734 50.0618 74.9788H18.9594C18.5982 74.9734 18.2537 74.8262 18.0002 74.5689C17.7467 74.3116 17.6046 73.9649 17.6046 73.6038C17.6046 73.2426 17.7467 72.8959 18.0002 72.6386C18.2537 72.3813 18.5982 72.2341 18.9594 72.2288ZM50.0619 46.5025H18.9594C18.5982 46.4972 18.2537 46.3499 18.0002 46.0927C17.7467 45.8354 17.6046 45.4887 17.6046 45.1275C17.6046 44.7663 17.7467 44.4197 18.0002 44.1624C18.2537 43.9051 18.5982 43.7579 18.9594 43.7525H50.0619C50.423 43.7579 50.7676 43.9051 51.021 44.1624C51.2745 44.4197 51.4166 44.7663 51.4166 45.1275C51.4166 45.4887 51.2745 45.8354 51.021 46.0927C50.7676 46.3499 50.423 46.4972 50.0619 46.5025ZM24.0606 35.9288V26.3038C24.0606 25.9391 24.2055 25.5894 24.4634 25.3315C24.7212 25.0736 25.071 24.9288 25.4356 24.9288C25.8003 24.9288 26.15 25.0736 26.4079 25.3315C26.6658 25.5894 26.8106 25.9391 26.8106 26.3038V35.9288H29.9319V28.9713C29.9372 28.6101 30.0845 28.2656 30.3417 28.0121C30.599 27.7586 30.9457 27.6165 31.3069 27.6165C31.6681 27.6165 32.0147 27.7586 32.272 28.0121C32.5293 28.2656 32.6765 28.6101 32.6819 28.9713V35.9288H35.8031V32.56C35.8096 32.1996 35.9573 31.8561 36.2145 31.6035C36.4716 31.3509 36.8177 31.2094 37.1782 31.2094C37.5386 31.2094 37.8847 31.351 38.1418 31.6036C38.399 31.8562 38.5467 32.1997 38.5531 32.5601V35.9288H41.8119C42.1729 35.9344 42.5172 36.0817 42.7705 36.339C43.0237 36.5962 43.1657 36.9428 43.1657 37.3038C43.1657 37.6648 43.0237 38.0114 42.7704 38.2686C42.5171 38.5259 42.1728 38.6732 41.8118 38.6788H20.5131C20.1488 38.6777 19.7997 38.5325 19.5421 38.2748C19.2844 38.0172 19.1392 37.6681 19.1381 37.3038V20.6388C19.1381 20.2741 19.283 19.9244 19.5409 19.6665C19.7987 19.4086 20.1485 19.2638 20.5131 19.2638C20.8778 19.2638 21.2275 19.4086 21.4854 19.6665C21.7433 19.9244 21.8881 20.2741 21.8881 20.6388V35.9288H24.0606Z" fill="#D8B94B"/>
<path d="M76.2036 14.025C75.7319 13.3544 75.1316 12.7841 74.4376 12.3474C73.7436 11.9108 72.9698 11.6163 72.1611 11.4812L37.3873 5.5825C35.7571 5.31941 34.0887 5.70851 32.743 6.66569C31.3973 7.62288 30.4824 9.07122 30.1961 10.6976L30.0586 11.5087H51.5086C54.0604 11.5116 56.507 12.5265 58.3114 14.3309C60.1158 16.1354 61.1308 18.5819 61.1336 21.1337C61.1063 21.5462 60.9136 77.8938 60.6111 78.7463L60.7486 78.7738C62.3776 79.0427 64.0469 78.6577 65.3936 77.7024C66.7403 76.7472 67.6553 75.2989 67.9398 73.6725L77.2623 18.6725C77.4039 17.8664 77.3832 17.0401 77.2014 16.242C77.0196 15.444 76.6804 14.6903 76.2036 14.025Z" fill="#D8B94B"/>
</svg>
