<svg width="81" height="81" viewBox="0 0 81 81" fill="none" xmlns="http://www.w3.org/2000/svg">
<path d="M64.125 9.78751H60.75V6.41251C60.75 4.38751 59.4 3.03751 57.375 3.03751C55.35 3.03751 54 4.38751 54 6.41251V9.78751H27V6.41251C27 4.38751 25.65 3.03751 23.625 3.03751C21.6 3.03751 20.25 4.38751 20.25 6.41251V9.78751H16.875C11.1375 9.78751 6.75 14.175 6.75 19.9125V67.1625C6.75 72.9 11.1375 77.2875 16.875 77.2875H64.125C69.8625 77.2875 74.25 72.9 74.25 67.1625V19.9125C74.25 14.5125 69.8625 9.78751 64.125 9.78751ZM23.625 63.7875C21.6 63.7875 20.25 62.4375 20.25 60.4125C20.25 58.3875 21.6 57.0375 23.625 57.0375C25.65 57.0375 27 58.3875 27 60.4125C27 62.4375 25.65 63.7875 23.625 63.7875ZM23.625 50.2875C21.6 50.2875 20.25 48.9375 20.25 46.9125C20.25 44.8875 21.6 43.5375 23.625 43.5375C25.65 43.5375 27 44.8875 27 46.9125C27 48.9375 25.65 50.2875 23.625 50.2875ZM40.5 63.7875C38.475 63.7875 37.125 62.4375 37.125 60.4125C37.125 58.3875 38.475 57.0375 40.5 57.0375C42.525 57.0375 43.875 58.3875 43.875 60.4125C43.875 62.4375 42.525 63.7875 40.5 63.7875ZM40.5 50.2875C38.475 50.2875 37.125 48.9375 37.125 46.9125C37.125 44.8875 38.475 43.5375 40.5 43.5375C42.525 43.5375 43.875 44.8875 43.875 46.9125C43.875 48.9375 42.525 50.2875 40.5 50.2875ZM57.375 63.7875C55.35 63.7875 54 62.4375 54 60.4125C54 58.3875 55.35 57.0375 57.375 57.0375C59.4 57.0375 60.75 58.3875 60.75 60.4125C60.75 62.4375 59.4 63.7875 57.375 63.7875ZM57.375 50.2875C55.35 50.2875 54 48.9375 54 46.9125C54 44.8875 55.35 43.5375 57.375 43.5375C59.4 43.5375 60.75 44.8875 60.75 46.9125C60.75 48.9375 59.4 50.2875 57.375 50.2875ZM67.5 30.0375H13.5V19.9125C13.5 17.8875 14.85 16.5375 16.875 16.5375H20.25V19.9125C20.25 21.9375 21.6 23.2875 23.625 23.2875C25.65 23.2875 27 21.9375 27 19.9125V16.5375H54V19.9125C54 21.9375 55.35 23.2875 57.375 23.2875C59.4 23.2875 60.75 21.9375 60.75 19.9125V16.5375H64.125C66.15 16.5375 67.5 17.8875 67.5 19.9125V30.0375Z" fill="#7BD0FF"/>
</svg>
