<svg width="110" height="110" viewBox="0 0 110 110" fill="none" xmlns="http://www.w3.org/2000/svg">
<path d="M85.4291 45.99C84.9458 46.611 84.3332 47.1196 83.6339 47.4805C82.9346 47.8413 82.1652 48.0459 81.3791 48.08C80.8303 48.1038 80.2811 48.0465 79.7491 47.91C79.5866 47.8687 79.4163 47.8689 79.2538 47.9106C79.0914 47.9523 78.9421 48.0342 78.8196 48.1487C78.6971 48.2632 78.6054 48.4067 78.5529 48.5659C78.5004 48.7252 78.4887 48.8951 78.5191 49.06L79.7891 55.75H73.9991L75.2691 49.06C75.2994 48.8951 75.2878 48.7252 75.2352 48.5659C75.1827 48.4067 75.091 48.2632 74.9685 48.1487C74.846 48.0342 74.6967 47.9523 74.5343 47.9106C74.3719 47.8689 74.2016 47.8687 74.0391 47.91C73.5063 48.0421 72.9577 48.0993 72.4091 48.08C71.6229 48.0459 70.8535 47.8413 70.1542 47.4805C69.4549 47.1196 68.8424 46.611 68.3591 45.99C67.7985 45.2863 67.3958 44.4702 67.1784 43.5971C66.961 42.7241 66.9339 41.8144 67.0991 40.93C68.1091 35.4 74.5591 31.07 76.5291 29.86C76.644 29.7905 76.7762 29.7546 76.9105 29.7564C77.0448 29.7581 77.176 29.7975 77.2891 29.87C79.2391 31.07 85.6791 35.41 86.6891 40.94C86.8536 41.8229 86.8263 42.7308 86.6089 43.6022C86.3915 44.4735 85.9891 45.2879 85.4291 45.99ZM94.5691 67.17C94.2291 69.04 92.0791 70.59 91.1991 71.15C90.3291 70.59 88.1691 69.04 87.8191 67.17C87.768 66.8972 87.7765 66.6167 87.8438 66.3474C87.9111 66.0782 88.0357 65.8267 88.2091 65.61C88.3508 65.4236 88.5317 65.2705 88.7391 65.1617C88.9464 65.0528 89.1751 64.9908 89.4091 64.98H89.4791C89.8734 64.9808 90.2552 65.1187 90.5591 65.37C90.7387 65.5155 90.9629 65.5949 91.1941 65.5949C91.4252 65.5949 91.6494 65.5155 91.8291 65.37C92.1555 65.1034 92.5679 64.9648 92.9891 64.98C93.2219 64.9909 93.4497 65.052 93.6568 65.159C93.8639 65.266 94.0454 65.4164 94.1891 65.6C94.4592 65.938 94.6072 66.3573 94.6091 66.79C94.6056 66.9175 94.5923 67.0446 94.5691 67.17ZM97.8991 8H55.8991C54.8106 7.99947 53.7664 8.43094 52.9958 9.19967C52.2252 9.9684 51.7912 11.0115 51.7891 12.1V30.5H54.0991C55.7175 30.5011 57.2695 31.1438 58.4148 32.2872C59.5601 33.4307 60.2054 34.9816 60.2091 36.6V77.5H97.8991C98.986 77.4984 100.028 77.0659 100.796 76.2974C101.565 75.5288 101.997 74.4869 101.999 73.4V12.1C101.997 11.0131 101.565 9.97117 100.796 9.20262C100.028 8.43406 98.986 8.00159 97.8991 8ZM65.9691 16.48C65.6191 18.36 63.4691 19.9 62.5891 20.46C61.7191 19.91 59.5591 18.36 59.2191 16.48C59.168 16.2072 59.1765 15.9266 59.2438 15.6574C59.3111 15.3882 59.4357 15.1367 59.6091 14.92C59.7507 14.7367 59.9305 14.5863 60.1359 14.4792C60.3414 14.3722 60.5676 14.311 60.7991 14.3H60.8791C61.2723 14.2975 61.6541 14.4318 61.9591 14.68C62.138 14.8271 62.3624 14.9075 62.5941 14.9075C62.8257 14.9075 63.0501 14.8271 63.2291 14.68C63.5558 14.4221 63.963 14.2876 64.3791 14.3C64.6122 14.3096 64.8404 14.3701 65.0477 14.4772C65.255 14.5843 65.4363 14.7354 65.5791 14.92C65.7525 15.1367 65.8771 15.3882 65.9444 15.6574C66.0117 15.9266 66.0201 16.2072 65.9691 16.48Z" fill="#C291FF"/>
<path d="M22.18 40.98C21.83 42.85 19.68 44.4 18.8 44.96C17.93 44.41 15.77 42.86 15.43 40.98C15.3748 40.708 15.3802 40.4272 15.4459 40.1576C15.5116 39.888 15.6359 39.6361 15.81 39.42C15.9536 39.2364 16.1352 39.086 16.3423 38.979C16.5494 38.872 16.7771 38.8109 17.01 38.8H17.08C17.4762 38.7975 17.8612 38.9317 18.17 39.18C18.3475 39.3302 18.5725 39.4126 18.805 39.4126C19.0375 39.4126 19.2625 39.3302 19.44 39.18C19.6091 39.0392 19.8046 38.9337 20.015 38.8695C20.2254 38.8052 20.4466 38.7837 20.6654 38.806C20.8843 38.8284 21.0965 38.8942 21.2896 38.9996C21.4827 39.1051 21.6528 39.248 21.79 39.42C21.9634 39.6367 22.088 39.8882 22.1553 40.1574C22.2226 40.4266 22.231 40.7072 22.18 40.98ZM50.78 91.67C50.44 93.54 48.28 95.09 47.41 95.65C46.53 95.09 44.38 93.54 44.03 91.67C43.9796 91.3956 43.9883 91.1137 44.0556 90.8429C44.1228 90.5722 44.2471 90.3189 44.42 90.1C44.5627 89.9154 44.7441 89.7643 44.9514 89.6572C45.1587 89.5501 45.3869 89.4896 45.62 89.48H45.69C46.0843 89.4808 46.4661 89.6187 46.77 89.87C46.9497 90.0155 47.1738 90.0949 47.405 90.0949C47.6362 90.0949 47.8603 90.0155 48.04 89.87C48.3665 89.6034 48.7788 89.4648 49.2 89.48C49.4314 89.491 49.6577 89.5522 49.8631 89.6592C50.0686 89.7663 50.2484 89.9167 50.39 90.1C50.665 90.4469 50.8131 90.8774 50.81 91.32C50.8095 91.4373 50.7995 91.5543 50.78 91.67ZM54.1 32.5H12.1C11.0131 32.5016 9.97117 32.9341 9.20261 33.7026C8.43406 34.4712 8.00159 35.5131 8 36.6V97.9C8.00159 98.9869 8.43406 100.029 9.20261 100.797C9.97117 101.566 11.0131 101.998 12.1 102H54.1C55.1885 102.001 56.2327 101.569 57.0033 100.8C57.7739 100.032 58.2079 98.9885 58.21 97.9V36.6C58.2079 35.5115 57.7739 34.4684 57.0033 33.6997C56.2327 32.9309 55.1885 32.4995 54.1 32.5ZM42.9 65.23C41.88 70.77 35.44 75.11 33.49 76.3C33.375 76.3735 33.2414 76.4125 33.105 76.4125C32.9686 76.4125 32.835 76.3735 32.72 76.3C30.77 75.11 24.32 70.77 23.31 65.23C23.1454 64.3471 23.1728 63.4392 23.3902 62.5678C23.6076 61.6965 24.01 60.8821 24.57 60.18C25.0533 59.559 25.6658 59.0504 26.3651 58.6895C27.0644 58.3287 27.8338 58.1241 28.62 58.09H28.85C30.1679 58.088 31.4463 58.54 32.47 59.37C32.6475 59.5202 32.8725 59.6026 33.105 59.6026C33.3375 59.6026 33.5625 59.5202 33.74 59.37C34.825 58.4894 36.1937 58.0343 37.59 58.09C38.3762 58.1241 39.1456 58.3287 39.8449 58.6895C40.5442 59.0504 41.1567 59.559 41.64 60.18C42.5235 61.2876 43.0032 62.6632 43 64.08C43.0015 64.4656 42.968 64.8505 42.9 65.23Z" fill="#C291FF"/>
</svg>
