<svg width="81" height="81" viewBox="0 0 81 81" fill="none" xmlns="http://www.w3.org/2000/svg">
<path d="M44.55 1.26562H6.58125C3.67031 1.26562 1.26562 3.67031 1.26562 6.58125V44.55C1.26562 47.4609 3.67031 49.8656 6.58125 49.8656H25.3125V36.45C25.3125 34.1719 26.4516 32.0203 28.2234 30.7547L25.5656 28.0969L13.0359 40.5C12.6562 40.8797 12.15 41.0063 11.7703 41.0063C11.3906 41.0063 10.8844 40.8797 10.5047 40.5C9.74531 39.7406 9.74531 38.6016 10.5047 37.8422L22.9078 25.4391L10.5047 13.0359C9.74531 12.2766 9.74531 11.1375 10.5047 10.3781C11.2641 9.61875 12.4031 9.61875 13.1625 10.3781L25.5656 22.7812L37.9688 10.5047C38.7281 9.74531 39.8672 9.74531 40.6266 10.5047C41.3859 11.2641 41.3859 12.4031 40.6266 13.1625L28.2234 25.5656L32.1469 29.4891C32.2734 29.4891 32.4 29.4891 32.5266 29.4891H49.8656V6.58125C49.7391 3.67031 47.4609 1.26562 44.55 1.26562Z" fill="#D8B94B"/>
<path d="M75.4328 39.3609C75.4328 39.3609 75.5594 39.2344 75.6859 39.2344V36.5765C75.6859 33.6656 73.2812 31.2609 70.3703 31.2609H32.4016C29.4906 31.2609 27.0859 33.6656 27.0859 36.5765V74.5453C27.0859 77.4562 29.4906 79.8609 32.4016 79.8609H70.3703C73.2812 79.8609 75.6859 77.4562 75.6859 74.5453V48.9797L72.0156 52.1437V74.5453C72.0156 75.4312 71.2563 76.064 70.4969 76.064H32.5281C31.6422 76.064 31.0094 75.3047 31.0094 74.5453V36.5765C31.0094 35.6906 31.7688 35.0578 32.5281 35.0578H70.4969C71.3828 35.0578 72.0156 35.8172 72.0156 36.5765V42.3984L75.4328 39.3609Z" fill="#D8B94B"/>
<path d="M47.2072 70.6219C47.0807 70.6219 46.9541 70.6219 46.8275 70.6219C46.3213 70.4953 45.815 70.2422 45.5619 69.736L36.4494 52.9031C35.9432 52.0172 36.3228 50.8781 37.2088 50.3719C38.0947 49.8656 39.2338 50.2453 39.74 51.1313L47.84 65.9391L76.8228 40.7531C77.5822 40.1203 78.7213 40.1203 79.4807 40.8797C80.1135 41.6391 80.1135 42.7781 79.3541 43.5375L48.3463 70.2422C48.0932 70.4953 47.5869 70.6219 47.2072 70.6219Z" fill="#D8B94B"/>
</svg>
