<svg width="80" height="88" viewBox="0 0 80 88" fill="none" xmlns="http://www.w3.org/2000/svg">
<path d="M39.9974 87.6593C39.2848 87.6593 38.707 87.0246 38.707 86.2419C38.707 85.4591 39.2848 84.8244 39.9974 84.8244C77.4192 84.8244 77.4192 78.2709 77.4192 76.1171C77.4192 75.3343 77.997 74.6997 78.7096 74.6997C79.4222 74.6997 80 75.3343 80 76.1171C80 82.1121 75.154 87.6593 39.9974 87.6593ZM24.879 65.0184L24.621 67.8815C2.58081 69.4407 2.58081 74.4158 2.58081 76.1167C2.58081 76.9105 2.00011 77.5342 1.29041 77.5342C0.580699 77.5342 0 76.9105 0 76.1167C0 71.1983 3.12276 66.4783 24.879 65.0184Z" fill="#FF7B7B"/>
<path d="M75.579 76.1167C75.579 82.4809 45.9384 82.7928 40.0025 82.7928C34.0538 82.7928 4.41309 82.4809 4.41309 76.1167C4.41309 75.3371 4.99378 74.6992 5.70349 74.6992C6.3487 74.6992 6.89064 75.2095 6.98098 75.8899C8.42623 77.5767 20.7883 79.9579 40.0025 79.9579C58.365 79.9579 70.469 77.7892 72.753 76.1167C70.4819 74.4583 58.4682 72.2896 40.2348 72.2755L40.5187 69.4407C47.4869 69.4548 75.579 69.9225 75.579 76.1167ZM7.87137 10.1639C7.87137 4.90526 11.7555 0.638794 16.53 0.638794C21.3175 0.638794 25.2015 4.90526 25.2015 10.1639C25.2015 15.4084 21.3175 19.6748 16.53 19.6748C11.7555 19.6748 7.87137 15.4084 7.87137 10.1639Z" fill="#FF7B7B"/>
<path d="M57.6943 62.2685C55.7587 62.7788 53.6682 61.9142 52.5198 60.1424L47.5904 52.4741L37.0349 49.214L38.2092 52.715C38.906 54.7703 39.1641 57.0099 38.9447 59.1927L37.6672 71.9637C37.5898 72.6866 37.0349 73.2394 36.3768 73.2394H28.1698C27.7956 73.2394 27.4472 73.0693 27.2149 72.7716C26.9698 72.4739 26.8407 72.0771 26.8794 71.6802L28.1956 56.9957L18.5821 36.925C14.7865 43.3613 14.355 43.3891 14.2851 44.6216L13.7559 53.7072C13.5882 56.5988 11.3946 58.8667 8.74916 58.8667H8.55565C5.57006 58.8667 3.30995 56.0476 3.54887 52.8993L3.8973 46.861C4.5751 35.3198 11.3643 26.1012 14.4528 24.4233L25.2922 18.6402C26.8407 17.818 28.6473 17.5204 30.3506 17.8464L37.3446 19.1221L43.2159 6.93222C44.404 4.47583 47.1084 3.2756 49.6164 4.42344C52.4026 5.72635 53.4644 9.32903 52.081 12.1341L44.9709 26.5919C43.6805 29.2142 41.0222 30.7166 38.2737 30.2914L32.7894 29.4267L37.293 38.4841L49.4228 41.3048C50.881 41.6308 52.1972 42.5237 53.1263 43.7853L60.3526 53.6506C62.5999 56.7591 61.1454 61.3432 57.6943 62.2685ZM4.82462 6.03205C4.60914 6.03205 4.3905 5.97253 4.18887 5.84726L1.34595 4.07548C0.726575 3.68929 0.509197 2.82416 0.860783 2.14313C1.21111 1.4628 1.99682 1.22333 2.61997 1.61022L5.4629 3.382C6.08227 3.76819 6.29964 4.63332 5.94806 5.31435C5.71052 5.7739 5.27387 6.03205 4.82462 6.03205ZM1.70635 10.6982C1.0895 10.6982 0.544482 10.2117 0.436108 9.52163C0.314502 8.75063 0.785803 8.017 1.48834 7.88412L4.60662 7.29306C5.31105 7.15464 5.97641 7.67718 6.09739 8.44887C6.21899 9.21988 5.74769 9.9535 5.04515 10.0864L1.92688 10.6774C1.85253 10.692 1.77881 10.6982 1.70635 10.6982Z" fill="#FF7B7B"/>
</svg>
