<svg width="80" height="80" viewBox="0 0 80 80" fill="none" xmlns="http://www.w3.org/2000/svg">
<path d="M39.9974 80.0001C39.2848 80.0001 38.707 79.4167 38.707 78.6971C38.707 77.9774 39.2848 77.394 39.9974 77.394C77.4192 77.394 77.4192 71.3692 77.4192 69.3891C77.4192 68.6695 77.997 68.086 78.7096 68.086C79.4222 68.086 80 68.6695 80 69.3891C80 74.9005 75.154 80.0001 39.9974 80.0001ZM24.879 59.1858L24.621 61.8179C2.58081 63.2514 2.58081 67.8251 2.58081 69.3888C2.58081 70.1185 2.00011 70.6919 1.29041 70.6919C0.580699 70.6919 0 70.1185 0 69.3888C0 64.8672 3.12276 60.5279 24.879 59.1858Z" fill="#3BB895"/>
<path d="M75.5791 69.3887C75.5791 75.2395 45.9384 75.5262 40.0026 75.5262C34.0539 75.5262 4.41318 75.2395 4.41318 69.3887C4.41318 68.672 4.99388 68.0856 5.70358 68.0856C6.34879 68.0856 6.89074 68.5547 6.98107 69.1802C8.42632 70.7309 20.7884 72.92 40.0026 72.92C58.3651 72.92 70.4691 70.9263 72.7531 69.3887C70.482 67.8641 58.4683 65.8704 40.2349 65.8574L40.5188 63.2512C47.4869 63.2642 75.5791 63.6942 75.5791 69.3887ZM7.87146 8.7567C7.87146 3.92226 11.7556 0 16.5301 0C21.3175 0 25.2016 3.92226 25.2016 8.7567C25.2016 13.5781 21.3175 17.5003 16.5301 17.5003C11.7556 17.5003 7.87146 13.5781 7.87146 8.7567Z" fill="#3BB895"/>
<path d="M57.6941 56.6578C55.7585 57.1269 53.6679 56.332 52.5195 54.7032L47.5902 47.6535L37.0347 44.6564L38.2089 47.875C38.9058 49.7645 39.1638 51.8233 38.9444 53.83L37.6669 65.5707C37.5895 66.2353 37.0347 66.7435 36.3765 66.7435H28.1696C27.7953 66.7435 27.4469 66.5872 27.2146 66.3135C26.9695 66.0398 26.8404 65.675 26.8792 65.3101L28.1953 51.8103L18.5819 33.3588C14.7862 39.2759 14.3548 39.3015 14.2848 40.4345L13.7557 48.7871C13.5879 51.4455 11.3943 53.5304 8.74889 53.5304H8.55538C5.56978 53.5304 3.30967 50.9387 3.54859 48.0444L3.89703 42.4933C4.57483 31.8832 11.3641 23.4082 14.4525 21.8657L25.2919 16.5491C26.8404 15.7933 28.647 15.5197 30.3504 15.8194L37.3443 16.9922L43.2157 5.78572C44.4037 3.5275 47.1081 2.4241 49.6161 3.47934C52.4023 4.67714 53.4641 7.98917 52.0808 10.568L44.9706 23.8593C43.6802 26.2701 41.022 27.6513 38.2734 27.2604L32.7892 26.4655L37.2928 34.7922L49.4225 37.3853C50.8807 37.685 52.1969 38.5059 53.126 39.6656L60.3523 48.7351C62.5996 51.5928 61.1452 55.8071 57.6941 56.6578ZM4.82435 4.95818C4.60886 4.95818 4.39022 4.90346 4.1886 4.7883L1.34567 3.15945C0.726301 2.80442 0.508923 2.00908 0.860508 1.383C1.21083 0.757548 1.99654 0.537399 2.61969 0.893072L5.46262 2.52191C6.08199 2.87695 6.29937 3.67228 5.94778 4.29837C5.71024 4.72085 5.2736 4.95818 4.82435 4.95818ZM1.70608 9.24789C1.08923 9.24789 0.544207 8.80059 0.435833 8.16623C0.314227 7.45743 0.785528 6.78299 1.48807 6.66083L4.60634 6.11746C5.31077 5.9902 5.97614 6.47058 6.09711 7.18002C6.21872 7.88882 5.74742 8.56326 5.04488 8.68543L1.92661 9.2288C1.85226 9.24216 1.77854 9.24789 1.70608 9.24789Z" fill="#3BB895"/>
</svg>
