<svg width="101" height="101" viewBox="0 0 101 101" fill="none" xmlns="http://www.w3.org/2000/svg">
<path d="M44.6 17.5195C45.3767 21.2221 47.6845 23.432 50.7731 23.432C53.8496 23.432 56.3938 20.9737 56.9604 17.4528C57.1563 16.2317 57.5502 13.5562 57.6391 12.1725C57.7482 10.4282 57.1291 8.74457 55.8948 7.43056C54.5748 6.02363 52.7083 5.21765 50.7731 5.21765C48.838 5.21765 46.9715 6.02464 45.6524 7.43056C44.4182 8.74558 43.8001 10.4293 43.9112 12.1735C43.9991 13.5451 44.3192 16.1782 44.6 17.5195ZM47.7148 9.36673C48.108 8.94996 48.5821 8.61791 49.1082 8.39096C49.6343 8.16401 50.2012 8.04695 50.7741 8.04695C51.3471 8.04695 51.914 8.16401 52.44 8.39096C52.9661 8.61791 53.4403 8.94996 53.8334 9.36673C54.5273 10.105 54.8757 11.0393 54.8162 11.9948C54.7404 13.1775 54.3869 15.6398 54.1677 17.0044C53.8799 18.7961 52.7174 20.605 50.7731 20.605C48.4794 20.605 47.6542 18.3083 47.3674 16.9397C47.121 15.7641 46.8129 13.2371 46.7331 11.9948C46.6735 11.0383 47.022 10.105 47.7148 9.36673Z" fill="#D8B94B"/>
<path d="M83.2745 69.6819L69.1941 55.4854L66.6873 41.1666L83.2755 24.441L90.1011 31.1696L90.5586 10.4919L69.8749 11.2241L76.6722 17.9295L64.4087 30.297C63.6149 28.6861 62.3855 27.3298 60.8601 26.3821C59.3347 25.4343 57.5742 24.933 55.7783 24.9349H45.2399C43.495 24.9335 41.7827 25.4082 40.2876 26.3079C38.7924 27.2075 37.571 28.4981 36.7549 30.0404L24.3905 17.778L31.1191 10.9524L10.4414 10.4929L11.1737 31.1777L17.879 24.3784L34.3976 40.7606L31.712 56.0277L17.879 69.7456L11.1737 62.9462L10.4414 83.631L31.1191 83.1715L24.3905 76.3459L35.5116 65.3157L35.7429 65.3692C36.098 65.4503 36.4707 65.3914 36.7835 65.2048C37.0963 65.0182 37.3252 64.7183 37.4225 64.3673L37.7801 63.0664L39.5334 61.3272L37.8619 94.2976C37.8522 94.4892 37.8815 94.6807 37.9481 94.8606C38.0148 95.0404 38.1173 95.2048 38.2495 95.3438C38.3816 95.4828 38.5407 95.5934 38.717 95.669C38.8933 95.7446 39.0831 95.7835 39.2749 95.7834H45.1359C45.4722 95.7833 45.7974 95.6633 46.0532 95.4451C46.309 95.2269 46.4787 94.9246 46.5317 94.5926L50.5111 69.6809L54.4895 94.5926C54.5986 95.2794 55.1905 95.7834 55.8864 95.7834H61.7514C61.9433 95.7838 62.1333 95.745 62.3097 95.6696C62.4861 95.5941 62.6453 95.4835 62.7775 95.3445C62.9097 95.2054 63.0122 95.0409 63.0788 94.8609C63.1453 94.6809 63.1744 94.4893 63.1644 94.2976L61.4686 60.8616L63.0563 62.4635L63.5775 64.3653C63.6738 64.7173 63.9025 65.0185 64.2157 65.2058C64.5289 65.3931 64.9025 65.452 65.2581 65.3702L65.8136 65.243L76.6732 76.1934L69.8759 82.9008L90.5597 83.6331L90.1001 62.9533L83.2745 69.6819ZM57.0923 92.9543L51.9059 60.4919C51.8516 60.1608 51.6813 59.8598 51.4256 59.6426C51.1698 59.4254 50.8452 59.3061 50.5096 59.3061C50.1741 59.3061 49.8494 59.4254 49.5937 59.6426C49.3379 59.8598 49.1676 60.1608 49.1133 60.4919L43.928 92.9543H40.7606L43.2997 42.9058C43.3171 42.5579 43.2055 42.2158 42.9864 41.945C42.7672 41.6742 42.4559 41.4938 42.112 41.4383C41.7683 41.3846 41.4169 41.4587 41.1243 41.6467C40.8317 41.8347 40.6182 42.1235 40.5243 42.4584L35.0541 62.3089L33.5391 61.9605L38.5992 33.2007C39.1991 30.0485 41.9908 27.7619 45.2389 27.7619H55.7773C59.0184 27.7619 61.812 30.0414 62.413 33.1593L67.4559 61.9605L65.9449 62.3079L60.497 42.4069C60.4066 42.0698 60.1942 41.7785 59.9009 41.5894C59.6077 41.4003 59.2546 41.327 58.9103 41.3837C58.5661 41.4388 58.2544 41.6191 58.035 41.8899C57.8156 42.1608 57.704 42.5031 57.7215 42.8513L60.2627 92.9523H57.0923V92.9543Z" fill="#D8B94B"/>
</svg>
