<svg width="87" height="96" viewBox="0 0 87 96" fill="none" xmlns="http://www.w3.org/2000/svg">
<path d="M55.4077 33.4365V47.4644C55.4077 49.3745 54.0075 50.9484 52.3083 50.9484C51.4519 50.9484 50.677 50.5664 50.1197 49.9246C49.5487 49.2828 49.2089 48.4271 49.2089 47.4644V33.4365C49.2089 31.5264 50.5955 29.9677 52.3083 29.9677C54.0075 29.9677 55.4077 31.5264 55.4077 33.4365ZM46.5717 32.8711V33.4365C46.5717 33.4518 46.5717 33.4518 46.5717 33.4518V46.8837C46.5717 47.8311 46.2183 48.7021 45.6609 49.3439C45.09 49.9704 44.3152 50.3677 43.4723 50.3677H43.35C41.7595 50.2913 40.4545 48.8702 40.373 46.9601V46.7309C43.0102 44.9889 44.7909 41.7799 44.7909 38.0972C44.7909 37.2873 44.1928 36.6149 43.4723 36.6149H40.373V32.8405C40.373 30.9763 41.7052 29.4482 43.35 29.3718H43.4859C44.3152 29.3718 45.0764 29.7385 45.6609 30.3956C46.2455 31.0679 46.5717 31.939 46.5717 32.8711ZM37.7222 33.6046V36.6302H31.5234V33.6046C31.5234 31.6945 32.91 30.1358 34.6364 30.1358C36.322 30.1205 37.7222 31.6639 37.7222 33.6046ZM64.2436 34.7659V47.0976C64.2436 49.023 62.8434 50.5817 61.1306 50.5817C59.4314 50.5817 58.0448 49.023 58.0448 47.0976V34.7659C58.0448 32.8558 59.4314 31.2819 61.1442 31.2819C62.857 31.2819 64.2436 32.8558 64.2436 34.7659Z" fill="#FF7B7B"/>
<path d="M64.2441 52.507V64.9304C64.2441 65.6945 64.013 66.4127 63.578 66.9933L61.3214 70.1106C60.5194 71.2109 60.0708 72.6167 60.0708 74.0226L59.8397 89.5327L31.5239 95.1102V75.5812C31.5239 73.7322 30.817 71.9902 29.5392 70.7983L23.7891 65.3583C23.123 64.7318 22.7559 63.8302 22.7559 62.8675V43.3843C22.7559 41.2908 24.2648 39.5794 26.1272 39.5794H30.1917L30.2053 39.5947L30.2189 39.5794H39.0277L39.0412 39.5947L39.0548 39.5794H41.9911C41.3794 42.7578 38.8781 45.1264 35.8875 45.1264H27.9623C27.2283 45.1264 26.6438 45.7987 26.6438 46.6086C26.6438 47.4185 27.2283 48.0908 27.9623 48.0908H28.9003V54.6311C28.9003 55.441 29.4848 56.1133 30.2189 56.1133C30.9394 56.1133 31.5375 55.441 31.5375 54.6311V48.1061H35.8875C36.54 48.1061 37.1653 48.0297 37.777 47.8769C37.7906 48.0144 37.8178 48.1367 37.8722 48.2437C38.4295 51.1623 40.7133 53.3322 43.4592 53.3322C43.4728 53.3322 43.4728 53.3322 43.4728 53.3322H43.6359C45.2264 53.2711 46.6673 52.4765 47.6869 51.2387C48.7336 52.8432 50.4056 53.9129 52.3223 53.9129C54.1847 53.9129 55.8159 52.8891 56.8763 51.3457C57.9366 52.6751 59.4455 53.5461 61.1583 53.5461C62.2866 53.5461 63.3469 53.1641 64.2441 52.507ZM42.8747 14.809C43.6087 14.809 44.1933 14.1519 44.1933 13.3268V1.95777C44.1933 1.1326 43.6087 0.475525 42.8747 0.475525C42.1406 0.475525 41.5561 1.1326 41.5561 1.95777V13.3268C41.5561 14.1519 42.1406 14.809 42.8747 14.809ZM25.7873 19.2558C26.032 19.7295 26.4806 20.0045 26.9292 20.0045C27.1467 20.0045 27.3778 19.9434 27.5817 19.8059C28.207 19.3933 28.4245 18.4917 28.0711 17.7735L23.0142 7.91733C22.6472 7.21441 21.8452 6.96991 21.2063 7.36722C20.5809 7.7798 20.3634 8.68138 20.7169 9.39958L25.7873 19.2558ZM5.99484 27.5533L14.7492 33.2378C14.9531 33.3753 15.1842 33.4365 15.4017 33.4365C15.8639 33.4365 16.2989 33.1767 16.5436 32.6877C16.9106 31.9848 16.6931 31.0679 16.0542 30.6553L7.29984 24.9708C6.67453 24.5582 5.85891 24.8027 5.49188 25.5209C5.15203 26.2391 5.36953 27.1407 5.99484 27.5533ZM12.7509 50.0774C12.7509 49.2522 12.1664 48.5951 11.4323 48.5951H1.31859C0.584531 48.5951 0 49.2522 0 50.0774C0 50.9025 0.584531 51.5596 1.31859 51.5596H11.4323C12.1664 51.5596 12.7509 50.8873 12.7509 50.0774ZM15.3881 66.7183L6.62016 72.4028C5.99484 72.8154 5.77734 73.7169 6.13078 74.4352C6.37547 74.9089 6.82406 75.1839 7.27266 75.1839C7.49016 75.1839 7.72125 75.1228 7.92516 74.9853L16.6931 69.3008C17.3184 68.8882 17.5359 67.9866 17.1825 67.2684C16.8155 66.5502 16.0134 66.3057 15.3881 66.7183ZM81.0052 71.1803L72.2508 65.4958C71.6255 65.0832 70.8098 65.3277 70.4428 66.0459C70.0758 66.7488 70.2933 67.6657 70.9322 68.0783L79.6866 73.7628C79.8905 73.9003 80.1216 73.9614 80.3391 73.9614C80.8012 73.9614 81.2363 73.7017 81.4809 73.2127C81.848 72.5098 81.6305 71.5929 81.0052 71.1803ZM85.6814 47.1893H75.5677C74.8336 47.1893 74.2491 47.8464 74.2491 48.6715C74.2491 49.4967 74.8336 50.1538 75.5677 50.1538H85.6814C86.4155 50.1538 87 49.4967 87 48.6715C87 47.8464 86.4155 47.1893 85.6814 47.1893ZM71.6119 32.0306L80.3798 26.3461C81.0052 25.9335 81.2227 25.032 80.8692 24.3137C80.5022 23.5955 79.7002 23.3663 79.0612 23.7636L70.2933 29.4634C69.668 29.876 69.4505 30.7776 69.8039 31.4958C70.0486 31.9695 70.4972 32.2445 70.9458 32.2445C71.1769 32.2293 71.408 32.1681 71.6119 32.0306ZM58.3308 19.0877C58.5347 19.2252 58.7658 19.2863 58.9833 19.2863C59.4455 19.2863 59.8805 19.0266 60.1252 18.5376L65.182 8.68138C65.5491 7.97845 65.3316 7.0616 64.6927 6.64901C64.0673 6.23643 63.2517 6.48092 62.8847 7.19913L57.8278 17.0553C57.488 17.7735 57.7055 18.6751 58.3308 19.0877Z" fill="#FF7B7B"/>
</svg>
