<svg width="87" height="87" viewBox="0 0 87 87" fill="none" xmlns="http://www.w3.org/2000/svg">
<path d="M55.4081 30.3017V43.1979C55.4081 44.9539 54.008 46.4009 52.3087 46.4009C51.4523 46.4009 50.6775 46.0497 50.1201 45.4597C49.5492 44.8696 49.2094 44.0829 49.2094 43.1979V30.3017C49.2094 28.5457 50.5959 27.1128 52.3087 27.1128C54.008 27.1128 55.4081 28.5457 55.4081 30.3017ZM46.5722 29.782V30.3017C46.5722 30.3158 46.5722 30.3158 46.5722 30.3158V42.6641C46.5722 43.5351 46.2187 44.3358 45.6614 44.9258C45.0905 45.5018 44.3156 45.8671 43.4728 45.8671H43.3505C41.76 45.7968 40.455 44.4903 40.3734 42.7343V42.5236C43.0106 40.9221 44.7914 37.972 44.7914 34.5864C44.7914 33.8419 44.1933 33.2237 43.4728 33.2237H40.3734V29.7539C40.3734 28.04 41.7056 26.6352 43.3505 26.5649H43.4864C44.3156 26.5649 45.0769 26.9021 45.6614 27.5062C46.2459 28.1243 46.5722 28.925 46.5722 29.782ZM37.7226 30.4563V33.2378H31.5239V30.4563C31.5239 28.7003 32.9105 27.2673 34.6369 27.2673C36.3225 27.2533 37.7226 28.6722 37.7226 30.4563ZM64.244 31.5239V42.8608C64.244 44.6308 62.8439 46.0637 61.1311 46.0637C59.4319 46.0637 58.0453 44.6308 58.0453 42.8608V31.5239C58.0453 29.7679 59.4319 28.321 61.1447 28.321C62.8575 28.321 64.244 29.7679 64.244 31.5239Z" fill="#3BB895"/>
<path d="M64.2441 47.8338V59.255C64.2441 59.9574 64.013 60.6176 63.578 61.1515L61.3214 64.0173C60.5194 65.0287 60.0708 66.3212 60.0708 67.6136L59.8397 81.8724L31.5239 87V69.0465C31.5239 67.3467 30.817 65.7452 29.5392 64.6494L23.7891 59.6483C23.123 59.0723 22.7559 58.2435 22.7559 57.3585V39.4471C22.7559 37.5225 24.2648 35.9491 26.1272 35.9491H30.1917L30.2053 35.9632L30.2189 35.9491H39.0277L39.0412 35.9632L39.0548 35.9491H41.9911C41.3794 38.8711 38.8781 41.0486 35.8875 41.0486H27.9623C27.2283 41.0486 26.6438 41.6667 26.6438 42.4113C26.6438 43.1558 27.2283 43.7739 27.9623 43.7739H28.9003V49.7865C28.9003 50.5311 29.4848 51.1492 30.2189 51.1492C30.9394 51.1492 31.5375 50.5311 31.5375 49.7865V43.788H35.8875C36.54 43.788 37.1653 43.7177 37.777 43.5773C37.7906 43.7037 37.8178 43.8161 37.8722 43.9144C38.4295 46.5976 40.7133 48.5924 43.4592 48.5924C43.4728 48.5924 43.4728 48.5924 43.4728 48.5924H43.6359C45.2264 48.5363 46.6673 47.8057 47.6869 46.6679C48.7336 48.1429 50.4056 49.1263 52.3223 49.1263C54.1847 49.1263 55.8159 48.185 56.8763 46.7662C57.9366 47.9884 59.4455 48.7891 61.1583 48.7891C62.2866 48.7891 63.3469 48.4379 64.2441 47.8338ZM42.8747 13.1771C43.6087 13.1771 44.1933 12.5731 44.1933 11.8145V1.36267C44.1933 0.604069 43.6087 0 42.8747 0C42.1406 0 41.5561 0.604069 41.5561 1.36267V11.8145C41.5561 12.5731 42.1406 13.1771 42.8747 13.1771ZM25.7873 17.2651C26.032 17.7006 26.4806 17.9535 26.9292 17.9535C27.1467 17.9535 27.3778 17.8973 27.5817 17.7709C28.207 17.3916 28.4245 16.5627 28.0711 15.9025L23.0142 6.84143C22.6472 6.19522 21.8452 5.97045 21.2063 6.3357C20.5809 6.715 20.3634 7.54384 20.7169 8.2041L25.7873 17.2651ZM5.99484 24.8933L14.7492 30.1192C14.9531 30.2456 15.1842 30.3018 15.4017 30.3018C15.8639 30.3018 16.2989 30.063 16.5436 29.6134C16.9106 28.9672 16.6931 28.1243 16.0542 27.745L7.29984 22.5191C6.67453 22.1398 5.85891 22.3646 5.49188 23.0249C5.15203 23.6851 5.36953 24.514 5.99484 24.8933ZM12.7509 45.6002C12.7509 44.8416 12.1664 44.2375 11.4323 44.2375H1.31859C0.584531 44.2375 0 44.8416 0 45.6002C0 46.3588 0.584531 46.9629 1.31859 46.9629H11.4323C12.1664 46.9629 12.7509 46.3447 12.7509 45.6002ZM15.3881 60.8986L6.62016 66.1245C5.99484 66.5038 5.77734 67.3326 6.13078 67.9929C6.37547 68.4284 6.82406 68.6813 7.27266 68.6813C7.49016 68.6813 7.72125 68.6251 7.92516 68.4986L16.6931 63.2727C17.3184 62.8934 17.5359 62.0646 17.1825 61.4043C16.8155 60.7441 16.0134 60.5193 15.3881 60.8986ZM81.0052 65.0006L72.2508 59.7747C71.6255 59.3955 70.8098 59.6202 70.4428 60.2805C70.0758 60.9267 70.2933 61.7696 70.9322 62.1489L79.6866 67.3748C79.8905 67.5012 80.1216 67.5574 80.3391 67.5574C80.8012 67.5574 81.2363 67.3186 81.4809 66.869C81.848 66.2228 81.6305 65.3799 81.0052 65.0006ZM85.6814 42.9451H75.5677C74.8336 42.9451 74.2491 43.5492 74.2491 44.3078C74.2491 45.0664 74.8336 45.6704 75.5677 45.6704H85.6814C86.4155 45.6704 87 45.0664 87 44.3078C87 43.5492 86.4155 42.9451 85.6814 42.9451ZM71.6119 29.0094L80.3798 23.7835C81.0052 23.4042 81.2227 22.5753 80.8692 21.9151C80.5022 21.2548 79.7002 21.0441 79.0612 21.4093L70.2933 26.6493C69.668 27.0286 69.4505 27.8574 69.8039 28.5177C70.0486 28.9532 70.4972 29.206 70.9458 29.206C71.1769 29.192 71.408 29.1358 71.6119 29.0094ZM58.3308 17.1106C58.5347 17.237 58.7658 17.2932 58.9833 17.2932C59.4455 17.2932 59.8805 17.0544 60.1252 16.6049L65.182 7.54384C65.5491 6.89763 65.3316 6.05474 64.6927 5.67544C64.0673 5.29614 63.2517 5.52091 62.8847 6.18117L57.8278 15.2422C57.488 15.9025 57.7055 16.7313 58.3308 17.1106Z" fill="#3BB895"/>
</svg>
