<svg width="55" height="57" viewBox="0 0 55 57" fill="none" xmlns="http://www.w3.org/2000/svg">
<path d="M0.00167389 23.8682V36.5998C-0.00042563 39.1249 0.652843 41.6046 1.89382 43.7823C3.1348 45.9599 4.91837 47.7562 7.05979 48.985L9.16806 50.1968V55.0282C9.16806 55.4456 9.32902 55.8459 9.61552 56.141C9.90203 56.4361 10.2906 56.6019 10.6958 56.6019H22.9176C23.3228 56.6019 23.7114 56.4361 23.9979 56.141C24.2844 55.8459 24.4454 55.4456 24.4454 55.0282V43.2409C24.4454 39.0233 24.1093 37.4653 21.8941 35.1676L18.1206 31.2648C17.1996 30.3753 16.0108 29.8372 14.7519 29.7398C13.4929 29.6425 12.2395 29.9918 11.1999 30.7297L9.67221 22.861C9.45772 21.6138 8.79343 20.4961 7.81253 19.7322C6.83164 18.9683 5.60667 18.6146 4.38323 18.742C3.15979 18.8694 2.02834 19.4685 1.21574 20.4193C0.403135 21.37 -0.0305369 22.602 0.00167389 23.8682ZM6.67786 23.5535L8.98473 35.388C8.98473 35.5768 8.98473 35.7499 8.98473 35.9388C8.97721 36.0908 8.97721 36.2431 8.98473 36.3952C8.98473 36.5998 9.10695 36.8043 9.16806 37.0089L9.29028 37.3866C9.39227 37.6151 9.50968 37.836 9.64166 38.0476C9.68163 38.1348 9.72757 38.2189 9.77915 38.2994C9.96658 38.5931 10.1815 38.8672 10.4208 39.1177L14.0721 42.879C14.3598 43.1753 14.7499 43.3418 15.1568 43.3418C15.5636 43.3418 15.9538 43.1753 16.2415 42.879C16.5291 42.5826 16.6907 42.1807 16.6907 41.7616C16.6907 41.3425 16.5291 40.9406 16.2415 40.6442L12.5902 36.883C12.161 36.4404 11.92 35.8404 11.92 35.2149C11.92 34.5893 12.161 33.9893 12.5902 33.5467C13.0255 33.1158 13.6058 32.8752 14.2096 32.8752C14.8133 32.8752 15.3936 33.1158 15.829 33.5467L19.6025 37.4496C20.9927 38.8817 21.2677 39.4797 21.2677 43.2881V53.4545H12.2235V49.2683C12.2231 48.9895 12.1507 48.7157 12.0138 48.4752C11.8769 48.2346 11.6804 48.0358 11.4444 47.8992L8.55697 46.3254C6.8761 45.3634 5.47813 43.9523 4.51024 42.2408C3.54236 40.5292 3.04037 38.5805 3.05714 36.5998V23.8682C3.07931 23.4117 3.26148 22.979 3.56983 22.6503C3.87819 22.3216 4.29181 22.1193 4.73396 22.0808C5.17612 22.0424 5.61681 22.1705 5.97427 22.4413C6.33174 22.7121 6.58173 23.1073 6.67786 23.5535ZM50.1113 18.8323C48.9821 18.829 47.8872 19.2309 47.0145 19.969C46.1419 20.7071 45.546 21.7353 45.3295 22.8768L43.8017 30.7455C42.7631 30.0047 41.5092 29.6537 40.2495 29.7511C38.9898 29.8485 37.8007 30.3884 36.8811 31.2805L33.1076 35.1834C30.8924 37.4653 30.5563 39.0233 30.5563 43.2409V55.0282C30.5563 55.4456 30.7173 55.8459 31.0038 56.141C31.2903 56.4361 31.6788 56.6019 32.084 56.6019H44.3059C44.7111 56.6019 45.0996 56.4361 45.3861 56.141C45.6727 55.8459 45.8336 55.4456 45.8336 55.0282V50.1968L47.9419 48.985C50.0833 47.7562 51.8669 45.9599 53.1078 43.7823C54.3488 41.6046 55.0021 39.1249 55 36.5998V23.8682C54.996 22.5339 54.4796 21.2554 53.5637 20.3119C52.6477 19.3683 51.4066 18.8364 50.1113 18.8323ZM51.9445 36.5998C51.9476 38.5671 51.4391 40.4995 50.4719 42.196C49.5047 43.8924 48.1142 45.2912 46.4447 46.2467L43.5573 47.8205C43.3213 47.9571 43.1248 48.1559 42.9879 48.3965C42.851 48.637 42.7786 48.9108 42.7781 49.1896V53.4545H33.6118V43.2409C33.6118 39.4325 33.8867 38.8345 35.277 37.4024L39.0505 33.4995C39.4858 33.0686 40.0662 32.828 40.6699 32.828C41.2736 32.828 41.8539 33.0686 42.2893 33.4995C42.7184 33.9421 42.9595 34.5421 42.9595 35.1676C42.9595 35.7932 42.7184 36.3932 42.2893 36.8358L38.638 40.597C38.3503 40.8934 38.1887 41.2953 38.1887 41.7144C38.1887 42.1335 38.3503 42.5354 38.638 42.8317C38.9257 43.1281 39.3158 43.2946 39.7227 43.2946C40.1295 43.2946 40.5197 43.1281 40.8074 42.8317L44.4586 39.0705C44.6927 38.8152 44.9072 38.5416 45.1003 38.2522C45.1572 38.1558 45.2082 38.056 45.2531 37.9532C45.3749 37.7572 45.4821 37.552 45.5739 37.3394C45.6265 37.2109 45.6724 37.0795 45.7114 36.946C45.7114 36.7414 45.8336 36.5525 45.8794 36.3322C45.8879 36.175 45.8879 36.0173 45.8794 35.8601C45.8794 35.687 45.8794 35.5296 45.8794 35.3565L48.3238 23.5535C48.4199 23.1073 48.6699 22.7121 49.0274 22.4413C49.3849 22.1705 49.8256 22.0424 50.2677 22.0808C50.7099 22.1193 51.1235 22.3216 51.4318 22.6503C51.7402 22.979 51.9224 23.4117 51.9445 23.8682V36.5998ZM26.4314 34.1132C26.717 34.4016 27.1009 34.5631 27.5008 34.5631C27.9007 34.5631 28.2847 34.4016 28.5702 34.1132L44.3059 18.1084C45.2676 17.1253 46.0309 15.9559 46.5518 14.6675C47.0726 13.3791 47.3408 11.9973 47.3408 10.6017C47.3408 9.20601 47.0726 7.82417 46.5518 6.5358C46.0309 5.24742 45.2676 4.078 44.3059 3.09493C42.3387 1.11103 39.6952 0 36.9422 0C34.1892 0 31.5458 1.11103 29.5785 3.09493L27.5008 5.15653L25.4231 3.09493C23.4559 1.11103 20.8125 0 18.0595 0C15.3064 0 12.663 1.11103 10.6958 3.09493C9.72717 4.07881 8.95802 5.25118 8.43303 6.54392C7.90805 7.83665 7.6377 9.22397 7.6377 10.6253C7.6377 12.0265 7.90805 13.4139 8.43303 14.7066C8.95802 15.9993 9.72717 17.1717 10.6958 18.1556L26.4314 34.1132ZM12.8499 5.29816C14.2415 3.88821 16.1152 3.09806 18.0671 3.09806C20.019 3.09806 21.8927 3.88821 23.2843 5.29816L26.4314 8.44563C26.717 8.73398 27.1009 8.8955 27.5008 8.8955C27.9007 8.8955 28.2847 8.73398 28.5702 8.44563L31.7174 5.29816C33.1109 3.89196 34.9839 3.10437 36.9346 3.10437C38.8853 3.10437 40.7583 3.89196 42.1518 5.29816C42.8331 5.98673 43.3743 6.80832 43.7438 7.7149C44.1133 8.62147 44.3036 9.59482 44.3036 10.578C44.3036 11.5613 44.1133 12.5346 43.7438 13.4412C43.3743 14.3478 42.8331 15.1694 42.1518 15.8579L27.5008 30.7769L12.8499 15.8579C12.1686 15.1694 11.6273 14.3478 11.2579 13.4412C10.8884 12.5346 10.6981 11.5613 10.6981 10.578C10.6981 9.59482 10.8884 8.62147 11.2579 7.7149C11.6273 6.80832 12.1686 5.98673 12.8499 5.29816Z" fill="white"/>
<path d="M22.9176 18.8322H25.9731V21.9796C25.9731 22.397 26.134 22.7973 26.4205 23.0924C26.7071 23.3876 27.0956 23.5534 27.5008 23.5534C27.906 23.5534 28.2946 23.3876 28.5811 23.0924C28.8676 22.7973 29.0285 22.397 29.0285 21.9796V18.8322H32.084C32.4892 18.8322 32.8778 18.6664 33.1643 18.3712C33.4508 18.0761 33.6117 17.6758 33.6117 17.2584C33.6117 16.8411 33.4508 16.4408 33.1643 16.1456C32.8778 15.8505 32.4892 15.6847 32.084 15.6847H29.0285V12.5372C29.0285 12.1199 28.8676 11.7196 28.5811 11.4244C28.2946 11.1293 27.906 10.9635 27.5008 10.9635C27.0956 10.9635 26.7071 11.1293 26.4205 11.4244C26.134 11.7196 25.9731 12.1199 25.9731 12.5372V15.6847H22.9176C22.5124 15.6847 22.1239 15.8505 21.8374 16.1456C21.5508 16.4408 21.3899 16.8411 21.3899 17.2584C21.3899 17.6758 21.5508 18.0761 21.8374 18.3712C22.1239 18.6664 22.5124 18.8322 22.9176 18.8322Z" fill="white"/>
</svg>
