<svg width="90" height="90" viewBox="0 0 90 90" fill="none" xmlns="http://www.w3.org/2000/svg">
<path d="M85.032 37.6719C83.5554 26.9141 74.5555 18.6172 63.7273 17.9141C55.8523 17.4219 48.7508 20.8672 44.2508 26.4922C43.6179 27.2656 42.4226 27.2656 41.8601 26.4922C37.3601 20.8672 30.1883 17.3516 22.3133 17.9141C11.2742 18.6172 2.20389 27.336 1.00858 38.3047C0.727329 40.836 0.867954 43.2266 1.36014 45.5469C3.75077 59.6094 15.1414 73.7422 38.2742 87.8047C40.7351 89.2813 43.7586 89.3516 46.2195 87.875C68.7898 74.2344 81.3055 60.5235 84.3992 46.8828C85.243 44 85.4539 40.9063 85.032 37.6719Z" fill="#C291FF"/>
<path opacity="0.8" d="M7.54682 46.25C6.70307 46.25 5.99995 45.6875 5.78901 44.8438V44.6328C5.36714 42.7344 5.29682 40.7656 5.50776 38.7969C6.49214 30.0781 13.875 23.0469 22.5937 22.4844C23.0156 22.4844 23.4374 22.4141 23.8593 22.4141C24.8437 22.4141 25.6171 23.1875 25.6171 24.1719C25.6171 25.1562 24.8437 26 23.8593 26H22.8046C15.7031 26.4922 9.79682 32.1172 9.02339 39.2188C8.81245 40.8359 8.95307 42.4531 9.23432 44L9.30464 44.2109C9.51557 45.1953 8.88276 46.1094 7.89839 46.25H7.54682Z" fill="white"/>
<path d="M61.4766 48.7109H50.2266C49.8047 48.7109 49.4531 48.3594 49.4531 47.9375V36.6875C49.4531 36.2656 49.1016 35.9141 48.6797 35.9141H37.4297C37.0078 35.9141 36.6563 36.2656 36.6563 36.6875V47.9375C36.6563 48.3594 36.3047 48.7109 35.8828 48.7109H24.6328C24.2109 48.7109 23.8594 49.0625 23.8594 49.4844V60.7344C23.8594 61.1563 24.2109 61.5078 24.6328 61.5078H35.8828C36.3047 61.5078 36.6563 61.8594 36.6563 62.2812V73.5312C36.6563 73.9531 37.0078 74.3047 37.4297 74.3047H48.6797C49.1016 74.3047 49.4531 73.9531 49.4531 73.5312V62.2812C49.4531 61.8594 49.8047 61.5078 50.2266 61.5078H61.4766C61.8984 61.5078 62.25 61.1563 62.25 60.7344V49.4844C62.25 48.9922 61.8984 48.7109 61.4766 48.7109Z" fill="white"/>
<path d="M48.6797 75.1484H37.4297C36.5156 75.1484 35.8125 74.375 35.8125 73.5312V62.3516H24.6328C23.7187 62.3516 23.0156 61.5781 23.0156 60.7344V49.4844C23.0156 48.5703 23.7187 47.8672 24.6328 47.8672H35.7422V36.6875C35.7422 35.7734 36.4453 35.0703 37.3594 35.0703H48.6094C49.5234 35.0703 50.2266 35.8437 50.2266 36.6875V47.7969H61.3359C62.25 47.7969 62.9531 48.5703 62.9531 49.4141V60.6641C62.9531 61.5781 62.25 62.2812 61.3359 62.2812H50.2969V73.3906C50.2969 74.375 49.5938 75.1484 48.6797 75.1484ZM37.5703 73.3906H48.6094V62.2109C48.6094 61.2969 49.3125 60.5937 50.2266 60.5937H61.3359V49.5547H50.2266C49.3125 49.5547 48.6094 48.7812 48.6094 47.9375V36.7578H37.5703V47.8672C37.5703 48.7812 36.8672 49.4844 35.9531 49.4844H24.7734V60.5234H35.8828C36.7969 60.5234 37.5 61.2969 37.5 62.1406V73.3906H37.5703Z" fill="#C291FF"/>
<path d="M42.2817 89.8438C40.6645 89.8438 39.1176 89.4219 37.7817 88.5781C15.2817 74.8672 3.04731 60.875 0.44575 45.7578C-0.0464372 43.2969 -0.11675 40.7656 0.1645 38.2344C1.43013 26.9141 10.9223 17.8438 22.2426 17.0703C22.8051 17 23.3676 17 23.8598 17C31.1723 17 37.9223 20.2344 42.4926 26C42.7036 26.2109 42.9145 26.2813 42.9848 26.2813C43.0551 26.2813 43.3364 26.2813 43.477 26C48.3989 19.8828 55.852 16.5781 63.6567 17.0703C74.9067 17.7734 84.1879 26.4219 85.7348 37.5313C86.1567 40.7656 86.0161 44 85.1723 47.0938C81.9379 61.0859 68.9301 75.0781 46.5708 88.5781C45.3754 89.4219 43.8286 89.8438 42.2817 89.8438ZM23.8598 18.7578C23.3676 18.7578 22.8754 18.7578 22.3129 18.8281C11.7661 19.5313 2.977 27.9688 1.852 38.4453C1.57075 40.8359 1.71138 43.1563 2.20356 45.4766C4.6645 59.8906 16.9692 73.8828 38.6958 87.1719C40.8051 88.5078 43.6176 88.5078 45.727 87.2422C67.6645 73.9531 80.3911 60.3828 83.5551 46.8125C84.3286 43.8594 84.5395 40.9063 84.1176 37.8828C82.7114 27.5469 74.0629 19.5312 63.6567 18.8984C56.4145 18.3359 49.4536 21.4297 44.9536 27.0547C44.4614 27.6172 43.7583 27.9688 43.0551 27.9688C42.2817 27.9688 41.6489 27.6172 41.1567 27.0547C36.9379 21.7813 30.6098 18.7578 23.8598 18.7578Z" fill="#C291FF"/>
<path opacity="0.2" d="M42.2812 88.9297C43.6172 88.9297 45.0234 88.5781 46.2187 87.875C68.7891 74.2344 81.3047 60.5234 84.3984 46.8828C85.1719 44 85.4531 40.9062 84.9609 37.6719C83.4844 26.9141 74.4844 18.6172 63.6563 17.9141C72.8672 40.2031 66.75 63.7578 42.2812 88.9297Z" fill="#C291FF"/>
</svg>
