<svg width="93" height="93" viewBox="0 0 93 93" fill="none" xmlns="http://www.w3.org/2000/svg">
<path d="M78.619 10.0004C83.6134 17.3197 86.5401 25.851 87.0907 34.6948C87.1381 35.4645 86.8778 36.2214 86.3672 36.7991C85.8565 37.3769 85.1372 37.728 84.3676 37.7754C83.5979 37.8229 82.841 37.5626 82.2633 37.0519C81.6855 36.5412 81.3343 35.8219 81.2869 35.0523C80.8006 27.2535 78.2193 19.7303 73.815 13.2758C73.5999 12.9603 73.4491 12.6056 73.3711 12.2319C73.2931 11.8582 73.2895 11.4727 73.3605 11.0976C73.4315 10.7225 73.5756 10.365 73.7848 10.0456C73.9939 9.72622 74.2639 9.45113 74.5793 9.23607C74.8947 9.02101 75.2495 8.87018 75.6232 8.7922C75.9969 8.71423 76.3823 8.71062 76.7575 8.7816C77.1326 8.85257 77.49 8.99674 77.8094 9.20586C78.1289 9.41499 78.4039 9.68498 78.619 10.0004ZM74.3439 47.2353C74.2473 47.6047 74.079 47.9515 73.8484 48.2559C73.6178 48.5603 73.3295 48.8162 73 49.0092C72.6705 49.2022 72.3062 49.3283 71.9279 49.3805C71.5497 49.4327 71.1648 49.4098 70.7954 49.3133C70.4259 49.2167 70.0791 49.0483 69.7748 48.8177C69.4704 48.5872 69.2144 48.2989 69.0215 47.9694C68.8285 47.6398 68.7023 47.2756 68.6502 46.8973C68.598 46.519 68.6208 46.1342 68.7174 45.7647C72.109 32.8261 67.0027 18.8354 55.43 11.1397C55.1101 10.9292 54.8349 10.6576 54.6203 10.3404C54.4057 10.0233 54.2559 9.66681 54.1795 9.29157C54.1031 8.91632 54.1016 8.52968 54.1751 8.15386C54.2486 7.77804 54.3957 7.42045 54.6079 7.10165C54.82 6.78284 55.0931 6.50911 55.4114 6.29618C55.7296 6.08325 56.0869 5.93532 56.4625 5.8609C56.8382 5.78647 57.2248 5.78702 57.6002 5.86251C57.9757 5.93799 58.3325 6.08693 58.6502 6.30076C65.2054 10.6377 70.2419 16.9144 73.0556 24.2535C75.8694 31.5927 76.3198 39.6276 74.3439 47.2353Z" fill="#7BD0FF"/>
<path d="M36.0462 11.6802C22.352 12.5666 11.625 24.3834 11.625 38.5776V69.1252C11.625 78.367 18.5361 86.2633 27.3594 87.1061C29.7914 87.343 32.246 87.0665 34.5644 86.2945C36.8827 85.5225 39.013 84.2721 40.8174 82.6245C42.6218 80.9768 44.06 78.9685 45.0389 76.7297C46.0178 74.4908 46.5156 72.0714 46.5 69.6279C46.4709 65.5214 48.2408 61.999 51.2285 60.2059C55.1169 57.8993 58.3352 54.6166 60.5644 50.6833C62.7936 46.7499 63.9564 42.3024 63.9375 37.7813C63.9375 23.0437 51.5569 10.6776 36.0462 11.6802ZM30.6784 63.4493C30.361 63.6615 30.005 63.8091 29.6306 63.8837C29.2562 63.9583 28.8708 63.9584 28.4963 63.8841C28.1219 63.8097 27.7658 63.6623 27.4483 63.4504C27.1308 63.2384 26.8582 62.9659 26.646 62.6486C26.4338 62.3312 26.2861 61.9752 26.2115 61.6008C26.1369 61.2264 26.1368 60.841 26.2111 60.4665C26.2855 60.0921 26.4329 59.736 26.6449 59.4185C26.8568 59.101 27.1293 58.8284 27.4466 58.6162C28.4435 57.9477 29.0625 56.6486 29.0625 55.2188C29.0625 53.7889 28.4435 52.4869 27.4466 51.8213C26.835 51.3801 26.4186 50.7185 26.2854 49.9762C26.1521 49.2339 26.3123 48.4688 26.7322 47.8424C27.1521 47.2159 27.7989 46.777 28.5362 46.6182C29.2735 46.4594 30.0436 46.5931 30.6842 46.9912C33.3085 48.7494 34.875 51.8243 34.875 55.2188C34.875 58.6133 33.3056 61.691 30.6784 63.4493ZM45.2474 50.2374C44.9201 50.4338 44.5574 50.5638 44.1799 50.62C43.8024 50.6761 43.4175 50.6574 43.0473 50.5648C42.2995 50.3779 41.6566 49.9016 41.26 49.2406C41.0637 48.9133 40.9337 48.5506 40.8775 48.1731C40.8213 47.7956 40.8401 47.4107 40.9326 47.0405C41.1196 46.2927 41.5959 45.6498 42.2569 45.2532C43.5537 44.4852 44.6274 43.3918 45.3716 42.0812C46.1158 40.7707 46.5048 39.2884 46.5 37.7813C46.5 32.7709 42.2017 28.7806 37.1738 29.0828C32.7011 29.3706 29.0625 33.6311 29.0625 38.5776C29.0625 39.3484 28.7563 40.0876 28.2113 40.6326C27.6663 41.1776 26.927 41.4838 26.1562 41.4838C25.3855 41.4838 24.6462 41.1776 24.1012 40.6326C23.5562 40.0876 23.25 39.3484 23.25 38.5776C23.25 30.6261 29.3299 23.7644 36.7989 23.282C45.1137 22.7414 52.3125 29.4403 52.3125 37.7813C52.3125 42.9253 49.6736 47.584 45.2474 50.2374Z" fill="#7BD0FF"/>
</svg>
