<svg width="63" height="55" viewBox="0 0 63 55" fill="none" xmlns="http://www.w3.org/2000/svg">
<path d="M57.8426 22.1849L57.8381 22.181L33.0904 0.575927C32.8816 0.393356 32.6336 0.248515 32.3607 0.149691C32.0877 0.0508673 31.7951 0 31.4996 0C31.2041 0 30.9115 0.0508673 30.6385 0.149691C30.3656 0.248515 30.1176 0.393356 29.9089 0.575927L5.16115 22.181L5.15665 22.1849L0.658909 26.1115C0.237017 26.4798 0 26.9793 0 27.5002C0 28.0211 0.237017 28.5206 0.658909 28.8889C1.0808 29.2573 1.65301 29.4642 2.24966 29.4642C2.8463 29.4642 3.41851 29.2573 3.8404 28.8889L4.49965 28.3134V53.0357C4.49965 53.5567 4.7367 54.0563 5.15866 54.4247C5.58062 54.7931 6.15291 55 6.74965 55H56.2496C56.8463 55 57.4186 54.7931 57.8405 54.4247C58.2625 54.0563 58.4996 53.5567 58.4996 53.0357V28.3134L59.1588 28.8889C59.3673 29.072 59.6151 29.2172 59.8881 29.3164C60.1611 29.4155 60.4539 29.4665 60.7495 29.4665C61.0452 29.4665 61.338 29.4155 61.611 29.3164C61.884 29.2172 62.1318 29.072 62.3403 28.8889C62.5494 28.7067 62.7153 28.4902 62.8285 28.2519C62.9417 28.0136 63 27.7582 63 27.5002C63 27.2422 62.9417 26.9868 62.8285 26.7485C62.7153 26.5102 62.5494 26.2937 62.3403 26.1115L57.8426 22.1849ZM24.7496 51.0715V35.3573H38.2496V51.0715H24.7496ZM53.9996 51.0715H42.7496V33.393C42.7496 32.8721 42.5125 32.3724 42.0906 32.0041C41.6686 31.6357 41.0963 31.4287 40.4996 31.4287H22.4996C21.9029 31.4287 21.3306 31.6357 20.9086 32.0041C20.4867 32.3724 20.2496 32.8721 20.2496 33.393V51.0715H8.99964V24.3849L31.4996 4.74215L53.9996 24.3849V51.0715Z" fill="white"/>
</svg>
