<svg width="74" height="76" viewBox="0 0 74 76" fill="none" xmlns="http://www.w3.org/2000/svg">
<path d="M11.5156 39.0303C11.5156 39.3939 11.6368 39.6363 11.8793 39.8788C12.1217 40.1212 12.4853 40.2424 13.0914 40.4848V37.5757C12.6065 37.5757 12.2429 37.8182 11.8793 38.0606C11.6368 38.303 11.5156 38.6667 11.5156 39.0303ZM14.0611 42.9091V45.9394C14.5459 45.9394 15.0308 45.697 15.2732 45.4545C15.6368 45.2121 15.758 44.8485 15.758 44.4848C15.758 44.1212 15.6368 43.7576 15.3944 43.5151C15.2732 43.2727 14.7884 43.0303 14.0611 42.9091Z" fill="#D8B94B"/>
<path d="M13.4545 28.4848C6.06061 28.4848 0 34.5454 0 41.9394C0 49.3333 6.06061 55.3939 13.4545 55.3939C20.8485 55.3939 26.9091 49.3333 26.9091 41.9394C26.7879 34.5454 20.8485 28.4848 13.4545 28.4848ZM16.8485 46.6667C16.1212 47.2727 15.2727 47.6364 14.1818 47.6364V48.8485H13.0909V47.6364C11.5152 47.5151 10.1818 46.9091 8.9697 45.8182L10.1818 44.3636C11.1515 45.2121 12.1212 45.697 13.0909 45.8182V42.5454C11.8788 42.303 10.9091 41.8182 10.303 41.3333C9.69697 40.8485 9.45455 40.1212 9.45455 39.1515C9.45455 38.1818 9.81818 37.4545 10.4242 36.8485C11.1515 36.2424 12 35.8788 13.0909 35.8788V35.0303H14.1818V35.8788C15.3939 36 16.6061 36.3636 17.5758 37.0909L16.4848 38.6667C15.7576 38.1818 14.9091 37.8182 14.0606 37.697V40.8485C15.2727 41.0909 16.2424 41.5758 16.8485 42.0606C17.4545 42.5454 17.697 43.2727 17.697 44.2424C17.8182 45.2121 17.5758 46.0606 16.8485 46.6667ZM72.6061 17.697H46.7879C46.1818 17.697 45.697 18.1818 45.697 18.7879V47.2727C45.697 47.8788 46.1818 48.3636 46.7879 48.3636H72.6061C73.2121 48.3636 73.697 47.8788 73.697 47.2727V18.7879C73.697 18.1818 73.2121 17.697 72.6061 17.697ZM53.8182 44H52.7273C52.1212 44 51.6364 43.5151 51.6364 42.9091C51.6364 42.303 52.1212 41.8182 52.7273 41.8182H53.8182C54.4242 41.8182 54.9091 42.303 54.9091 42.9091C54.9091 43.5151 54.4242 44 53.8182 44ZM53.8182 38.6667H52.7273C52.1212 38.6667 51.6364 38.1818 51.6364 37.5758C51.6364 36.9697 52.1212 36.4848 52.7273 36.4848H53.8182C54.4242 36.4848 54.9091 36.9697 54.9091 37.5758C54.9091 38.1818 54.4242 38.6667 53.8182 38.6667ZM53.8182 33.3333H52.7273C52.1212 33.3333 51.6364 32.8485 51.6364 32.2424C51.6364 31.6364 52.1212 31.1515 52.7273 31.1515H53.8182C54.4242 31.1515 54.9091 31.6364 54.9091 32.2424C54.9091 32.8485 54.4242 33.3333 53.8182 33.3333ZM60.2424 44H59.1515C58.5455 44 58.0606 43.5151 58.0606 42.9091C58.0606 42.303 58.5455 41.8182 59.1515 41.8182H60.2424C60.8485 41.8182 61.3333 42.303 61.3333 42.9091C61.3333 43.5151 60.8485 44 60.2424 44ZM60.2424 38.6667H59.1515C58.5455 38.6667 58.0606 38.1818 58.0606 37.5758C58.0606 36.9697 58.5455 36.4848 59.1515 36.4848H60.2424C60.8485 36.4848 61.3333 36.9697 61.3333 37.5758C61.3333 38.1818 60.8485 38.6667 60.2424 38.6667ZM60.2424 33.3333H59.1515C58.5455 33.3333 58.0606 32.8485 58.0606 32.2424C58.0606 31.6364 58.5455 31.1515 59.1515 31.1515H60.2424C60.8485 31.1515 61.3333 31.6364 61.3333 32.2424C61.3333 32.8485 60.8485 33.3333 60.2424 33.3333ZM66.6667 44H65.5758C64.9697 44 64.4848 43.5151 64.4848 42.9091C64.4848 42.303 64.9697 41.8182 65.5758 41.8182H66.6667C67.2727 41.8182 67.7576 42.303 67.7576 42.9091C67.7576 43.5151 67.2727 44 66.6667 44ZM66.6667 38.6667H65.5758C64.9697 38.6667 64.4848 38.1818 64.4848 37.5758C64.4848 36.9697 64.9697 36.4848 65.5758 36.4848H66.6667C67.2727 36.4848 67.7576 36.9697 67.7576 37.5758C67.7576 38.1818 67.2727 38.6667 66.6667 38.6667ZM66.6667 33.3333H65.5758C64.9697 33.3333 64.4848 32.8485 64.4848 32.2424C64.4848 31.6364 64.9697 31.1515 65.5758 31.1515H66.6667C67.2727 31.1515 67.7576 31.6364 67.7576 32.2424C67.7576 32.8485 67.2727 33.3333 66.6667 33.3333ZM69.3333 27.8788C69.3333 28.4848 68.8485 28.9697 68.2424 28.9697H51.1515C50.5455 28.9697 50.0606 28.4848 50.0606 27.8788V23.0303C50.0606 22.4242 50.5455 21.9394 51.1515 21.9394H68.3636C68.9697 21.9394 69.4546 22.4242 69.4546 23.0303V27.8788H69.3333Z" fill="#D8B94B"/>
<path d="M52.2434 24.1212H67.2737V26.7879H52.2434V24.1212ZM49.5767 70.1818H7.03125V72.3636C7.03125 74.1818 8.4858 75.8788 10.5464 75.8788H50.6676C49.9403 74.9091 49.5767 73.697 49.5767 72.3636V70.1818Z" fill="#D8B94B"/>
<path d="M13.5742 3.75758V26.1818C22.1803 26.303 29.2106 33.3333 29.2106 42.0606C29.2106 50.7879 22.1803 57.8182 13.5742 57.9394V67.8788H50.7863C51.5136 67.8788 51.9985 68.4848 51.9985 69.0909V72.4848C51.9985 74.4242 53.5742 76 55.5136 76C57.453 76 59.0288 74.4242 59.0288 72.4848V50.7879H46.7863C44.8469 50.7879 43.2712 49.2121 43.2712 47.2727V18.7879C43.2712 16.8485 44.8469 15.2727 46.7863 15.2727H59.0288V3.51515C59.0288 2.18182 59.5136 1.09091 60.1197 0.121212H17.3318C15.2712 -1.17403e-07 13.5742 1.69697 13.5742 3.75758ZM53.0894 60.3636C53.8166 60.3636 54.3015 60.8485 54.3015 61.5758C54.3015 62.303 53.8166 62.7879 53.0894 62.7879H27.0288C26.3015 62.7879 25.8166 62.303 25.8166 61.5758C25.8166 60.8485 26.3015 60.3636 27.0288 60.3636H53.0894ZM34.7863 39.6364H39.5136C40.2409 39.6364 40.7257 40.1212 40.7257 40.8485C40.7257 41.5758 40.2409 42.0606 39.5136 42.0606H34.7863C34.0591 42.0606 33.5742 41.5758 33.5742 40.8485C33.5742 40.1212 34.1803 39.6364 34.7863 39.6364ZM33.5742 30.4242C33.5742 29.697 34.0591 29.2121 34.7863 29.2121H39.5136C40.2409 29.2121 40.7257 29.697 40.7257 30.4242C40.7257 31.1515 40.2409 31.6364 39.5136 31.6364H34.7863C34.1803 31.6364 33.5742 31.0303 33.5742 30.4242ZM39.5136 49.9394C40.2409 49.9394 40.7257 50.4242 40.7257 51.1515C40.7257 51.8788 40.2409 52.3636 39.5136 52.3636H32.3621C31.6348 52.3636 31.15 51.8788 31.15 51.1515C31.15 50.4242 31.6348 49.9394 32.3621 49.9394H39.5136ZM24.1197 8.36364H50.5439C51.2712 8.36364 51.756 8.84849 51.756 9.57576C51.756 10.303 51.2712 10.7879 50.5439 10.7879H24.1197C23.3924 10.7879 22.9076 10.303 22.9076 9.57576C22.9076 8.84849 23.3924 8.36364 24.1197 8.36364ZM23.6348 18.7879H39.5136C40.2409 18.7879 40.7257 19.2727 40.7257 20C40.7257 20.7273 40.2409 21.2121 39.5136 21.2121H23.6348C22.9076 21.2121 22.4227 20.7273 22.4227 20C22.4227 19.2727 22.9076 18.7879 23.6348 18.7879ZM64.9682 0C63.0288 0 61.453 1.57576 61.453 3.51515V8.12121H68.3621V3.51515C68.4833 1.57576 66.9076 0 64.9682 0Z" fill="#D8B94B"/>
</svg>
