<svg width="79" height="79" viewBox="0 0 79 79" fill="none" xmlns="http://www.w3.org/2000/svg">
<path d="M13.6667 6.83333C13.6667 8.18484 13.2659 9.50599 12.515 10.6297C11.7642 11.7535 10.697 12.6293 9.44834 13.1465C8.19971 13.6637 6.82576 13.799 5.50022 13.5354C4.17468 13.2717 2.9571 12.6209 2.00144 11.6652C1.04578 10.7096 0.394969 9.49199 0.131304 8.16645C-0.132362 6.84091 0.00296075 5.46696 0.52016 4.21833C1.03736 2.9697 1.9132 1.90248 3.03694 1.15162C4.16068 0.400768 5.48183 0 6.83334 0C8.64565 0 10.3837 0.719939 11.6652 2.00144C12.9467 3.28294 13.6667 5.02102 13.6667 6.83333ZM22.2083 8.54167H76.875C77.3281 8.54167 77.7626 8.36168 78.083 8.04131C78.4033 7.72093 78.5833 7.28641 78.5833 6.83333C78.5833 6.38026 78.4033 5.94573 78.083 5.62536C77.7626 5.30499 77.3281 5.125 76.875 5.125H22.2083C21.7553 5.125 21.3207 5.30499 21.0004 5.62536C20.68 5.94573 20.5 6.38026 20.5 6.83333C20.5 7.28641 20.68 7.72093 21.0004 8.04131C21.3207 8.36168 21.7553 8.54167 22.2083 8.54167ZM6.83334 22.2083C5.48183 22.2083 4.16068 22.6091 3.03694 23.36C1.9132 24.1108 1.03736 25.178 0.52016 26.4267C0.00296075 27.6753 -0.132362 29.0492 0.131304 30.3748C0.394969 31.7003 1.04578 32.9179 2.00144 33.8736C2.9571 34.8292 4.17468 35.48 5.50022 35.7437C6.82576 36.0074 8.19971 35.872 9.44834 35.3548C10.697 34.8376 11.7642 33.9618 12.515 32.8381C13.2659 31.7143 13.6667 30.3932 13.6667 29.0417C13.6667 27.2294 12.9467 25.4913 11.6652 24.2098C10.3837 22.9283 8.64565 22.2083 6.83334 22.2083ZM76.875 27.3333H22.2083C21.7553 27.3333 21.3207 27.5133 21.0004 27.8337C20.68 28.1541 20.5 28.5886 20.5 29.0417C20.5 29.4947 20.68 29.9293 21.0004 30.2496C21.3207 30.57 21.7553 30.75 22.2083 30.75H76.875C77.3281 30.75 77.7626 30.57 78.083 30.2496C78.4033 29.9293 78.5833 29.4947 78.5833 29.0417C78.5833 28.5886 78.4033 28.1541 78.083 27.8337C77.7626 27.5133 77.3281 27.3333 76.875 27.3333ZM6.83334 42.7083C5.48183 42.7083 4.16068 43.1091 3.03694 43.86C1.9132 44.6108 1.03736 45.678 0.52016 46.9267C0.00296075 48.1753 -0.132362 49.5492 0.131304 50.8748C0.394969 52.2003 1.04578 53.4179 2.00144 54.3736C2.9571 55.3292 4.17468 55.98 5.50022 56.2437C6.82576 56.5074 8.19971 56.372 9.44834 55.8548C10.697 55.3376 11.7642 54.4618 12.515 53.3381C13.2659 52.2143 13.6667 50.8932 13.6667 49.5417C13.6667 47.7294 12.9467 45.9913 11.6652 44.7098C10.3837 43.4283 8.64565 42.7083 6.83334 42.7083ZM76.875 47.8333H22.2083C21.7553 47.8333 21.3207 48.0133 21.0004 48.3337C20.68 48.6541 20.5 49.0886 20.5 49.5417C20.5 49.9947 20.68 50.4293 21.0004 50.7496C21.3207 51.07 21.7553 51.25 22.2083 51.25H76.875C77.3281 51.25 77.7626 51.07 78.083 50.7496C78.4033 50.4293 78.5833 49.9947 78.5833 49.5417C78.5833 49.0886 78.4033 48.6541 78.083 48.3337C77.7626 48.0133 77.3281 47.8333 76.875 47.8333ZM6.83334 64.9167C5.48183 64.9167 4.16068 65.3174 3.03694 66.0683C1.9132 66.8192 1.03736 67.8864 0.52016 69.135C0.00296075 70.3836 -0.132362 71.7576 0.131304 73.0831C0.394969 74.4087 1.04578 75.6262 2.00144 76.5819C2.9571 77.5376 4.17468 78.1884 5.50022 78.452C6.82576 78.7157 8.19971 78.5804 9.44834 78.0632C10.697 77.546 11.7642 76.6701 12.515 75.5464C13.2659 74.4227 13.6667 73.1015 13.6667 71.75C13.6667 69.9377 12.9467 68.1996 11.6652 66.9181C10.3837 65.6366 8.64565 64.9167 6.83334 64.9167ZM76.875 70.0417H22.2083C21.7553 70.0417 21.3207 70.2216 21.0004 70.542C20.68 70.8624 20.5 71.2969 20.5 71.75C20.5 72.2031 20.68 72.6376 21.0004 72.958C21.3207 73.2784 21.7553 73.4583 22.2083 73.4583H76.875C77.3281 73.4583 77.7626 73.2784 78.083 72.958C78.4033 72.6376 78.5833 72.2031 78.5833 71.75C78.5833 71.2969 78.4033 70.8624 78.083 70.542C77.7626 70.2216 77.3281 70.0417 76.875 70.0417Z" fill="#D8B94B"/>
</svg>
