<svg width="82" height="82" viewBox="0 0 82 82" fill="none" xmlns="http://www.w3.org/2000/svg">
<path d="M15.3757 8.54165C15.3757 9.89315 14.9749 11.2143 14.224 12.338C13.4732 13.4618 12.406 14.3376 11.1573 14.8548C9.9087 15.372 8.53474 15.5073 7.2092 15.2437C5.88367 14.98 4.66608 14.3292 3.71042 13.3735C2.75477 12.4179 2.10395 11.2003 1.84029 9.87476C1.57662 8.54923 1.71195 7.17527 2.22914 5.92664C2.74634 4.67801 3.62219 3.61079 4.74592 2.85994C5.86966 2.10908 7.19081 1.70831 8.54232 1.70831C10.3546 1.70831 12.0927 2.42825 13.3742 3.70975C14.6557 4.99125 15.3757 6.72933 15.3757 8.54165ZM23.9173 10.25H78.584C79.0371 10.25 79.4716 10.07 79.792 9.74962C80.1123 9.42925 80.2923 8.99472 80.2923 8.54165C80.2923 8.08857 80.1123 7.65405 79.792 7.33367C79.4716 7.0133 79.0371 6.83331 78.584 6.83331H23.9173C23.4642 6.83331 23.0297 7.0133 22.7093 7.33367C22.389 7.65405 22.209 8.08857 22.209 8.54165C22.209 8.99472 22.389 9.42925 22.7093 9.74962C23.0297 10.07 23.4642 10.25 23.9173 10.25ZM8.54232 23.9166C7.19081 23.9166 5.86966 24.3174 4.74592 25.0683C3.62219 25.8191 2.74634 26.8863 2.22914 28.135C1.71195 29.3836 1.57662 30.7576 1.84029 32.0831C2.10395 33.4086 2.75477 34.6262 3.71042 35.5819C4.66608 36.5375 5.88367 37.1883 7.2092 37.452C8.53474 37.7157 9.9087 37.5804 11.1573 37.0632C12.406 36.546 13.4732 35.6701 14.224 34.5464C14.9749 33.4226 15.3757 32.1015 15.3757 30.75C15.3757 28.9377 14.6557 27.1996 13.3742 25.9181C12.0927 24.6366 10.3546 23.9166 8.54232 23.9166ZM78.584 29.0416H23.9173C23.4642 29.0416 23.0297 29.2216 22.7093 29.542C22.389 29.8624 22.209 30.2969 22.209 30.75C22.209 31.2031 22.389 31.6376 22.7093 31.958C23.0297 32.2783 23.4642 32.4583 23.9173 32.4583H78.584C79.0371 32.4583 79.4716 32.2783 79.792 31.958C80.1123 31.6376 80.2923 31.2031 80.2923 30.75C80.2923 30.2969 80.1123 29.8624 79.792 29.542C79.4716 29.2216 79.0371 29.0416 78.584 29.0416ZM8.54232 44.4166C7.19081 44.4166 5.86966 44.8174 4.74592 45.5683C3.62219 46.3191 2.74634 47.3863 2.22914 48.635C1.71195 49.8836 1.57662 51.2576 1.84029 52.5831C2.10395 53.9086 2.75477 55.1262 3.71042 56.0819C4.66608 57.0375 5.88367 57.6883 7.2092 57.952C8.53474 58.2157 9.9087 58.0804 11.1573 57.5632C12.406 57.046 13.4732 56.1701 14.224 55.0464C14.9749 53.9226 15.3757 52.6015 15.3757 51.25C15.3757 49.4377 14.6557 47.6996 13.3742 46.4181C12.0927 45.1366 10.3546 44.4166 8.54232 44.4166ZM78.584 49.5416H23.9173C23.4642 49.5416 23.0297 49.7216 22.7093 50.042C22.389 50.3624 22.209 50.7969 22.209 51.25C22.209 51.7031 22.389 52.1376 22.7093 52.458C23.0297 52.7783 23.4642 52.9583 23.9173 52.9583H78.584C79.0371 52.9583 79.4716 52.7783 79.792 52.458C80.1123 52.1376 80.2923 51.7031 80.2923 51.25C80.2923 50.7969 80.1123 50.3624 79.792 50.042C79.4716 49.7216 79.0371 49.5416 78.584 49.5416ZM8.54232 66.625C7.19081 66.625 5.86966 67.0257 4.74592 67.7766C3.62219 68.5275 2.74634 69.5947 2.22914 70.8433C1.71195 72.0919 1.57662 73.4659 1.84029 74.7914C2.10395 76.117 2.75477 77.3345 3.71042 78.2902C4.66608 79.2459 5.88367 79.8967 7.2092 80.1603C8.53474 80.424 9.9087 80.2887 11.1573 79.7715C12.406 79.2543 13.4732 78.3784 14.224 77.2547C14.9749 76.131 15.3757 74.8098 15.3757 73.4583C15.3757 71.646 14.6557 69.9079 13.3742 68.6264C12.0927 67.3449 10.3546 66.625 8.54232 66.625ZM78.584 71.75H23.9173C23.4642 71.75 23.0297 71.93 22.7093 72.2503C22.389 72.5707 22.209 73.0052 22.209 73.4583C22.209 73.9114 22.389 74.3459 22.7093 74.6663C23.0297 74.9867 23.4642 75.1666 23.9173 75.1666H78.584C79.0371 75.1666 79.4716 74.9867 79.792 74.6663C80.1123 74.3459 80.2923 73.9114 80.2923 73.4583C80.2923 73.0052 80.1123 72.5707 79.792 72.2503C79.4716 71.93 79.0371 71.75 78.584 71.75Z" fill="#7BD0FF"/>
</svg>
