<svg width="117" height="117" viewBox="0 0 117 117" fill="none" xmlns="http://www.w3.org/2000/svg">
<path d="M92.2165 52.5915L82.8175 50.466C82.369 49.1985 81.8425 47.9505 81.2185 46.7415L86.386 38.571C86.6213 38.1967 86.7225 37.7535 86.6729 37.3142C86.6233 36.8748 86.4259 36.4654 86.113 36.153L80.4775 30.5175C80.1654 30.204 79.7559 30.0061 79.3164 29.9565C78.8769 29.9069 78.4335 30.0084 78.0595 30.2445L69.733 35.49C68.5825 34.905 67.4125 34.437 66.223 34.0275L64 24.414C63.7855 23.5365 63.0055 22.9125 62.089 22.9125H54.1525C53.2555 22.9125 52.456 23.5365 52.261 24.414L50.0575 34.0275C48.868 34.437 47.6785 34.9245 46.528 35.49L38.182 30.2445C37.8077 30.0091 37.3645 29.908 36.9252 29.9576C36.4858 30.0072 36.0764 30.2046 35.764 30.5175L30.148 36.153C29.5045 36.7965 29.407 37.8105 29.875 38.571L35.023 46.761C34.4185 47.97 33.892 49.1985 33.463 50.466L24.064 52.5915C23.167 52.806 22.543 53.586 22.543 54.5025V62.478C22.543 63.3945 23.167 64.1745 24.064 64.389L33.2095 66.456C33.6385 67.8795 34.204 69.2445 34.8475 70.5315L29.875 78.429C29.407 79.1895 29.5045 80.2035 30.148 80.847L35.764 86.463C36.4075 87.1065 37.4215 87.204 38.182 86.736L45.9235 81.861C47.308 82.5825 48.751 83.187 50.233 83.6745L52.261 92.586C52.456 93.4635 53.2555 94.107 54.1525 94.107H62.089C63.0055 94.107 63.7855 93.4635 64 92.586L66.028 83.655C67.5295 83.187 68.953 82.5825 70.318 81.861L78.0595 86.736C78.8395 87.2235 79.834 87.1065 80.4775 86.463L86.113 80.847C86.4259 80.5346 86.6233 80.1252 86.6729 79.6858C86.7225 79.2465 86.6213 78.8033 86.386 78.429L81.4135 70.551C82.0765 69.264 82.6225 67.899 83.071 66.456L92.2165 64.389C93.1135 64.1745 93.7375 63.3945 93.7375 62.478V54.5025C93.7375 53.586 93.1135 52.806 92.2165 52.5915ZM58.15 72.033C50.6815 72.033 44.617 65.949 44.617 58.4805C44.617 51.0315 50.6815 44.967 58.15 44.967C65.599 44.967 71.6635 51.0315 71.6635 58.4805C71.6635 65.949 65.599 72.033 58.15 72.033Z" fill="#7BD0FF"/>
<path d="M105.299 92.157C105.299 92.43 105.241 92.703 105.124 92.937C105.085 93.0735 105.007 93.1905 104.929 93.288C104.851 93.405 104.753 93.5025 104.656 93.6L104.441 93.7755L99.0008 98.709C98.6149 99.0568 98.107 99.2376 97.5881 99.2121C97.0692 99.1865 96.5816 98.9566 96.2318 98.5725C96.0613 98.3818 95.9302 98.1594 95.8457 97.9179C95.7613 97.6765 95.7253 97.4208 95.7398 97.1654C95.7543 96.91 95.819 96.6601 95.9302 96.4297C96.0414 96.1994 96.1969 95.9932 96.3878 95.823L98.2793 94.107H67.5668C67.6838 93.8925 67.7423 93.678 67.8008 93.444L68.5418 90.207H98.2988L96.3878 88.4715C95.5883 87.75 95.5103 86.5215 96.2318 85.722C96.5821 85.3389 97.0696 85.1096 97.5882 85.084C98.1067 85.0585 98.6144 85.2387 99.0008 85.5855L104.656 90.6945C105.065 91.065 105.299 91.5915 105.299 92.157ZM48.6323 22.9125C48.5738 23.1075 48.4958 23.322 48.4568 23.5365L47.7158 26.8125H18.7193L20.6303 28.5285C21.4298 29.25 21.4883 30.4785 20.7668 31.278C20.5955 31.468 20.3884 31.6223 20.1574 31.7321C19.9263 31.8418 19.6759 31.9048 19.4204 31.9175C19.1649 31.9302 18.9094 31.8923 18.6687 31.806C18.4279 31.7196 18.2065 31.5866 18.0173 31.4145L12.5573 26.481L12.3428 26.3055C12.2453 26.208 12.1478 26.1105 12.0698 25.9935C11.9822 25.8905 11.916 25.7712 11.8748 25.6425C11.7572 25.3994 11.6971 25.1325 11.6993 24.8625C11.6993 24.297 11.9333 23.7705 12.3428 23.4L18.0173 18.291C18.2066 18.1191 18.428 17.9863 18.6688 17.9001C18.9095 17.814 19.1649 17.7761 19.4203 17.7888C19.6757 17.8015 19.9261 17.8644 20.1572 17.974C20.3882 18.0836 20.5954 18.2377 20.7668 18.4275C21.4883 19.227 21.4298 20.4555 20.6303 21.177L18.7193 22.9125H48.6323Z" fill="#7BD0FF"/>
</svg>
