<svg width="75" height="75" viewBox="0 0 75 75" fill="none" xmlns="http://www.w3.org/2000/svg">
<g clip-path="url(#clip0_86_1089)">
<path d="M36.875 13.75H37.1875C39.6875 12.8125 42.5 12.5 45.3125 12.5C47.8125 12.5 50.3125 12.8125 52.8125 13.4375C53.4375 13.4375 54.375 13.125 54.6875 12.5C55.9375 10.3125 56.875 7.81249 57.1875 4.99999C57.5 2.49999 55.3125 -1.02669e-05 52.8125 -1.02669e-05H52.1875C50.625 -0.31251 49.0625 0.62499 48.4375 1.87499C47.5 0.62499 45.9375 -1.02669e-05 44.0625 -1.02669e-05C41.5625 0.31249 39.375 2.18749 38.4375 4.68749C35.3125 4.68749 33.4375 6.24999 33.4375 8.43749C33.75 9.99999 34.375 11.5625 35.3125 13.125C35.625 13.4375 36.25 13.75 36.875 13.75ZM28.125 42.5C30.625 42.8125 33.125 43.75 35.625 45C37.5 45.9375 39.375 46.875 41.5625 47.1875C45 47.8125 51.5625 49.0625 54.375 52.8125C54.6875 53.125 55 53.4375 55.625 53.4375H55.9375C59.0625 52.5 62.5 51.875 65.9375 51.875H66.5625C67.5 51.875 68.125 51.25 68.125 50.3125C68.125 50 68.125 49.6875 67.8125 49.375C66.875 45.9375 65.3125 42.8125 63.4375 40C63.4375 25.3125 60.3125 15.625 45 15.625C29.6875 15.625 26.875 25.3125 26.875 40C26.5625 40.625 26.5625 41.5625 27.5 42.1875C27.8125 42.1875 28.125 42.1875 28.125 42.5ZM45.3125 36.25C42.8125 36.5625 40.3125 34.6875 40 32.1875C39.6875 29.6875 41.25 27.5 43.75 26.875V26.5625C43.75 25.625 44.375 25 45.3125 25C46.25 25 46.875 25.625 46.875 26.5625H48.4375C49.375 26.5625 50 27.1875 50 28.125C50 29.0625 49.375 29.6875 48.4375 29.6875H45.3125C44.375 29.6875 43.75 30.3125 43.75 31.25C43.75 32.1875 44.375 32.8125 45.3125 32.8125C47.8125 32.8125 50 35 50 37.5C50 39.375 48.75 41.25 46.875 41.875V42.1875C46.875 43.125 46.25 43.75 45.3125 43.75C44.375 43.75 43.75 43.125 43.75 42.1875H42.1875C41.25 42.1875 40.625 41.5625 40.625 40.625C40.625 39.6875 41.25 39.0625 42.1875 39.0625H45.3125C46.25 39.0625 46.875 38.4375 46.875 37.5C46.875 36.5625 46.25 35.9375 45.3125 36.25ZM14.6875 43.125L1.875 40.625C0.9375 40.3125 0.3125 40.9375 0 41.875V67.1875C0 68.125 0.625 68.75 1.5625 68.75H11.25C13.4375 68.75 15.625 66.875 15.9375 64.6875L18.125 48.4375C18.75 45.9375 16.875 43.75 14.6875 43.125Z" fill="#7BD0FF"/>
<path d="M65.6241 54.6875C62.8116 55 59.9991 55.3125 57.4991 56.25C56.5616 56.25 56.2491 56.875 56.2491 57.8125C56.2491 60 55.3116 62.1875 53.4366 63.75C51.2491 65.3125 48.7491 65.9375 45.9366 65.9375C39.9991 65.625 34.0616 64.375 28.4366 62.5C27.4991 62.1875 27.1866 61.5625 27.1866 60.625C27.4991 59.6875 28.1241 59.375 29.0616 59.375C34.3741 61.25 39.9991 62.1875 45.6241 62.5C47.4991 62.8125 49.3741 62.1875 51.2491 61.25C52.1866 60.625 52.8116 59.375 52.8116 57.8125V57.1875C52.1866 52.8125 46.5616 51.25 40.6241 50C38.4366 49.375 35.9366 48.75 34.0616 47.5C31.5616 46.25 29.0616 45.3125 26.2491 45.3125C24.9991 45.3125 23.7491 45.3125 22.4991 45.625C21.5616 45.625 21.2491 46.5625 21.2491 47.1875V48.75L19.0616 65V65.625C18.7491 66.25 19.3741 67.1875 19.9991 67.5C27.1866 70.9375 37.1866 74.6875 42.1866 74.6875C48.1241 74.6875 60.6241 68.4375 69.0616 64.375C71.2491 63.4375 73.1241 62.5 74.0616 61.875C74.6866 61.5625 74.9991 61.25 74.9991 60.625C74.9991 57.1875 71.2491 54.6875 65.6241 54.6875Z" fill="#7BD0FF"/>
</g>
<defs>
<clipPath id="clip0_86_1089">
<rect width="75" height="75" fill="white"/>
</clipPath>
</defs>
</svg>
