<svg width="81" height="81" viewBox="0 0 81 81" fill="none" xmlns="http://www.w3.org/2000/svg">
<path d="M38.5879 16.3125C42.9371 16.3125 46.4629 12.7867 46.4629 8.4375C46.4629 4.08826 42.9371 0.5625 38.5879 0.5625C34.2386 0.5625 30.7129 4.08826 30.7129 8.4375C30.7129 12.7867 34.2386 16.3125 38.5879 16.3125Z" fill="#7BD0FF"/>
<path d="M43.537 16.2C43.087 16.0875 42.637 16.2 42.412 16.5375L39.262 19.6875C38.9245 20.025 38.362 20.025 37.912 19.6875L34.8745 16.5375C34.537 16.2 34.087 16.0875 33.7495 16.2C22.9495 18.9 21.1495 36.675 21.037 38.7C20.9245 40.275 22.0495 41.7375 23.737 41.85H23.962C25.4245 41.85 26.7745 40.725 26.887 39.15C26.9995 37.2375 27.6745 33.525 28.7995 30.0375C28.912 29.8125 29.2495 29.8125 29.2495 30.15V32.0625L28.462 41.2875C28.3495 42.975 28.5745 44.6625 29.2495 46.125L30.037 76.95C30.037 78.8625 31.7245 80.4375 33.637 80.4375C35.5495 80.4375 37.1245 78.8625 37.237 76.95L37.7995 52.3125H39.8245L40.387 76.95C40.387 78.8625 42.0745 80.4375 43.987 80.4375C45.8995 80.4375 47.4745 78.8625 47.587 76.95L48.3745 46.125C48.937 44.775 49.2745 43.2 49.162 41.5125L48.3745 32.85V30.15C48.3745 29.925 48.712 29.8125 48.8245 30.0375C50.062 33.525 50.6245 37.125 50.737 39.15C50.8495 40.6125 52.087 41.85 53.662 41.85H53.887C55.462 41.7375 56.6995 40.3875 56.587 38.7C56.137 36.5625 54.4495 18.9 43.537 16.2Z" fill="#7BD0FF"/>
<path d="M58.8367 80.4375C58.1617 80.4375 57.5992 79.875 57.5992 79.2V43.425C57.5992 41.9625 56.4742 40.8375 55.0117 40.8375C53.5492 40.8375 52.4242 41.9625 52.4242 43.425C52.4242 44.1 51.8617 44.6625 51.1867 44.6625C50.5117 44.6625 49.9492 44.1 49.9492 43.425C49.9492 40.725 52.1992 38.475 54.8992 38.475C57.5992 38.475 59.8492 40.725 59.8492 43.425V79.2C60.0742 79.875 59.5117 80.4375 58.8367 80.4375Z" fill="#7BD0FF"/>
</svg>
