<svg width="76" height="76" viewBox="0 0 76 76" fill="none" xmlns="http://www.w3.org/2000/svg">
<path d="M41.8 1.1875H6.175C3.44375 1.1875 1.1875 3.44375 1.1875 6.175V41.8C1.1875 44.5312 3.44375 46.7875 6.175 46.7875H23.75V34.2C23.75 32.0625 24.8187 30.0437 26.4812 28.8562L23.9875 26.3625L12.2312 38C11.875 38.3563 11.4 38.475 11.0437 38.475C10.6875 38.475 10.2125 38.3563 9.85625 38C9.14375 37.2875 9.14375 36.2188 9.85625 35.5062L21.4937 23.8687L9.85625 12.2312C9.14375 11.5188 9.14375 10.45 9.85625 9.7375C10.5688 9.025 11.6375 9.025 12.35 9.7375L23.9875 21.375L35.625 9.85625C36.3375 9.14375 37.4062 9.14375 38.1187 9.85625C38.8312 10.5688 38.8312 11.6375 38.1187 12.35L26.4812 23.9875L30.1625 27.6687C30.2812 27.6687 30.4 27.6687 30.5188 27.6687H46.7875V6.175C46.6688 3.44375 44.5312 1.1875 41.8 1.1875Z" fill="#7BD0FF"/>
<path d="M70.7746 36.9313C70.7746 36.9313 70.8934 36.8125 71.0121 36.8125V34.3188C71.0121 31.5875 68.7559 29.3313 66.0246 29.3313H30.3996C27.6684 29.3313 25.4121 31.5875 25.4121 34.3188V69.9438C25.4121 72.675 27.6684 74.9313 30.3996 74.9313H66.0246C68.7559 74.9313 71.0121 72.675 71.0121 69.9438V45.9563L67.5684 48.925V69.9438C67.5684 70.775 66.8559 71.3688 66.1434 71.3688H30.5184C29.6871 71.3688 29.0934 70.6563 29.0934 69.9438V34.3188C29.0934 33.4875 29.8059 32.8938 30.5184 32.8938H66.1434C66.9746 32.8938 67.5684 33.6063 67.5684 34.3188V39.7813L70.7746 36.9313Z" fill="#7BD0FF"/>
<path d="M44.2928 66.2625C44.1741 66.2625 44.0553 66.2625 43.9366 66.2625C43.4616 66.1437 42.9866 65.9062 42.7491 65.4312L34.1991 49.6375C33.7241 48.8062 34.0803 47.7375 34.9116 47.2625C35.7428 46.7875 36.8116 47.1437 37.2866 47.975L44.8866 61.8687L72.0803 38.2375C72.7928 37.6437 73.8616 37.6437 74.5741 38.3562C75.1678 39.0687 75.1678 40.1375 74.4553 40.85L45.3616 65.9062C45.1241 66.1437 44.6491 66.2625 44.2928 66.2625Z" fill="#7BD0FF"/>
</svg>
