<svg width="87" height="96" viewBox="0 0 87 96" fill="none" xmlns="http://www.w3.org/2000/svg">
<path d="M26.1254 61.8789C22.0523 60.3513 11.3778 61.4206 11.5183 73.1834C11.6587 80.2105 4.77651 82.8075 1.26517 83.5713C0.281999 83.8768 -0.279815 85.0989 0.141546 86.0155C5.61923 97.0145 15.0296 95.9451 20.9287 93.8064C24.5805 92.5843 27.8109 89.9874 30.1986 86.7793C40.0303 73.7945 31.0413 63.7121 26.1254 61.8789ZM34.4122 63.7121L65.7333 16.8138C66.0142 16.3555 66.2952 15.8972 66.5761 15.4389C68.8233 10.3977 66.9974 4.28721 62.3625 1.69024C57.7275 -0.906736 52.1093 1.07919 49.7216 6.27313L25.985 57.6016C26.4064 57.7543 26.9682 57.7543 27.3895 58.0599C29.6368 58.8237 32.3054 60.8096 34.4122 63.7121ZM86.8014 57.6016C86.8014 56.9905 86.2395 56.685 85.8182 56.685H80.481C79.7787 53.3242 78.6551 50.2689 76.9696 47.5192L80.7619 43.3946C81.1832 42.9363 81.1832 42.3252 80.9023 41.867C79.2169 39.5755 77.391 37.4368 75.1437 35.6037C74.7224 35.2981 74.1606 35.2981 73.7392 35.7564L69.9469 39.881C67.4188 38.0479 64.6097 36.673 61.5197 36.062V30.7152L51.2666 46.1443C52.9521 45.5333 54.778 45.075 56.6039 45.075C65.1715 45.075 72.1942 52.7131 72.1942 62.0317C72.1942 71.3503 65.1715 78.9884 56.6039 78.9884C48.0362 78.9884 41.0135 71.3503 41.0135 62.0317C41.0135 61.8789 41.0135 61.5734 41.0135 61.4206L36.9404 67.3784C37.3617 68.295 37.6426 69.2116 37.9235 70.2809C38.9067 74.1 39.1876 79.7522 35.5358 86.1683C36.2381 86.9321 37.0808 87.6959 37.9235 88.307C38.3449 88.6125 38.9067 88.6125 39.3281 88.1542L43.1203 84.0296C45.6485 85.8628 48.4576 87.0849 51.5475 87.8487V93.6537C51.5475 94.2647 51.9689 94.723 52.3903 94.723C53.6543 94.8758 55.0589 95.0285 56.4634 95.0285C57.8679 95.0285 59.132 94.8758 60.5366 94.723C61.0984 94.723 61.3793 94.112 61.3793 93.6537V87.8487C64.4693 87.0849 67.2783 85.8628 69.8065 84.0296L73.5987 88.1542C74.0201 88.6125 74.5819 88.6125 75.0033 88.307C77.1101 86.4738 79.0764 84.4879 80.7619 82.0437C81.0428 81.5854 81.0428 80.9743 80.6214 80.516L76.8292 76.3914C78.5146 73.6417 79.6382 70.5864 80.3405 67.2256H85.6777C86.2396 67.2256 86.6609 66.7673 86.6609 66.3091C86.8014 64.9342 86.9418 63.4066 86.9418 61.8789C87.0823 60.5041 86.9418 58.9764 86.8014 57.6016Z" fill="#FF7B7B"/>
<path d="M56.6043 73.3362C62.4221 73.3362 67.1383 68.2066 67.1383 61.8789C67.1383 55.5513 62.4221 50.4217 56.6043 50.4217C50.7866 50.4217 46.0703 55.5513 46.0703 61.8789C46.0703 68.2066 50.7866 73.3362 56.6043 73.3362Z" fill="#FF7B7B"/>
</svg>
