<svg width="87" height="87" viewBox="0 0 87 87" fill="none" xmlns="http://www.w3.org/2000/svg">
<path d="M26.1254 56.3784C22.0523 54.974 11.3778 55.9571 11.5183 66.7709C11.6587 73.231 4.77651 75.6185 1.26517 76.3207C0.281999 76.6016 -0.279815 77.7251 0.141546 78.5677C5.61923 88.6793 15.0296 87.6963 20.9287 85.7301C24.5805 84.6066 27.8109 82.2191 30.1986 79.2699C40.0303 67.3326 31.0413 58.0636 26.1254 56.3784ZM34.4122 58.0636L65.7333 14.9489C66.0142 14.5276 66.2952 14.1062 66.5761 13.6849C68.8233 9.05045 66.9974 3.43289 62.3625 1.04543C57.7275 -1.34204 52.1093 0.483671 49.7216 5.25859L25.985 52.4461C26.4064 52.5865 26.9682 52.5865 27.3895 52.8674C29.6368 53.5696 32.3054 55.3953 34.4122 58.0636ZM86.8014 52.4461C86.8014 51.8843 86.2395 51.6034 85.8182 51.6034H80.481C79.7787 48.5138 78.6551 45.705 76.9696 43.1771L80.7619 39.3853C81.1832 38.9639 81.1832 38.4022 80.9023 37.9809C79.2169 35.8743 77.391 33.9081 75.1437 32.2229C74.7224 31.942 74.1606 31.942 73.7392 32.3633L69.9469 36.1552C67.4188 34.4699 64.6097 33.2059 61.5197 32.6442V27.7288L51.2666 41.9132C52.9521 41.3514 54.778 40.9301 56.6039 40.9301C65.1715 40.9301 72.1942 47.952 72.1942 56.5188C72.1942 65.0856 65.1715 72.1075 56.6039 72.1075C48.0362 72.1075 41.0135 65.0856 41.0135 56.5188C41.0135 56.3784 41.0135 56.0975 41.0135 55.9571L36.9404 61.4342C37.3617 62.2768 37.6426 63.1194 37.9235 64.1025C38.9067 67.6135 39.1876 72.8097 35.5358 78.7082C36.2381 79.4104 37.0808 80.1125 37.9235 80.6743C38.3449 80.9552 38.9067 80.9552 39.3281 80.5339L43.1203 76.742C45.6485 78.4273 48.4576 79.5508 51.5475 80.253V85.5897C51.5475 86.1514 51.9689 86.5727 52.3903 86.5727C53.6543 86.7132 55.0589 86.8536 56.4634 86.8536C57.8679 86.8536 59.132 86.7132 60.5366 86.5727C61.0984 86.5727 61.3793 86.011 61.3793 85.5897V80.253C64.4693 79.5508 67.2783 78.4273 69.8065 76.742L73.5987 80.5339C74.0201 80.9552 74.5819 80.9552 75.0033 80.6743C77.1101 78.989 79.0764 77.1633 80.7619 74.9163C81.0428 74.495 81.0428 73.9332 80.6214 73.5119L76.8292 69.7201C78.5146 67.1922 79.6382 64.3834 80.3405 61.2937H85.6777C86.2396 61.2937 86.6609 60.8724 86.6609 60.4511C86.8014 59.1871 86.9418 57.7828 86.9418 56.3784C87.0823 55.1144 86.9418 53.71 86.8014 52.4461Z" fill="#3BB895"/>
<path d="M56.6039 66.9113C62.4216 66.9113 67.1379 62.1956 67.1379 56.3784C67.1379 50.5612 62.4216 45.8455 56.6039 45.8455C50.7861 45.8455 46.0699 50.5612 46.0699 56.3784C46.0699 62.1956 50.7861 66.9113 56.6039 66.9113Z" fill="#3BB895"/>
</svg>
