<svg width="90" height="90" viewBox="0 0 90 90" fill="none" xmlns="http://www.w3.org/2000/svg">
<g clip-path="url(#clip0_86_1092)">
<path d="M81.632 81.0141L81.618 80.9719C81.618 77.625 79.7899 74.1516 78.243 71.8172C76.443 69.1172 74.1508 66.6281 72.2805 65.3203L72.168 65.25H66.993L66.8805 65.3203C63.618 67.5984 57.543 74.9672 57.5289 81.0844C57.5008 81.3516 57.0367 87.7078 65.8539 89.6063C67.0774 89.8734 68.3289 90 69.5805 90C70.8321 90 72.0836 89.8734 73.3071 89.6063C81.7586 87.7781 81.6742 81.8297 81.632 81.1547V81.0141ZM72.4492 81.4781C72.2946 81.8156 72.0977 82.0828 71.8586 82.3078C71.5774 82.5469 71.2539 82.7438 70.9024 82.8703C70.5367 83.0109 70.143 83.0953 69.7352 83.1375L69.3836 83.1656L69.3555 83.5172L69.2571 85.0078L69.1024 85.0359C69.0099 85.0552 68.9156 85.0647 68.8211 85.0641C68.6664 85.0641 68.5539 85.05 68.343 85.0078L68.5399 83.1656L68.1321 83.1094C67.9633 83.0813 67.8086 83.0531 67.6399 83.0109C67.4571 82.9688 67.2883 82.9266 67.1336 82.8563C67.0071 82.8 66.8946 82.7578 66.7539 82.6734C66.6555 82.6313 66.5992 82.5891 66.543 82.4484C66.5289 82.3922 66.5149 82.2516 66.5149 81.9984C66.5149 81.8297 66.5149 81.7031 66.5289 81.6047L66.5711 81.45C66.6133 81.4781 66.6696 81.4922 66.6836 81.5063C66.8242 81.5906 66.993 81.675 67.1758 81.7594C67.3727 81.8719 67.6258 81.9422 67.9774 82.0547C68.2586 82.1391 68.6102 82.1672 69.0461 82.1672C69.7211 82.1672 70.2274 82.0406 70.5649 81.7734C70.9305 81.4922 71.1133 81.1125 71.1133 80.6484C71.1133 80.3109 71.0289 80.0578 70.8602 79.875C70.7196 79.6922 70.5367 79.5375 70.2696 79.3828C70.0305 79.2563 69.7774 79.1297 69.5242 79.0453L68.6945 78.7219C68.4274 78.6375 68.1883 78.5109 67.9211 78.3563C67.6961 78.2438 67.4852 78.0891 67.2883 77.9063C67.1055 77.7094 66.9508 77.4703 66.8383 77.2031C66.7183 76.8892 66.661 76.5548 66.6696 76.2188C66.6696 75.8813 66.7258 75.5578 66.8383 75.2906C66.9649 74.9953 67.1336 74.7563 67.3305 74.5453C67.5414 74.3344 67.8086 74.1656 68.1461 74.0391C68.4414 73.9125 68.7789 73.8281 69.1586 73.7719L69.4961 73.7297L69.5242 73.3922L69.693 71.9719L70.0305 71.9578C70.1711 71.9578 70.2977 71.9719 70.3961 71.9859C70.4524 72 70.5227 72 70.5227 72L70.382 73.3359L70.4805 73.7438C70.4805 73.7438 71.0008 73.8422 71.0289 73.8422C71.0289 73.8422 71.3383 73.9266 71.4508 73.9547C71.5914 74.0109 71.7039 74.0531 71.8164 74.1094C71.9149 74.1516 71.9571 74.1797 71.9992 74.2078C72.0133 74.25 72.0414 74.3063 72.0555 74.3484L72.0696 74.5031V75.1781C72.0696 75.2063 72.0696 75.2344 72.0555 75.2766C71.8608 75.193 71.6685 75.1039 71.4789 75.0094C71.2821 74.9391 71.043 74.8547 70.8039 74.7984C70.5508 74.7141 70.2555 74.6719 69.918 74.6719C69.6508 74.6719 69.3836 74.7 69.1586 74.7563C68.8914 74.8266 68.7086 74.9391 68.568 75.0375C68.4696 75.1219 68.3149 75.2625 68.2446 75.4594C68.1461 75.6703 68.1321 75.8672 68.1321 76.0078C68.1321 76.3313 68.2164 76.5984 68.3852 76.8094C68.5539 77.0203 68.7649 77.1891 68.9758 77.3016C69.2008 77.4281 69.468 77.5547 69.7352 77.6531L69.9321 77.7234C70.143 77.7938 70.3399 77.8781 70.5508 77.9625C70.818 78.075 71.0852 78.1734 71.3664 78.3281C71.6055 78.4547 71.8305 78.6094 72.0274 78.8063C72.2102 78.975 72.3649 79.2 72.4774 79.4672C72.5899 79.7063 72.6461 80.0297 72.6461 80.4234C72.6461 80.8313 72.5899 81.1828 72.4492 81.4781ZM66.6274 58.8938L66.2055 58.9078H65.5586L67.3727 63.2391H71.8164L74.1508 57.8531L73.7149 57.6984C73.068 57.4734 72.4633 57.3328 71.8727 57.2625H71.718C71.0289 57.2625 69.918 57.6281 68.6383 58.2609C68.0196 58.5984 67.3164 58.8234 66.6274 58.8938ZM22.3727 71.5922C22.3727 67.3453 18.1399 62.1563 15.7633 60.4406L15.6508 60.3563H12.0508L11.9383 60.4406C9.56174 62.1422 5.32893 67.3172 5.31487 71.6906C5.3008 71.8734 4.93518 76.275 11.1789 77.6109C12.0649 77.7938 12.9649 77.8922 13.8649 77.8922C14.7649 77.8922 15.6508 77.7938 16.4946 77.6109C22.5555 76.3172 22.4149 72.225 22.3727 71.7609V71.5922ZM16.1289 72.0703C16.0024 72.3516 15.8336 72.5625 15.6508 72.7313C15.4399 72.9281 15.1727 73.0828 14.8914 73.1813C14.6664 73.2656 14.4133 73.3359 14.1602 73.3641L13.8367 73.4063L13.6961 74.7703L13.5133 74.8125H13.218C13.1477 74.8125 13.0914 74.8125 13.0352 74.7984C12.993 74.7984 12.9508 74.7844 12.8946 74.7563L12.8383 74.6297L12.9649 73.4063L12.6133 73.3078C12.543 73.2938 12.4727 73.2797 12.4305 73.2656C12.2758 73.2234 12.1492 73.1813 11.9946 73.125C11.868 73.125 11.7836 73.0969 11.6852 73.0406C11.6279 73.0179 11.5754 72.9845 11.5305 72.9422C11.491 72.8941 11.4665 72.8354 11.4602 72.7734C11.4461 72.6891 11.4321 72.5766 11.4321 72.4219L11.4461 72.1266C11.4602 72.0281 11.4602 72 11.4602 72L11.5024 71.9156L11.5305 71.8875L11.5727 71.4516V71.8734C11.5867 71.8734 11.6289 71.8734 11.7414 71.9297C11.8539 72 11.9946 72.0703 12.1211 72.1266C12.2758 72.2109 12.4727 72.2813 12.6836 72.3375C12.9086 72.4078 13.1758 72.4359 13.4852 72.4359C13.8086 72.4359 14.2446 72.3938 14.568 72.1547C14.8071 71.9578 14.9336 71.7188 14.9336 71.4094C14.9336 71.2266 14.8774 71.0438 14.7789 70.9172C14.6711 70.7672 14.532 70.6424 14.3711 70.5516C14.1883 70.4391 14.0055 70.3547 13.8086 70.2984C13.8086 70.2984 13.3164 70.1156 13.218 70.0734C13.0071 69.975 12.7961 69.8906 12.5852 69.7781C12.4024 69.6797 12.2196 69.5531 12.0649 69.3984C11.9102 69.2438 11.7977 69.0609 11.7133 68.85C11.6149 68.625 11.5727 68.3719 11.5727 68.0766C11.5727 67.7953 11.6149 67.5422 11.7133 67.3172C11.8117 67.0641 11.9383 66.8672 12.1071 66.7125C12.2758 66.5438 12.4727 66.4172 12.768 66.2906C12.9367 66.2063 13.1477 66.15 13.3727 66.1078L13.6961 66.0516L13.8227 64.8422L13.8649 64.7719L14.0758 64.7297L14.2305 64.7156C14.343 64.7156 14.4414 64.7297 14.6524 64.7719L14.6805 64.7859L14.7086 64.8422L14.5961 65.8688L14.7367 66.0094L14.8774 66.1078L15.2008 66.1922L15.2711 66.2063C15.3555 66.2484 15.4399 66.2906 15.5805 66.3328L15.7352 66.4172L15.8477 66.6L15.8617 66.6984L15.8758 66.7547V67.0078C15.8758 67.1063 15.8758 67.1766 15.8617 67.2469L15.8336 67.4438L15.7914 67.5C15.7279 67.484 15.6665 67.4604 15.6086 67.4297C15.5102 67.3734 15.3696 67.3172 15.2571 67.275C15.0932 67.2012 14.924 67.14 14.7508 67.0922C14.54 67.0363 14.3219 67.0126 14.1039 67.0219C13.893 67.0219 13.7242 67.0359 13.5555 67.0781C13.443 67.1063 13.3024 67.1484 13.0914 67.3453C12.9227 67.5984 12.8946 67.7391 12.8946 67.9078C12.8946 68.1469 12.9789 68.3016 13.0633 68.4422C13.1758 68.5688 13.3024 68.6672 13.4571 68.7656C13.6258 68.8641 13.8086 68.9484 14.0336 69.0328L14.6524 69.2578C14.8492 69.3422 15.0602 69.4266 15.2852 69.5391C15.4539 69.6234 15.6227 69.75 15.7914 69.9188C15.9602 70.0875 16.0727 70.2563 16.1571 70.4672C16.2414 70.6641 16.2977 70.9172 16.2977 71.2266C16.2836 71.5359 16.2274 71.8172 16.1289 72.0703ZM13.2742 53.9438C12.8242 54.1828 12.2758 54.3516 11.6852 54.4219L11.1508 54.4781L12.4586 58.3594H15.2289L16.8883 53.5641L16.4664 53.4375C16.1289 53.3391 15.7914 53.2688 15.3977 53.2266C15.2289 53.2406 14.568 53.2828 13.2742 53.9438ZM84.5711 40.725C81.1117 21.15 67.5414 13.0219 56.7836 9.64688L56.3899 10.3922C61.7055 14.7516 68.9617 23.9625 73.293 43.1016L73.4477 43.7766L73.9821 43.3266C75.9086 41.7234 78.468 40.8375 81.1821 40.8375C82.1664 40.8375 83.1367 40.9641 84.0508 41.1891L84.6977 41.3578L84.5711 40.725Z" fill="#7BD0FF"/>
<path d="M64.4195 41.7938C66.5852 41.7938 68.6945 42.2438 70.4945 43.1016L71.2961 43.4813L71.0992 42.6094C65.6008 19.2375 55.6164 11.4328 50.1461 8.85938L48.9648 8.31094L49.5836 9.46406C52.3539 14.5828 55.6023 24.75 55.3211 44.0297L55.307 44.8734L55.9961 44.3813C58.218 42.7922 60.9742 41.9063 63.9414 41.8078L64.4195 41.7938ZM21.7539 42.5953L21.543 43.4672L22.3586 43.0734C24.1023 42.2297 26.1555 41.7797 28.2789 41.7797C28.4898 41.7797 28.6867 41.7797 28.8977 41.7938C31.8648 41.8922 34.607 42.7781 36.843 44.3672L37.532 44.8594L37.518 44.0156C37.2227 24.7359 40.4711 14.5828 43.2414 9.45L43.8742 8.29688L42.693 8.85938C37.2367 11.4328 27.2523 19.2516 21.7539 42.5953Z" fill="#7BD0FF"/>
<path d="M11.6719 40.8516C14.3859 40.8516 16.9453 41.7375 18.8859 43.3406L19.4203 43.7906L19.575 43.1156C23.9344 23.7656 31.2891 14.5547 36.6891 10.2375L36.2953 9.49219C25.4531 12.7125 11.7844 20.7703 8.26875 40.725L8.15625 41.3719L8.80313 41.2031C9.73125 40.9781 10.7016 40.8516 11.6719 40.8516ZM46.4344 8.15625L46.0828 8.6625C43.9734 11.7141 39.1359 21.3047 39.5437 44.4656L39.5578 45.225L40.2047 44.8172C41.4563 44.0297 42.8625 43.5234 44.3391 43.3125V79.6359C44.3391 82.9969 41.6109 85.725 38.25 85.725C36.6328 85.725 35.1141 85.0922 33.9609 83.9531C32.8135 82.8088 32.1663 81.2564 32.1609 79.6359C32.1609 79.069 31.9357 78.5254 31.5349 78.1245C31.134 77.7236 30.5903 77.4984 30.0234 77.4984C29.4565 77.4984 28.9129 77.7236 28.512 78.1245C28.1111 78.5254 27.8859 79.069 27.8859 79.6359C27.8859 82.3781 28.9687 84.9797 30.9234 86.9766C32.8666 88.9199 35.5018 90.0124 38.25 90.0141C43.9734 90.0141 48.6281 85.3594 48.6281 79.6359V43.5234C49.9922 43.8328 51.3563 44.3391 52.6781 45.0984L53.3109 45.4641L53.325 44.7469C53.8031 21.2344 48.9234 11.6859 46.8 8.67656L46.4344 8.15625ZM46.4766 6.525C47.5031 6.525 48.3328 5.69531 48.3328 4.66875V1.85625C48.3328 0.829688 47.5031 0 46.4766 0C45.45 0 44.6203 0.829688 44.6203 1.85625V4.66875C44.6203 5.69531 45.45 6.525 46.4766 6.525Z" fill="#7BD0FF"/>
</g>
<defs>
<clipPath id="clip0_86_1092">
<rect width="90" height="90" fill="white"/>
</clipPath>
</defs>
</svg>
