<svg width="87" height="87" viewBox="0 0 87 87" fill="none" xmlns="http://www.w3.org/2000/svg">
<g clip-path="url(#clip0_88_1385)">
<path d="M63.8906 80.2045C64.2512 80.2045 64.5969 80.0613 64.8518 79.8064C65.1068 79.5514 65.25 79.2057 65.25 78.8451C65.25 73.5993 60.9802 69.3309 55.7344 69.3309C55.3738 69.3309 55.0281 69.4741 54.7732 69.729C54.5182 69.984 54.375 70.3297 54.375 70.6902C54.375 71.0508 54.5182 71.3965 54.7732 71.6515C55.0281 71.9064 55.3738 72.0496 55.7344 72.0496C59.4822 72.0496 62.5312 75.0973 62.5312 78.8451C62.5312 79.2057 62.6745 79.5514 62.9294 79.8064C63.1843 80.0613 63.5301 80.2045 63.8906 80.2045Z" fill="#7BD0FF"/>
<path d="M50.2969 72.051L55.7344 72.0496C56.0949 72.0496 56.4407 71.9064 56.6956 71.6515C56.9505 71.3965 57.0938 71.0508 57.0938 70.6902C57.0938 70.3297 56.9505 69.984 56.6956 69.729C56.4407 69.4741 56.0949 69.3309 55.7344 69.3309L50.2969 69.3322C49.9363 69.3322 49.5906 69.4755 49.3357 69.7304C49.0807 69.9853 48.9375 70.3311 48.9375 70.6916C48.9375 71.0521 49.0807 71.3979 49.3357 71.6528C49.5906 71.9078 49.9363 72.051 50.2969 72.051ZM63.8906 84.284C64.2512 84.284 64.5969 84.1408 64.8518 83.8858C65.1068 83.6309 65.25 83.2852 65.25 82.9246V79.2353C65.25 78.8747 65.1068 78.529 64.8518 78.2741C64.5969 78.0191 64.2512 77.8759 63.8906 77.8759C63.5301 77.8759 63.1843 78.0191 62.9294 78.2741C62.6745 78.529 62.5312 78.8747 62.5312 79.2353V82.9246C62.5312 83.2852 62.6745 83.6309 62.9294 83.8858C63.1843 84.1408 63.5301 84.284 63.8906 84.284ZM23.1094 80.2045C23.4699 80.2045 23.8157 80.0613 24.0706 79.8064C24.3255 79.5514 24.4688 79.2057 24.4688 78.8451C24.4709 77.0433 25.1877 75.3159 26.462 74.0419C27.7362 72.7679 29.4638 72.0514 31.2656 72.0496C31.6262 72.0496 31.9719 71.9064 32.2268 71.6515C32.4818 71.3965 32.625 71.0508 32.625 70.6902C32.625 70.3297 32.4818 69.984 32.2268 69.729C31.9719 69.4741 31.6262 69.3309 31.2656 69.3309C26.0198 69.3309 21.75 73.5993 21.75 78.8451C21.75 79.2057 21.8932 79.5514 22.1482 79.8064C22.4031 80.0613 22.7488 80.2045 23.1094 80.2045Z" fill="#7BD0FF"/>
<path d="M36.7031 72.0509C37.0637 72.0509 37.4094 71.9077 37.6643 71.6528C37.9193 71.3979 38.0625 71.0521 38.0625 70.6916C38.0625 70.331 37.9193 69.9853 37.6643 69.7304C37.4094 69.4754 37.0637 69.3322 36.7031 69.3322L31.2656 69.3308C30.9051 69.3308 30.5593 69.4741 30.3044 69.729C30.0495 69.9839 29.9062 70.3297 29.9062 70.6902C29.9062 71.0507 30.0495 71.3965 30.3044 71.6514C30.5593 71.9064 30.9051 72.0496 31.2656 72.0496L36.7031 72.0509ZM23.1094 84.284C23.4699 84.284 23.8157 84.1407 24.0706 83.8858C24.3255 83.6309 24.4688 83.2851 24.4688 82.9246V79.2352C24.4688 78.8747 24.3255 78.529 24.0706 78.274C23.8157 78.0191 23.4699 77.8759 23.1094 77.8759C22.7488 77.8759 22.4031 78.0191 22.1482 78.274C21.8932 78.529 21.75 78.8747 21.75 79.2352V82.9246C21.75 83.2851 21.8932 83.6309 22.1482 83.8858C22.4031 84.1407 22.7488 84.284 23.1094 84.284ZM25.8281 87.0027H61.1719C61.5324 87.0027 61.8782 86.8595 62.1331 86.6046C62.388 86.3496 62.5312 86.0039 62.5312 85.6433C62.5312 85.2828 62.388 84.937 62.1331 84.6821C61.8782 84.4272 61.5324 84.284 61.1719 84.284H25.8281C25.4676 84.284 25.1218 84.4272 24.8669 84.6821C24.612 84.937 24.4688 85.2828 24.4688 85.6433C24.4688 86.0039 24.612 86.3496 24.8669 86.6046C25.1218 86.8595 25.4676 87.0027 25.8281 87.0027ZM50.2969 72.0509C50.6574 72.0509 51.0032 71.9077 51.2581 71.6528C51.513 71.3979 51.6562 71.0521 51.6562 70.6916V66.3402C51.6562 65.9797 51.513 65.6339 51.2581 65.379C51.0032 65.1241 50.6574 64.9808 50.2969 64.9808C49.9363 64.9808 49.5906 65.1241 49.3357 65.379C49.0807 65.6339 48.9375 65.9797 48.9375 66.3402V70.6916C48.9375 71.0521 49.0807 71.3979 49.3357 71.6528C49.5906 71.9077 49.9363 72.0509 50.2969 72.0509Z" fill="#7BD0FF"/>
<path d="M36.7031 72.0496C37.0637 72.0496 37.4094 71.9064 37.6643 71.6514C37.9193 71.3965 38.0625 71.0507 38.0625 70.6902V66.3402C38.0625 65.9797 37.9193 65.6339 37.6643 65.379C37.4094 65.1241 37.0637 64.9808 36.7031 64.9808C36.3426 64.9808 35.9968 65.1241 35.7419 65.379C35.487 65.6339 35.3438 65.9797 35.3438 66.3402V70.6902C35.3438 71.0507 35.487 71.3965 35.7419 71.6514C35.9968 71.9064 36.3426 72.0496 36.7031 72.0496Z" fill="#7BD0FF"/>
<path d="M43.5 69.3309C52.495 69.3309 59.8125 62.0134 59.8125 53.0184C59.8125 52.6578 59.6693 52.3121 59.4143 52.0571C59.1594 51.8022 58.8137 51.659 58.4531 51.659C58.0926 51.659 57.7468 51.8022 57.4919 52.0571C57.237 52.3121 57.0938 52.6578 57.0938 53.0184C57.0938 60.514 50.9956 66.6121 43.5 66.6121C36.0044 66.6121 29.9062 60.514 29.9062 53.0184C29.9062 52.6578 29.763 52.3121 29.5081 52.0571C29.2532 51.8022 28.9074 51.659 28.5469 51.659C28.1863 51.659 27.8406 51.8022 27.5857 52.0571C27.3307 52.3121 27.1875 52.6578 27.1875 53.0184C27.1875 62.0134 34.505 69.3309 43.5 69.3309Z" fill="#7BD0FF"/>
<path d="M58.4531 54.3791C58.8137 54.3791 59.1594 54.2359 59.4143 53.981C59.6693 53.726 59.8125 53.3803 59.8125 53.0197V40.784C59.8125 40.4235 59.6693 40.0777 59.4143 39.8228C59.1594 39.5678 58.8137 39.4246 58.4531 39.4246C58.0926 39.4246 57.7468 39.5678 57.4919 39.8228C57.237 40.0777 57.0938 40.4235 57.0938 40.784V53.0197C57.0938 53.3803 57.237 53.726 57.4919 53.981C57.7468 54.2359 58.0926 54.3791 58.4531 54.3791ZM28.5469 54.3805C28.9074 54.3805 29.2532 54.2372 29.5081 53.9823C29.763 53.7274 29.9062 53.3816 29.9062 53.0211V40.784C29.9062 40.4235 29.763 40.0777 29.5081 39.8228C29.2532 39.5678 28.9074 39.4246 28.5469 39.4246C28.1863 39.4246 27.8406 39.5678 27.5857 39.8228C27.3307 40.0777 27.1875 40.4235 27.1875 40.784V53.0211C27.1875 53.3816 27.3307 53.7274 27.5857 53.9823C27.8406 54.2372 28.1863 54.3805 28.5469 54.3805Z" fill="#7BD0FF"/>
<path d="M28.5469 42.1434C28.9074 42.1434 29.2532 42.0002 29.5081 41.7452C29.763 41.4903 29.9062 41.1445 29.9062 40.784C29.9062 37.7852 32.345 35.3465 35.3438 35.3465C35.7043 35.3465 36.05 35.2033 36.305 34.9483C36.5599 34.6934 36.7031 34.3477 36.7031 33.9871C36.7031 33.6266 36.5599 33.2808 36.305 33.0259C36.05 32.771 35.7043 32.6277 35.3438 32.6277C30.8456 32.6277 27.1875 36.2858 27.1875 40.784C27.1875 41.1445 27.3307 41.4903 27.5857 41.7452C27.8406 42.0002 28.1863 42.1434 28.5469 42.1434Z" fill="#7BD0FF"/>
<path d="M35.3438 35.3465C35.7043 35.3465 36.05 35.2033 36.305 34.9483C36.5599 34.6934 36.7031 34.3477 36.7031 33.9871V28.5496C36.7031 28.1891 36.5599 27.8433 36.305 27.5884C36.05 27.3335 35.7043 27.1902 35.3438 27.1902C34.9832 27.1902 34.6375 27.3335 34.3825 27.5884C34.1276 27.8433 33.9844 28.1891 33.9844 28.5496V33.9871C33.9844 34.3477 34.1276 34.6934 34.3825 34.9483C34.6375 35.2033 34.9832 35.3465 35.3438 35.3465Z" fill="#7BD0FF"/>
<path d="M35.3438 29.909H46.2188C46.5793 29.909 46.925 29.7658 47.18 29.5108C47.4349 29.2559 47.5781 28.9102 47.5781 28.5496C47.5781 28.1891 47.4349 27.8433 47.18 27.5884C46.925 27.3335 46.5793 27.1902 46.2188 27.1902H35.3438C34.9832 27.1902 34.6375 27.3335 34.3825 27.5884C34.1276 27.8433 33.9844 28.1891 33.9844 28.5496C33.9844 28.9102 34.1276 29.2559 34.3825 29.5108C34.6375 29.7658 34.9832 29.909 35.3438 29.909Z" fill="#7BD0FF"/>
<path d="M58.4531 42.1434C58.8137 42.1434 59.1594 42.0001 59.4143 41.7452C59.6693 41.4903 59.8125 41.1445 59.8125 40.784C59.8125 33.2884 53.7143 27.1916 46.2187 27.1916C45.8582 27.1916 45.5125 27.3348 45.2575 27.5897C45.0026 27.8447 44.8594 28.1904 44.8594 28.551C44.8594 28.9115 45.0026 29.2573 45.2575 29.5122C45.5125 29.7671 45.8582 29.9103 46.2187 29.9103C52.215 29.9103 57.0937 34.7878 57.0937 40.784C57.0937 41.1445 57.237 41.4903 57.4919 41.7452C57.7468 42.0001 58.0926 42.1434 58.4531 42.1434ZM28.5469 48.9402C28.7254 48.9404 28.9022 48.9053 29.0671 48.837C29.2321 48.7686 29.3819 48.6684 29.508 48.5419L33.5861 44.4638C33.7123 44.3376 33.8124 44.1878 33.8807 44.0229C33.949 43.858 33.9842 43.6812 33.9842 43.5027C33.9842 43.3242 33.949 43.1475 33.8807 42.9826C33.8124 42.8177 33.7123 42.6679 33.5861 42.5417C33.4599 42.4154 33.31 42.3153 33.1451 42.247C32.9802 42.1787 32.8035 42.1436 32.625 42.1436C32.4465 42.1436 32.2698 42.1787 32.1049 42.247C31.94 42.3153 31.7901 42.4154 31.6639 42.5417L27.5858 46.6198C27.3951 46.8096 27.2651 47.0519 27.2123 47.3158C27.1595 47.5796 27.1862 47.8532 27.2892 48.1019C27.3922 48.3505 27.5667 48.5629 27.7906 48.7122C28.0145 48.8615 28.2778 48.9408 28.5469 48.9402Z" fill="#7BD0FF"/>
<path d="M43.4991 47.5808C49.5959 47.5808 54.7996 44.8172 55.0184 44.7003C55.336 44.5296 55.5728 44.2397 55.6767 43.8944C55.7806 43.5491 55.7431 43.1767 55.5724 42.859C55.4016 42.5414 55.1118 42.3046 54.7664 42.2007C54.4211 42.0968 54.0487 42.1344 53.7311 42.3051C53.6835 42.3309 48.8917 44.8621 43.4991 44.8621C38.0792 44.8621 33.316 42.3323 33.2684 42.3051C32.9519 42.144 32.5848 42.1133 32.2459 42.2194C31.9069 42.3255 31.623 42.56 31.4548 42.8728C31.2865 43.1856 31.2474 43.5519 31.3458 43.8931C31.4442 44.2344 31.6722 44.5236 31.9811 44.6989C32.1986 44.8172 37.4023 47.5808 43.4991 47.5808Z" fill="#7BD0FF"/>
<path d="M58.4534 48.9402C58.7225 48.9408 58.9858 48.8614 59.2097 48.7122C59.4336 48.5629 59.6081 48.3505 59.7111 48.1019C59.8141 47.8532 59.8409 47.5796 59.7881 47.3157C59.7352 47.0519 59.6052 46.8096 59.4145 46.6198L55.3364 42.5416C55.0815 42.2868 54.7358 42.1436 54.3753 42.1436C54.0148 42.1436 53.6691 42.2868 53.4142 42.5416C53.1593 42.7965 53.0161 43.1422 53.0161 43.5027C53.0161 43.8632 53.1593 44.2089 53.4142 44.4638L57.4924 48.5419C57.6184 48.6683 57.7682 48.7686 57.9332 48.837C58.0981 48.9053 58.2749 48.9404 58.4534 48.9402ZM47.5784 74.7683C47.757 74.7685 47.9338 74.7334 48.0987 74.6651C48.2636 74.5967 48.4134 74.4965 48.5395 74.3701L51.2583 71.6527C51.3845 71.5264 51.4846 71.3766 51.5529 71.2117C51.6212 71.0468 51.6564 70.8701 51.6564 70.6916C51.6564 70.5131 51.6212 70.3364 51.5529 70.1714C51.4846 70.0065 51.3845 69.8567 51.2583 69.7305C51.1321 69.6043 50.9822 69.5042 50.8173 69.4359C50.6524 69.3676 50.4757 69.3324 50.2972 69.3324C50.1187 69.3324 49.942 69.3676 49.7771 69.4359C49.6122 69.5042 49.4623 69.6043 49.3361 69.7305L46.6174 72.4479C46.4266 72.6377 46.2966 72.88 46.2438 73.1439C46.191 73.4077 46.2178 73.6814 46.3208 73.93C46.4238 74.1786 46.5983 74.391 46.8222 74.5403C47.0461 74.6896 47.3093 74.7689 47.5784 74.7683Z" fill="#7BD0FF"/>
<path d="M47.5791 74.7683C47.9021 74.7686 48.2146 74.6538 48.4607 74.4446C48.7067 74.2353 48.8702 73.9453 48.9219 73.6265C48.9736 73.3077 48.9101 72.9809 48.7428 72.7046C48.5754 72.4284 48.3152 72.2207 48.0087 72.1189L43.9305 70.7595C43.7605 70.7003 43.5804 70.6754 43.4007 70.6863C43.221 70.6973 43.0453 70.7438 42.8837 70.8231C42.7221 70.9025 42.5779 71.0132 42.4595 71.1488C42.341 71.2844 42.2507 71.4421 42.1937 71.6129C42.1367 71.7837 42.1142 71.9641 42.1275 72.1436C42.1408 72.3232 42.1897 72.4983 42.2712 72.6588C42.3527 72.8193 42.4653 72.962 42.6025 73.0787C42.7396 73.1953 42.8985 73.2836 43.07 73.3383L47.1482 74.6976C47.2871 74.744 47.4326 74.7679 47.5791 74.7683ZM39.4228 74.7683C39.6919 74.7689 39.9552 74.6896 40.1791 74.5403C40.403 74.391 40.5775 74.1786 40.6805 73.93C40.7835 73.6813 40.8103 73.4077 40.7575 73.1439C40.7046 72.88 40.5746 72.6377 40.3839 72.4479L37.6652 69.7305C37.539 69.6043 37.3891 69.5042 37.2242 69.4359C37.0593 69.3676 36.8826 69.3324 36.7041 69.3324C36.5256 69.3324 36.3489 69.3676 36.184 69.4359C36.0191 69.5042 35.8692 69.6043 35.743 69.7305C35.6168 69.8567 35.5167 70.0065 35.4484 70.1714C35.3801 70.3363 35.3449 70.5131 35.3449 70.6916C35.3449 70.8701 35.3801 71.0468 35.4484 71.2117C35.5167 71.3766 35.6168 71.5264 35.743 71.6526L38.4618 74.37C38.5878 74.4965 38.7376 74.5967 38.9026 74.6651C39.0675 74.7334 39.2443 74.7685 39.4228 74.7683Z" fill="#7BD0FF"/>
<path d="M39.4227 74.7684C39.5687 74.768 39.7138 74.7442 39.8522 74.6977L43.9303 73.3383C44.1019 73.2836 44.2608 73.1953 44.3979 73.0787C44.5351 72.9621 44.6477 72.8193 44.7292 72.6588C44.8107 72.4983 44.8595 72.3232 44.8728 72.1437C44.8861 71.9641 44.8636 71.7837 44.8067 71.613C44.7497 71.4422 44.6593 71.2844 44.5409 71.1488C44.4224 71.0133 44.2782 70.9026 44.1167 70.8232C43.9551 70.7438 43.7793 70.6973 43.5996 70.6864C43.4199 70.6754 43.2399 70.7003 43.0699 70.7596L38.9917 72.1189C38.6851 72.2208 38.4248 72.4286 38.2575 72.705C38.0901 72.9813 38.0267 73.3083 38.0786 73.6272C38.1304 73.9461 38.2942 74.2361 38.5405 74.4453C38.7868 74.6544 39.0996 74.7689 39.4227 74.7684ZM25.8289 87.0027C26.1894 87.0027 26.5352 86.8595 26.7901 86.6046C27.0451 86.3497 27.1883 86.0039 27.1883 85.6434C27.1883 85.2828 27.0451 84.9371 26.7901 84.6821C26.5352 84.4272 26.1894 84.284 25.8289 84.284C25.4684 84.284 25.1226 84.1408 24.8677 83.8858C24.6128 83.6309 24.4695 83.2851 24.4695 82.9246C24.4695 82.5641 24.3263 82.2183 24.0714 81.9634C23.8165 81.7085 23.4707 81.5652 23.1102 81.5652C22.7496 81.5652 22.4039 81.7085 22.1489 81.9634C21.894 82.2183 21.7508 82.5641 21.7508 82.9246C21.7508 85.173 23.5805 87.0027 25.8289 87.0027ZM61.1727 87.0027C63.4211 87.0027 65.2508 85.173 65.2508 82.9246C65.2508 82.5641 65.1076 82.2183 64.8526 81.9634C64.5977 81.7085 64.2519 81.5652 63.8914 81.5652C63.5309 81.5652 63.1851 81.7085 62.9302 81.9634C62.6752 82.2183 62.532 82.5641 62.532 82.9246C62.532 83.2851 62.3888 83.6309 62.1339 83.8858C61.8789 84.1408 61.5332 84.284 61.1727 84.284C60.8121 84.284 60.4664 84.4272 60.2114 84.6821C59.9565 84.9371 59.8133 85.2828 59.8133 85.6434C59.8133 86.0039 59.9565 86.3497 60.2114 86.6046C60.4664 86.8595 60.8121 87.0027 61.1727 87.0027ZM43.46 80.2059C44.2117 80.2059 44.8262 79.5982 44.8262 78.8465C44.8262 78.0948 44.2253 77.4871 43.475 77.4871H43.46C43.0995 77.4871 42.7537 77.6303 42.4988 77.8853C42.2438 78.1402 42.1006 78.486 42.1006 78.8465C42.1006 79.207 42.2438 79.5528 42.4988 79.8077C42.7537 80.0626 43.0995 80.2059 43.46 80.2059ZM76.085 48.9362C76.8367 48.9362 77.4512 48.3285 77.4512 47.5768C77.4512 46.825 76.8503 46.2174 76.1 46.2174H76.085C75.7245 46.2174 75.3787 46.3606 75.1238 46.6156C74.8688 46.8705 74.7256 47.2163 74.7256 47.5768C74.7256 47.9373 74.8688 48.2831 75.1238 48.538C75.3787 48.7929 75.7245 48.9362 76.085 48.9362Z" fill="#7BD0FF"/>
<path d="M76.125 53.017C81.3708 53.017 85.6406 48.7472 85.6406 43.5014C85.6406 38.2555 81.3722 33.9857 76.125 33.9844C73.583 33.9844 71.1932 34.9754 69.3961 36.7711C68.5097 37.6527 67.807 38.7014 67.3287 39.8564C66.8503 41.0114 66.6059 42.2499 66.6094 43.5C66.6094 48.7472 70.8792 53.017 76.125 53.017ZM76.1223 36.7031C79.8714 36.7045 82.9219 39.7536 82.9219 43.5014C82.9219 47.2492 79.8728 50.2982 76.125 50.2982C72.3772 50.2982 69.3281 47.2492 69.3281 43.5C69.3281 39.7522 72.3758 36.7031 76.1223 36.7031Z" fill="#7BD0FF"/>
<path d="M76.125 44.8608C76.4855 44.8608 76.8313 44.7175 77.0862 44.4626C77.3412 44.2077 77.4844 43.8619 77.4844 43.5014V39.4205C77.4844 39.06 77.3412 38.7142 77.0862 38.4593C76.8313 38.2044 76.4855 38.0612 76.125 38.0612C75.7645 38.0612 75.4187 38.2044 75.1638 38.4593C74.9088 38.7142 74.7656 39.06 74.7656 39.4205V43.5014C74.7656 43.8619 74.9088 44.2077 75.1638 44.4626C75.4187 44.7175 75.7645 44.8608 76.125 44.8608ZM63.8906 44.8621H67.9674C68.3279 44.8621 68.6737 44.7189 68.9286 44.464C69.1835 44.209 69.3268 43.8633 69.3268 43.5027C69.3268 43.1422 69.1835 42.7964 68.9286 42.5415C68.6737 42.2866 68.3279 42.1434 67.9674 42.1434H63.8906C63.5301 42.1434 63.1843 42.2866 62.9294 42.5415C62.6745 42.7964 62.5312 43.1422 62.5312 43.5027C62.5312 43.8633 62.6745 44.209 62.9294 44.464C63.1843 44.7189 63.5301 44.8621 63.8906 44.8621ZM10.8329 48.9389C11.5846 48.9389 12.199 48.3312 12.199 47.5795C12.199 46.8278 11.5982 46.2201 10.8478 46.2201H10.8329C10.4723 46.2201 10.1266 46.3633 9.87164 46.6183C9.61671 46.8732 9.47349 47.219 9.47349 47.5795C9.47349 47.94 9.61671 48.2858 9.87164 48.5407C10.1266 48.7957 10.4723 48.9389 10.8329 48.9389Z" fill="#7BD0FF"/>
<path d="M10.873 53.0183C16.1189 53.0183 20.3887 48.7485 20.3887 43.5C20.3887 38.2542 16.1202 33.9857 10.8744 33.9857C5.62858 33.9857 1.35878 38.2555 1.35878 43.5013C1.36014 48.7472 5.62858 53.017 10.873 53.0183ZM10.8744 36.7045C12.6761 36.7063 14.4036 37.4228 15.6776 38.6968C16.9516 39.9708 17.6681 41.6983 17.6699 43.5C17.6681 45.3023 16.9515 47.0304 15.6773 48.3051C14.4031 49.5798 12.6754 50.2971 10.873 50.2996C9.07129 50.2963 7.34429 49.579 6.0705 48.3047C4.79672 47.0304 4.08005 45.3031 4.07753 43.5013C4.07753 39.7535 7.12661 36.7045 10.8744 36.7045Z" fill="#7BD0FF"/>
<path d="M10.8736 44.8621C11.2342 44.8621 11.5799 44.7189 11.8349 44.464C12.0898 44.209 12.233 43.8633 12.233 43.5027L12.2344 39.4232C12.2344 39.0627 12.0912 38.717 11.8362 38.462C11.5813 38.2071 11.2355 38.0639 10.875 38.0639C10.5145 38.0639 10.1687 38.2071 9.91378 38.462C9.65884 38.717 9.51562 39.0627 9.51562 39.4232L9.51427 43.5027C9.51427 43.8633 9.65749 44.209 9.91242 44.464C10.1673 44.7189 10.5131 44.8621 10.8736 44.8621ZM19.0312 44.8635L23.1094 44.8621C23.4699 44.8621 23.8157 44.7189 24.0706 44.464C24.3255 44.209 24.4688 43.8633 24.4688 43.5027C24.4688 43.1422 24.3255 42.7964 24.0706 42.5415C23.8157 42.2866 23.4699 42.1434 23.1094 42.1434L19.0312 42.1447C18.8527 42.1447 18.676 42.1799 18.511 42.2482C18.3461 42.3165 18.1963 42.4166 18.07 42.5429C17.9438 42.6691 17.8437 42.819 17.7754 42.9839C17.707 43.1488 17.6719 43.3256 17.6719 43.5041C17.6719 43.6826 17.707 43.8594 17.7754 44.0243C17.8437 44.1892 17.9438 44.3391 18.07 44.4653C18.1963 44.5915 18.3461 44.6917 18.511 44.76C18.676 44.8283 18.8527 44.8635 19.0312 44.8635ZM19.4255 24.9078C20.1772 24.9078 20.7916 24.3002 20.7916 23.5485C20.7916 22.7967 20.1908 22.1891 19.4404 22.1891H19.4255C19.0649 22.1891 18.7192 22.3323 18.4642 22.5872C18.2093 22.8422 18.0661 23.1879 18.0661 23.5485C18.0661 23.909 18.2093 24.2548 18.4642 24.5097C18.7192 24.7646 19.0649 24.9078 19.4255 24.9078Z" fill="#7BD0FF"/>
<path d="M19.4668 28.9873C19.4682 28.9873 19.4682 28.9873 19.4668 28.9873C24.714 28.9873 28.9824 24.7175 28.9824 19.469C28.9824 14.2232 24.714 9.95337 19.4682 9.95337C14.2223 9.95337 9.95389 14.2232 9.95389 19.469C9.95389 24.7148 14.2223 28.9846 19.4668 28.9873ZM19.4682 12.6721C21.27 12.6743 22.9974 13.3911 24.2714 14.6653C25.5454 15.9396 26.2619 17.6671 26.2637 19.469C26.2622 21.2712 25.5459 22.9993 24.272 24.274C22.998 25.5487 21.2704 26.2661 19.4682 26.2686C15.7217 26.2659 12.6726 23.2168 12.6726 19.469C12.6726 15.7212 15.7204 12.6721 19.4682 12.6721Z" fill="#7BD0FF"/>
<path d="M19.4658 20.8311C19.8261 20.8311 20.1717 20.6881 20.4266 20.4334C20.6815 20.1788 20.8249 19.8334 20.8252 19.4731L20.8279 15.3936C20.8281 15.2151 20.7931 15.0383 20.725 14.8733C20.6568 14.7083 20.5569 14.5583 20.4307 14.432C20.3046 14.3056 20.1549 14.2053 19.99 14.1369C19.8252 14.0684 19.6484 14.033 19.4699 14.0329H19.4686C19.1083 14.0329 18.7627 14.1759 18.5078 14.4305C18.2529 14.6852 18.1095 15.0306 18.1092 15.3909L18.1065 19.4704C18.1063 19.649 18.1413 19.8259 18.2096 19.991C18.2778 20.1561 18.3779 20.3061 18.5041 20.4325C18.6304 20.5588 18.7803 20.6591 18.9453 20.7275C19.1103 20.7959 19.2872 20.8311 19.4658 20.8311ZM28.1196 29.4822C28.3887 29.4828 28.652 29.4034 28.8759 29.2541C29.0998 29.1049 29.2743 28.8924 29.3773 28.6438C29.4803 28.3952 29.507 28.1216 29.4542 27.8577C29.4014 27.5938 29.2714 27.3516 29.0807 27.1617L26.1961 24.2798C26.0699 24.1536 25.9201 24.0535 25.7552 23.9852C25.5903 23.9169 25.4135 23.8817 25.235 23.8817C25.0565 23.8817 24.8798 23.9169 24.7149 23.9852C24.55 24.0535 24.4002 24.1536 24.274 24.2798C24.1477 24.406 24.0476 24.5559 23.9793 24.7208C23.911 24.8857 23.8759 25.0624 23.8759 25.2409C23.8759 25.4194 23.911 25.5961 23.9793 25.761C24.0476 25.9259 24.1477 26.0758 24.274 26.202L27.1585 29.0839C27.2846 29.2103 27.4344 29.3105 27.5993 29.3789C27.7643 29.4473 27.9411 29.4823 28.1196 29.4822ZM43.4561 14.9504C44.2078 14.9504 44.8223 14.3428 44.8223 13.5911C44.8223 12.8393 44.2214 12.2317 43.471 12.2317H43.4561C43.0956 12.2317 42.7498 12.3749 42.4949 12.6298C42.2399 12.8848 42.0967 13.2305 42.0967 13.5911C42.0967 13.9516 42.2399 14.2974 42.4949 14.5523C42.7498 14.8072 43.0956 14.9504 43.4561 14.9504Z" fill="#7BD0FF"/>
<path d="M43.4986 19.0312C43.5 19.0312 43.5 19.0312 43.4986 19.0312C48.7458 19.0312 53.0156 14.7614 53.0156 9.51288C53.0156 4.26705 48.7458 -0.00274658 43.5 -0.00274658C38.2542 -0.00274658 33.9844 4.26705 33.9844 9.51288C33.9844 14.7573 38.2528 19.0285 43.4986 19.0312ZM43.5 2.716C47.2478 2.716 50.2969 5.76508 50.2969 9.51288C50.2951 11.3152 49.5785 13.0433 48.3043 14.318C47.0301 15.5927 45.3023 16.31 43.5 16.3125C39.7522 16.3098 36.7031 13.2607 36.7031 9.51288C36.7031 5.76508 39.7522 2.716 43.5 2.716Z" fill="#7BD0FF"/>
<path d="M43.5006 10.875C43.8611 10.875 44.2069 10.7318 44.4618 10.4769C44.7167 10.2219 44.86 9.87619 44.86 9.51566V5.43481C44.86 5.07429 44.7167 4.72852 44.4618 4.47359C44.2069 4.21866 43.8611 4.07544 43.5006 4.07544C43.14 4.07544 42.7943 4.21866 42.5394 4.47359C42.2844 4.72852 42.1412 5.07429 42.1412 5.43481V9.51566C42.1412 9.87619 42.2844 10.2219 42.5394 10.4769C42.7943 10.7318 43.14 10.875 43.5006 10.875ZM43.4979 23.1094C43.8584 23.1094 44.2041 22.9662 44.4591 22.7113C44.714 22.4563 44.8572 22.1106 44.8572 21.75V17.6719C44.8572 17.3114 44.714 16.9656 44.4591 16.7107C44.2041 16.4558 43.8584 16.3125 43.4979 16.3125C43.1373 16.3125 42.7916 16.4558 42.5366 16.7107C42.2817 16.9656 42.1385 17.3114 42.1385 17.6719V21.75C42.1385 22.1106 42.2817 22.4563 42.5366 22.7113C42.7916 22.9662 43.1373 23.1094 43.4979 23.1094ZM67.4854 24.9024C68.2371 24.9024 68.8516 24.2948 68.8516 23.543C68.8516 22.7913 68.2507 22.1837 67.5003 22.1837H67.4854C67.1249 22.1837 66.7791 22.3269 66.5242 22.5818C66.2692 22.8368 66.126 23.1825 66.126 23.543C66.126 23.9036 66.2692 24.2493 66.5242 24.5043C66.7791 24.7592 67.1249 24.9024 67.4854 24.9024Z" fill="#7BD0FF"/>
<path d="M67.5293 28.9846C68.7798 28.988 70.0187 28.7432 71.174 28.2644C72.3292 27.7856 73.378 27.0822 74.2595 26.1952C75.1456 25.3134 75.848 24.2647 76.3261 23.1097C76.8042 21.9546 77.0485 20.7163 77.0449 19.4662C77.0449 14.2204 72.7764 9.95062 67.5306 9.95062C62.2848 9.95062 58.0163 14.2204 58.0163 19.4662C58.015 24.7107 62.2821 28.9805 67.5293 28.9846ZM67.5306 12.6694C69.3325 12.6715 71.0599 13.3884 72.3339 14.6626C73.6078 15.9368 74.3243 17.6644 74.3261 19.4662C74.3261 21.2824 73.6193 22.9897 72.336 24.2744C71.7068 24.9076 70.9582 25.4096 70.1335 25.7515C69.3089 26.0933 68.4247 26.2682 67.532 26.2658C65.7297 26.263 64.0022 25.5456 62.7281 24.2709C61.454 22.9963 60.7373 21.2685 60.7351 19.4662C60.7351 15.7185 63.7828 12.6694 67.5306 12.6694Z" fill="#7BD0FF"/>
<path d="M67.5293 20.827C67.8898 20.827 68.2356 20.6838 68.4905 20.4288C68.7455 20.1739 68.8887 19.8281 68.8887 19.4676V15.3881C68.8887 15.0276 68.7455 14.6818 68.4905 14.4269C68.2356 14.172 67.8898 14.0287 67.5293 14.0287C67.1688 14.0287 66.823 14.172 66.5681 14.4269C66.3131 14.6818 66.1699 15.0276 66.1699 15.3881V19.4676C66.1699 19.8281 66.3131 20.1739 66.5681 20.4288C66.823 20.6838 67.1688 20.827 67.5293 20.827ZM58.8769 29.4794C59.0554 29.4796 59.2322 29.4445 59.3972 29.3761C59.5621 29.3078 59.7119 29.2075 59.838 29.0811L62.7212 26.1979C62.8474 26.0717 62.9475 25.9218 63.0158 25.7569C63.0841 25.592 63.1193 25.4153 63.1193 25.2368C63.1193 25.0583 63.0841 24.8816 63.0158 24.7167C62.9475 24.5518 62.8474 24.4019 62.7212 24.2757C62.595 24.1495 62.4451 24.0494 62.2802 23.9811C62.1153 23.9128 61.9386 23.8776 61.7601 23.8776C61.5816 23.8776 61.4049 23.9128 61.24 23.9811C61.0751 24.0494 60.9252 24.1495 60.799 24.2757L57.9158 27.1589C57.7251 27.3488 57.5951 27.591 57.5423 27.8549C57.4895 28.1188 57.5162 28.3924 57.6192 28.641C57.7222 28.8897 57.8967 29.1021 58.1206 29.2514C58.3446 29.4006 58.6078 29.48 58.8769 29.4794Z" fill="#7BD0FF"/>
</g>
<defs>
<clipPath id="clip0_88_1385">
<rect width="87" height="87" fill="white" transform="matrix(-1 0 0 1 87 0)"/>
</clipPath>
</defs>
</svg>
