<svg width="123" height="123" viewBox="0 0 123 123" fill="none" xmlns="http://www.w3.org/2000/svg">
<path d="M97.4829 35.5088C96.0086 28.4577 91.6877 25.1725 86.9859 24.925C85.4649 21.9288 74.3406 14.6553 64.4884 20.1256C62.6261 19.1118 56.9429 18.9574 54.5905 19.0388C48.0946 19.2625 42.1557 21.0241 37.4229 24.1325C26.7062 31.1692 22.8618 45.3723 24.7089 48.984C16.8417 56.082 13.6656 79.0491 28.3062 85.966C31.4062 96.986 39.7478 101.189 53.1575 94.0938C59.5713 103.587 66.4703 105.435 71.2053 105.272C79.0624 105.001 85.1356 99.305 87.6097 96.5711C103.017 93.0577 107.467 79.2781 103.013 66.8135C103.009 66.8037 103.005 66.7941 103.001 66.7847C109.111 60.7209 111.541 41.7568 97.4829 35.5088Z" fill="white"/>
<path d="M40.9272 46.0388C40.9272 46.0388 36.171 60.7368 50.4006 66.7446C64.6294 72.7521 72.8644 73.4947 77.4147 80.8614C77.4147 80.8614 74.3325 76.8635 66.9379 79.5123C59.5449 82.1611 35.2387 106.595 30.8852 82.1222C30.8852 82.1222 19.7373 80.1122 21.633 64.9997C23.5282 49.8868 30.6204 47.4196 40.9272 46.0388Z" fill="#7BD0FF"/>
<path d="M50.1892 63.3316C50.1892 63.3316 47.426 39.1462 70.6995 33.5564C70.6995 33.5564 46.0954 22.7766 43.3029 43.734C43.3034 43.734 40.4436 58.5379 50.1892 63.3316Z" fill="#7BD0FF"/>
<path d="M56.7142 46.6922C56.7142 46.6922 48.7415 60.3036 55.3648 65.548C61.989 70.7908 66.5756 68.5814 78.8491 63.3702C78.8491 63.3702 77.4015 60.3423 71.9321 58.4795C66.4622 56.6158 59.4204 54.8071 62.4128 47.1792C62.4128 47.1789 57.9497 46.3078 56.7142 46.6922ZM58.4078 43.5552C58.4078 43.5552 71.1448 40.7231 74.591 55.6515C74.591 55.6515 80.0114 46.5735 72.5247 37.5977C72.525 37.5977 66.8893 38.1341 58.4078 43.5552Z" fill="#7BD0FF"/>
<path d="M75.8481 35.3462C75.8481 35.3462 88.1947 36.3736 89.2711 48.6486C90.3469 60.9227 76.6737 68.9175 73.7852 73.1206C73.7852 73.1206 76.7773 75.6678 79.5873 80.3589C79.5873 80.3589 79.8345 74.8359 86.5409 70.6291C95.8094 64.8159 101.528 64.7268 103.187 57.2315C105.477 46.8964 102.139 40.3389 93.7311 38.0637C93.7311 38.0637 93.7501 25.4041 83.2605 29.1904C80.8226 30.0716 79.8374 32.4033 75.8481 35.3462Z" fill="#7BD0FF"/>
<path d="M77.4082 40.1655C77.4082 40.1655 83.0926 50.5713 76.9166 57.6238C76.9166 57.6238 79.4739 58.2194 80.3143 61.6101C80.3143 61.6101 87.5588 56.5728 86.0873 48.0743C84.6147 39.575 77.4082 40.1655 77.4082 40.1655ZM40.6117 42.6714C40.6117 42.6714 41.4898 28.4841 56.8477 28.5629L62.0925 22.995C62.0925 22.995 33.1241 16.7261 27.3613 45.651C27.3613 45.651 34.3272 42.8879 40.6117 42.6714ZM60.3465 29.1253C60.3465 29.1253 67.9465 14.5861 83.0373 25.6085C83.0373 25.6085 77.6967 27.0744 73.8032 32.8506C73.8039 32.8514 63.4467 28.3352 60.3465 29.1253ZM55.6535 90.5026C55.6535 90.5026 62.1506 84.2526 69.5643 82.4992C72.9823 81.691 76.4614 82.8028 79.8268 84.1971C79.8268 84.1971 85.019 72.7331 99.2986 68.137C99.2986 68.137 106.543 88.406 85.3635 92.2145C85.3633 92.2149 69.6231 112.592 55.6535 90.5026ZM65.0327 48.7996C65.0327 48.7996 64.3658 53.2679 71.384 54.7365C71.3843 54.7362 74.65 51.5449 65.0327 48.7996Z" fill="#7BD0FF"/>
</svg>
