<svg width="56" height="75" viewBox="0 0 56 75" fill="none" xmlns="http://www.w3.org/2000/svg">
<path d="M52.5 68.1818H49V62.3864C49 60.3409 48.65 58.6364 47.95 56.5909V56.25C47.25 54.8864 46.55 53.1818 45.5 52.1591L40.6 45.6818C39.2 43.9773 38.5 41.5909 38.5 39.5455V36.1364C38.5 33.4091 39.55 30.6818 41.65 28.9773L44.1 26.5909C46.9 23.8636 48.65 20.4545 49 17.0455C49 16.3636 49 15.6818 49 14.6591V6.81818H52.5C54.6 6.81818 56 5.45455 56 3.40909C56 1.36364 54.6 0 52.5 0H3.5C1.4 0 0 1.36364 0 3.40909C0 5.45455 1.4 6.81818 3.5 6.81818H7V14.6591C7 15.6818 7 16.3636 7.35 17.0455C7.7 20.7955 9.45 24.2045 12.25 26.5909L14.7 28.9773C16.45 31.0227 17.5 33.75 17.5 36.4773V39.8864C17.5 41.9318 16.8 44.3182 15.4 46.0227L10.5 52.1591C9.45 53.5227 8.75 54.8864 8.05 56.25V56.5909C7.35 58.6364 7 60.6818 7 62.3864V68.1818H3.5C1.4 68.1818 0 69.5455 0 71.5909C0 73.6364 1.4 75 3.5 75H52.5C54.6 75 56 73.6364 56 71.5909C56 69.5455 54.6 68.1818 52.5 68.1818ZM14 13.6364V6.81818H42V13.6364H14ZM17.5 54.5455L21 50.1136C23.1 47.3864 24.15 44.3182 24.5 40.9091H31.5C31.85 44.3182 32.9 47.3864 35 50.1136L38.5 54.5455H17.5Z" fill="#C291FF"/>
</svg>
