<svg width="84" height="84" viewBox="0 0 84 84" fill="none" xmlns="http://www.w3.org/2000/svg">
<path d="M43.8566 80.9233C46.6293 79.1596 49.4102 77.4042 52.1828 75.6405C53.4379 74.8448 54.7094 74.0573 55.9316 73.2042C58.8355 71.178 61.559 68.8729 63.9789 66.2807C68.7695 61.1374 72.4117 55.0424 74.7168 48.4061C76.5953 42.9839 77.3992 37.2663 77.3992 31.5405V20.6221C77.3992 19.1538 76.3738 17.8741 74.9875 17.4557C73.9867 17.1522 72.9941 16.8405 72.0344 16.4385C72.2969 16.5452 72.5594 16.66 72.8219 16.7667C71.1074 16.0366 69.4996 15.1014 68.023 13.9694L68.6875 14.4862C67.2273 13.3542 65.9148 12.0499 64.7828 10.5897L65.2996 11.2542C64.1676 9.7776 63.2242 8.16159 62.4941 6.44714C62.6008 6.70964 62.7156 6.97214 62.8223 7.23464C62.5762 6.64401 62.3465 6.03698 62.1496 5.42995C61.7066 4.04362 60.468 3.01823 58.9832 3.01823H29.5422C28.1887 3.01823 26.827 2.97721 25.4734 3.01823H25.416C23.923 3.01823 22.6926 4.04362 22.2496 5.42995C22.0527 6.04518 21.8313 6.64401 21.577 7.23464C21.6836 6.97214 21.7984 6.70964 21.9051 6.44714C21.175 8.16159 20.2316 9.7694 19.0996 11.2542L19.6164 10.5897C18.4844 12.0499 17.1719 13.3542 15.7117 14.4862L16.3762 13.9694C14.8996 15.1014 13.2836 16.0366 11.5773 16.7667C11.8398 16.66 12.1023 16.5452 12.3648 16.4385C11.3969 16.8405 10.4125 17.1522 9.41172 17.4557C8.02539 17.8741 7 19.1538 7 20.6221V30.5151C7 32.2542 7 33.9932 7.12305 35.7323C7.38555 39.2678 7.98437 42.7952 8.97695 46.1995C10.9457 52.9589 14.3582 59.185 18.8863 64.5581C22.4055 68.7335 26.6465 72.1132 31.2402 75.0253L40.3211 80.7839C40.3949 80.8331 40.477 80.8823 40.5508 80.9315C42.0027 81.8503 44.234 81.2842 45.0379 79.7503C45.891 78.126 45.407 76.2475 43.8566 75.2632C42.3801 74.328 40.9035 73.3928 39.4352 72.4577C37.5484 71.26 35.6699 70.0706 33.7832 68.8729C32.4625 68.0362 31.1746 67.1421 29.9277 66.1905L30.5922 66.7073C27.4914 64.3038 24.7023 61.5147 22.2988 58.4139L22.8156 59.0784C20.3711 55.9038 18.3367 52.4257 16.7699 48.7342C16.8766 48.9967 16.9914 49.2592 17.098 49.5217C15.4984 45.7237 14.4074 41.737 13.8578 37.6518C13.8988 37.9389 13.9398 38.2342 13.9727 38.5214C13.6199 35.8635 13.5625 33.2057 13.5625 30.5397V20.6549C12.7586 21.7132 11.9547 22.7632 11.1508 23.8214C13.9809 22.9682 16.7207 21.8362 19.1242 20.1053C21.9707 18.0546 24.3988 15.528 26.2035 12.5092C27.1961 10.8522 27.9918 9.04753 28.5824 7.21003C27.5242 8.01393 26.4742 8.81784 25.416 9.62175H54.857C56.2105 9.62175 57.5723 9.65456 58.9258 9.62175H58.9832C57.925 8.81784 56.875 8.01393 55.8168 7.21003C57.8758 13.6331 62.5516 19.2194 68.6875 22.1069C70.1641 22.8042 71.6816 23.3456 73.2484 23.8214C72.4445 22.7632 71.6406 21.7132 70.8367 20.6549V32.287C70.8367 34.3706 70.6973 36.4542 70.4266 38.5214C70.4676 38.2342 70.5086 37.9389 70.5414 37.6518C69.9836 41.7288 68.8926 45.7237 67.3012 49.5217C67.4078 49.2592 67.5227 48.9967 67.6293 48.7342C66.0625 52.4257 64.0281 55.9038 61.5836 59.0784L62.1004 58.4139C59.6969 61.5147 56.9078 64.3038 53.807 66.7073L54.4715 66.1905C52.634 67.6096 50.6816 68.8319 48.7293 70.0788C46.5637 71.4569 44.398 72.8268 42.2324 74.2049C41.6746 74.5577 41.1086 74.9186 40.5508 75.2714C39.8371 75.7225 39.2711 76.4034 39.0414 77.2319C38.8281 78.0194 38.9266 79.0612 39.3695 79.7585C40.3047 81.2022 42.3063 81.9077 43.8566 80.9233Z" fill="#FF7B7B"/>
<path d="M25.4815 42.0323L33.9061 50.4569L35.1038 51.6546C36.3588 52.9096 38.4917 52.9096 39.7467 51.6546L46.2518 45.1495L56.5467 34.8546L58.9174 32.4839C60.1315 31.2698 60.2217 29.0385 58.9174 27.8409C57.6049 26.635 55.5706 26.5448 54.2745 27.8409L47.7694 34.346L37.4745 44.6409L35.1038 47.0116H39.7467L31.3221 38.587L30.1245 37.3893C28.9104 36.1753 26.6792 36.085 25.4815 37.3893C24.2756 38.7018 24.1854 40.728 25.4815 42.0323Z" fill="#FF7B7B"/>
</svg>
