<svg width="85" height="95" viewBox="0 0 85 95" fill="none" xmlns="http://www.w3.org/2000/svg">
<path d="M46.4998 30.4738C46.8346 30.5306 47.1544 30.655 47.4396 30.8395C47.7248 31.024 47.9694 31.2647 48.1585 31.5469C48.3475 31.829 48.4771 32.1468 48.5393 32.4807C48.6014 32.8146 48.5949 33.1576 48.5201 33.4889C48.4452 33.8202 48.3037 34.1328 48.104 34.4076C47.9043 34.6823 47.6508 34.9135 47.3588 35.087C47.0668 35.2606 46.7425 35.3728 46.4057 35.4168C46.0689 35.4608 45.7266 35.4357 45.3998 35.3431C43.5618 34.8928 41.6453 34.8678 39.7961 35.2699C37.947 35.6721 36.214 36.4907 34.729 37.6637C33.2441 38.8366 32.0463 40.3328 31.227 42.0385C30.4076 43.7442 29.9882 45.6143 30.0007 47.5064C30.0102 48.5979 30.153 49.6841 30.4257 50.741C31.1379 53.3988 32.7072 55.7473 34.8903 57.4222C37.0734 59.0972 39.7483 60.0049 42.5 60.0047C43.7983 60.0252 45.0894 59.8084 46.3098 59.3648C48.4508 58.6939 50.3708 57.4571 51.8669 55.7852C53.363 54.1132 54.3796 52.0681 54.8093 49.8661C54.9372 49.2151 55.3186 48.6416 55.8694 48.2717C56.4203 47.9018 57.0955 47.7659 57.7466 47.8939C58.3977 48.0218 58.9712 48.4032 59.3411 48.954C59.711 49.5048 59.8469 50.18 59.719 50.831C59.125 53.887 57.722 56.7278 55.6564 59.0571C53.5907 61.3864 50.9379 63.119 47.9747 64.0742C46.2215 64.7145 44.3663 65.0296 42.5 65.0041C38.6421 65.0048 34.8921 63.7308 31.8332 61.3801C28.7743 59.0293 26.578 55.7337 25.586 52.0058C25.2053 50.5361 25.0088 49.0247 25.001 47.5064C25.0013 44.8687 25.5979 42.2652 26.7463 39.8906C27.8948 37.516 29.5652 35.4317 31.6328 33.7936C33.7004 32.1556 36.1115 31.0061 38.686 30.4312C41.2605 29.8563 43.9317 29.8708 46.4998 30.4738ZM38.0003 45.2318C37.8371 44.9354 37.6154 44.6753 37.3487 44.4672C37.082 44.259 36.7759 44.1072 36.4488 44.0208C36.1217 43.9344 35.7804 43.9153 35.4457 43.9647C35.111 44.0141 34.7898 44.1308 34.5016 44.308C34.2134 44.4851 33.9641 44.7189 33.7689 44.9952C33.5737 45.2714 33.4365 45.5845 33.3659 45.9153C33.2952 46.2461 33.2924 46.5878 33.3576 46.9198C33.4229 47.2517 33.5548 47.5669 33.7455 47.8464L38.4252 55.4504C38.6296 55.7823 38.9087 56.0619 39.2403 56.2667C39.5719 56.4716 39.9468 56.596 40.3351 56.6302H40.5501C40.9047 56.6304 41.2552 56.5551 41.5785 56.4095C41.9017 56.2638 42.1903 56.051 42.425 55.7853L59.819 36.088C60.2579 35.5908 60.4813 34.9396 60.44 34.2777C60.3988 33.6158 60.0962 32.9973 59.599 32.5585C59.1017 32.1196 58.4505 31.8962 57.7885 31.9375C57.1266 31.9787 56.5081 32.2812 56.0692 32.7784L40.9101 49.9561L38.0003 45.2318ZM84.7475 13.611C84.6975 13.711 79.9978 23.6097 79.9978 47.5064C79.9978 83.9515 43.5499 94.8 43.2 94.9C42.7428 95.0333 42.2572 95.0333 41.8 94.9C40.9987 94.6693 40.2137 94.3854 39.4502 94.0501C39.262 93.9977 39.0781 93.9309 38.9002 93.8502C30.3007 90.4506 5.00221 77.8523 5.00221 47.5064C5.00221 23.3597 0.30249 13.711 0.252493 13.611C0.0707321 13.2336 -0.0152297 12.8172 0.00221079 12.3987C0.0196512 11.9801 0.139956 11.5724 0.352487 11.2114C0.583783 10.8493 0.901209 10.5502 1.27638 10.3408C1.65155 10.1315 2.07276 10.0183 2.50236 10.0115C2.75234 10.0115 26.9509 9.86154 41.1001 0.412825C41.5173 0.143345 42.0033 0 42.5 0C42.9967 0 43.4827 0.143345 43.8999 0.412825C58.0491 9.86154 82.2477 10.0115 82.4976 10.0115C82.9272 10.0183 83.3484 10.1315 83.7236 10.3408C84.0988 10.5502 84.4162 10.8493 84.6475 11.2114C84.86 11.5724 84.9803 11.9801 84.9978 12.3987C85.0152 12.8172 84.9293 13.2336 84.7475 13.611ZM74.0481 14.5109C63.0072 13.7778 52.2508 10.6926 42.5 5.46214C31.2178 11.3172 18.7582 14.5473 6.05215 14.9109C8.99387 25.5169 10.3253 36.5048 10.0019 47.5064C10.0019 74.4028 31.6006 85.6013 39.9501 88.9508C48.0497 85.7013 69.9984 74.3028 69.9984 47.5064C69.6485 36.3654 71.0144 25.2368 74.0481 14.5109Z" fill="#D8B94B"/>
</svg>
