<svg width="87" height="87" viewBox="0 0 87 87" fill="none" xmlns="http://www.w3.org/2000/svg">
<path d="M34.8828 58.4278C35.2668 69.8199 51.7375 69.8153 52.1191 58.4276C51.7172 47.0042 35.2839 47.005 34.8828 58.4278Z" fill="#D8B94B"/>
<path d="M51.452 66.4885C49.3241 68.5667 46.4676 69.7302 43.4932 69.7301C40.5188 69.7301 37.6624 68.5666 35.5345 66.4884C31.6712 68.8252 26.5945 74.0787 29.4852 78.8855C29.9986 79.7087 30.714 80.387 31.5634 80.8557C32.4129 81.3244 33.368 81.5681 34.3382 81.5635H52.6618C53.632 81.5681 54.5872 81.3244 55.4365 80.8557C56.2859 80.387 57.0013 79.7087 57.5146 78.8855C60.4113 74.0705 55.3161 68.8277 51.452 66.4885ZM64.2976 46.9008C52.8722 47.3167 52.9171 63.7355 64.2978 64.1369C75.6805 63.7878 75.7202 47.2757 64.2976 46.9008Z" fill="#D8B94B"/>
<path d="M78.6515 70.4986C77.2729 67.5977 75.0447 65.1846 72.2627 63.5796C71.217 64.6245 69.9747 65.4519 68.6075 66.0142C67.2403 66.5765 65.7754 66.8624 64.2971 66.8556C61.322 66.8488 58.4677 65.6778 56.3451 63.5932C54.5739 64.4228 56.8213 65.0124 57.5276 66.0401C60.102 68.6607 62.5361 72.1571 62.4892 75.963C62.6918 76.9081 61.5708 78.8449 62.7338 78.6544H73.4725C74.4328 78.6455 75.3755 78.3965 76.2149 77.9301C77.0544 77.4636 77.7638 76.7946 78.2785 75.984C78.7933 75.1733 79.0971 74.2468 79.1623 73.2887C79.2274 72.3306 79.0518 71.3714 78.6515 70.4986ZM17.4414 62.3426C18.5266 63.1793 19.7957 63.745 21.1433 63.993C22.491 64.2409 23.8783 64.1639 25.1903 63.7683C26.5022 63.3728 27.7009 62.67 28.6869 61.7185C29.6728 60.7669 30.4177 59.5939 30.8595 58.2968C31.3014 56.9997 31.4276 55.616 31.2276 54.2604C31.0276 52.9048 30.5072 51.6164 29.7097 50.5022C28.9121 49.388 27.8602 48.48 26.6415 47.8537C25.4228 47.2273 24.0722 46.9007 22.7019 46.9008C14.5349 46.8131 10.9809 57.5531 17.4414 62.3426Z" fill="#D8B94B"/>
<path d="M29.4735 66.0399C30.0841 65.427 30.7383 64.8591 31.4309 64.3408C30.768 63.11 30.4036 63.8883 29.623 64.4905C27.4458 66.1568 24.7406 66.9821 22.004 66.8147C19.2674 66.6474 16.6829 65.4987 14.725 63.5795C10.8634 65.931 5.78944 71.1895 8.68934 75.9901C9.20399 76.808 9.91814 77.4817 10.7647 77.9478C11.6112 78.4138 12.5624 78.657 13.5287 78.6545H24.2673C25.4295 78.8523 24.3096 76.8984 24.5122 75.963C24.4563 72.1477 26.8984 68.6604 29.4735 66.0399ZM14.2763 47.9339C15.0362 47.0791 15.9261 46.3497 16.9134 45.7725C17.0175 42.1853 17.8524 38.657 19.367 35.4036C20.8815 32.1501 23.0439 29.2399 25.7218 26.8508C25.1862 26.0566 24.689 25.2428 24.2945 24.5127C20.938 27.385 18.2883 30.9919 16.551 35.0536C14.8136 39.1154 14.0353 43.5227 14.2763 47.9339ZM27.8423 25.1244C31.1063 29.5836 35.2752 33.3033 40.0762 36.0398C41.1073 36.6708 42.2928 37.0048 43.5017 37.0048C44.7107 37.0048 45.8961 36.6708 46.9272 36.0398C51.7282 33.3032 55.8972 29.5836 59.1611 25.1244C64.2817 17.8913 63.26 8.69204 55.1783 5.91706C53.0939 5.30926 50.8768 5.328 48.803 5.97096C46.7292 6.61391 44.8903 7.85267 43.5153 9.533C37.4755 2.33008 25.8279 5.22838 24.7567 14.5492C24.21 16.4064 25.4931 22.1589 27.8423 25.1244ZM61.268 26.8372C63.9493 29.2272 66.1147 32.1393 67.6316 35.3951C69.1485 38.651 69.9851 42.1821 70.09 45.7725C71.037 46.3699 71.9206 47.0622 72.7271 47.8387C73.5275 39.8871 69.3707 30.0005 62.7225 24.5128C62.2799 25.3132 61.7943 26.0891 61.268 26.8372Z" fill="#D8B94B"/>
</svg>
