<svg width="87" height="87" viewBox="0 0 87 87" fill="none" xmlns="http://www.w3.org/2000/svg">
<path d="M34.8828 58.4278C35.2668 69.8199 51.7375 69.8153 52.1191 58.4276C51.7172 47.0042 35.2839 47.005 34.8828 58.4278Z" fill="#C291FF"/>
<path d="M51.452 66.4885C49.3241 68.5667 46.4676 69.7302 43.4932 69.7301C40.5188 69.7301 37.6624 68.5666 35.5345 66.4884C31.6712 68.8252 26.5945 74.0787 29.4852 78.8855C29.9986 79.7087 30.714 80.387 31.5634 80.8557C32.4129 81.3244 33.368 81.5681 34.3382 81.5635H52.6618C53.632 81.5681 54.5872 81.3244 55.4365 80.8557C56.2859 80.387 57.0013 79.7087 57.5146 78.8855C60.4113 74.0705 55.3161 68.8277 51.452 66.4885ZM64.2976 46.9008C52.8722 47.3167 52.9171 63.7355 64.2978 64.1369C75.6805 63.7878 75.7202 47.2757 64.2976 46.9008Z" fill="#C291FF"/>
<path d="M78.6515 70.4986C77.2729 67.5977 75.0447 65.1846 72.2627 63.5796C71.217 64.6245 69.9747 65.4519 68.6075 66.0142C67.2403 66.5765 65.7754 66.8624 64.2971 66.8556C61.322 66.8488 58.4677 65.6778 56.3451 63.5932C54.5739 64.4228 56.8213 65.0124 57.5276 66.0401C60.102 68.6607 62.5361 72.1571 62.4892 75.963C62.6918 76.9081 61.5708 78.8449 62.7338 78.6544H73.4725C74.4328 78.6455 75.3755 78.3965 76.2149 77.9301C77.0544 77.4636 77.7638 76.7946 78.2785 75.984C78.7933 75.1733 79.0971 74.2468 79.1623 73.2887C79.2274 72.3306 79.0518 71.3714 78.6515 70.4986ZM17.4414 62.3426C18.5266 63.1793 19.7957 63.745 21.1433 63.993C22.491 64.2409 23.8783 64.1639 25.1903 63.7683C26.5022 63.3728 27.7009 62.67 28.6869 61.7185C29.6728 60.7669 30.4177 59.5939 30.8595 58.2968C31.3014 56.9997 31.4276 55.616 31.2276 54.2604C31.0276 52.9048 30.5072 51.6164 29.7097 50.5022C28.9121 49.388 27.8602 48.48 26.6415 47.8537C25.4228 47.2273 24.0722 46.9007 22.7019 46.9008C14.5349 46.8131 10.9809 57.5531 17.4414 62.3426Z" fill="#C291FF"/>
<path d="M29.4716 66.0399C30.0821 65.427 30.7363 64.8591 31.429 64.3408C30.766 63.11 30.4016 63.8883 29.6211 64.4905C27.4439 66.1568 24.7387 66.9821 22.0021 66.8147C19.2655 66.6474 16.681 65.4987 14.723 63.5795C10.8614 65.931 5.78749 71.1895 8.68739 75.9901C9.20204 76.808 9.91618 77.4817 10.7627 77.9478C11.6093 78.4138 12.5604 78.657 13.5268 78.6545H24.2653C25.4275 78.8523 24.3077 76.8984 24.5103 75.963C24.4544 72.1477 26.8964 68.6604 29.4716 66.0399ZM14.2744 47.9339C15.0342 47.0791 15.9242 46.3497 16.9114 45.7725C17.0156 42.1853 17.8505 38.657 19.365 35.4036C20.8796 32.1501 23.0419 29.2399 25.7198 26.8508C25.1842 26.0566 24.687 25.2428 24.2926 24.5127C20.9361 27.385 18.2864 30.9919 16.549 35.0536C14.8116 39.1154 14.0333 43.5227 14.2744 47.9339ZM27.8404 25.1244C31.1043 29.5836 35.2733 33.3033 40.0743 36.0398C41.1054 36.6708 42.2908 37.0048 43.4998 37.0048C44.7087 37.0048 45.8941 36.6708 46.9253 36.0398C51.7263 33.3032 55.8952 29.5836 59.1592 25.1244C64.2798 17.8913 63.258 8.69204 55.1763 5.91706C53.0919 5.30926 50.8748 5.328 48.801 5.97096C46.7272 6.61391 44.8883 7.85267 43.5134 9.533C37.4735 2.33008 25.826 5.22838 24.7548 14.5492C24.2081 16.4064 25.4911 22.1589 27.8404 25.1244ZM61.2661 26.8372C63.9474 29.2272 66.1128 32.1393 67.6297 35.3951C69.1466 38.651 69.9831 42.1821 70.0881 45.7725C71.035 46.3699 71.9186 47.0622 72.7252 47.8387C73.5256 39.8871 69.3688 30.0005 62.7205 24.5128C62.2779 25.3132 61.7924 26.0891 61.2661 26.8372Z" fill="#C291FF"/>
</svg>
