<svg width="74" height="54" viewBox="0 0 74 54" fill="none" xmlns="http://www.w3.org/2000/svg">
<path d="M59.2626 54H1.54141C1.1326 54 0.74054 53.8376 0.451469 53.5485C0.162398 53.2594 0 52.8674 0 52.4586V19.42C0 19.0111 0.162398 18.6191 0.451469 18.33C0.74054 18.0409 1.1326 17.8785 1.54141 17.8785H59.2626C59.6715 17.8785 60.0635 18.0409 60.3526 18.33C60.6417 18.6191 60.8041 19.0111 60.8041 19.42V52.4586C60.8041 52.8674 60.6417 53.2594 60.3526 53.5485C60.0635 53.8376 59.6715 54 59.2626 54ZM3.08282 50.9172H57.7212V20.9614H3.08282V50.9172Z" fill="#3BB895"/>
<path d="M49.3252 49.3296H11.4882C11.0794 49.3296 10.6873 49.1672 10.3982 48.8781C10.1091 48.589 9.94675 48.197 9.94675 47.7881C9.94552 46.9678 9.61898 46.1814 9.03875 45.6014C8.45852 45.0215 7.67196 44.6953 6.85159 44.6945C6.44278 44.6945 6.05072 44.5321 5.76165 44.2431C5.47258 43.954 5.31018 43.5619 5.31018 43.1531V28.727C5.31018 28.3182 5.47258 27.9262 5.76165 27.6371C6.05072 27.348 6.44278 27.1856 6.85159 27.1856C7.6721 27.1844 8.45866 26.8579 9.03885 26.2777C9.61904 25.6975 9.94552 24.911 9.94675 24.0905C9.94675 23.6817 10.1091 23.2896 10.3982 23.0005C10.6873 22.7115 11.0794 22.5491 11.4882 22.5491H49.3252C49.734 22.5491 50.1261 22.7115 50.4151 23.0005C50.7042 23.2896 50.8666 23.6817 50.8666 24.0905C50.8674 24.909 51.1921 25.6939 51.7697 26.2738C52.3473 26.8538 53.1309 27.1816 53.9494 27.1856C54.3582 27.1856 54.7503 27.348 55.0394 27.6371C55.3284 27.9262 55.4908 28.3182 55.4908 28.727V43.1531C55.4908 43.5619 55.3284 43.954 55.0394 44.2431C54.7503 44.5321 54.3582 44.6945 53.9494 44.6945C53.1292 44.6954 52.3428 45.0215 51.7628 45.6015C51.1828 46.1815 50.8566 46.9679 50.8558 47.7881C50.8558 48.1951 50.6949 48.5855 50.4082 48.8743C50.1214 49.1631 49.7321 49.3267 49.3252 49.3296ZM12.8415 46.2467H47.9857C48.2613 45.1795 48.8163 44.2049 49.5936 43.4233C50.3708 42.6417 51.3423 42.0813 52.408 41.7998V30.0727C51.3395 29.7948 50.3645 29.2367 49.5839 28.4561C48.8032 27.6754 48.2451 26.7004 47.9672 25.6319H12.8338C12.5562 26.7006 11.9982 27.6757 11.2175 28.4564C10.4368 29.2371 9.46166 29.7951 8.393 30.0727V41.7998C9.46227 42.0781 10.4377 42.6372 11.2185 43.419C11.9992 44.2008 12.5569 45.1771 12.8338 46.2467H12.8415Z" fill="#3BB895"/>
<path d="M30.4028 44.4355C28.7222 44.4358 27.0792 43.9377 25.6818 43.0042C24.2843 42.0706 23.1951 40.7436 22.5519 39.191C21.9087 37.6384 21.7404 35.9298 22.0683 34.2815C22.3962 32.6332 23.2055 31.1192 24.394 29.9309C25.5825 28.7427 27.0967 27.9336 28.745 27.606C30.3934 27.2784 32.1019 27.447 33.6544 28.0905C35.2069 28.734 36.5337 29.8234 37.467 31.2211C38.4003 32.6187 38.8981 34.2617 38.8975 35.9423C38.8938 38.194 37.9976 40.3524 36.4053 41.9444C34.813 43.5364 32.6544 44.4323 30.4028 44.4355ZM30.4028 30.5274C29.3321 30.5271 28.2854 30.8443 27.395 31.4388C26.5046 32.0334 25.8105 32.8787 25.4005 33.8677C24.9904 34.8568 24.8829 35.9452 25.0915 36.9954C25.3001 38.0456 25.8154 39.0103 26.5723 39.7676C27.3291 40.5249 28.2936 41.0407 29.3436 41.2499C30.3937 41.4591 31.4821 41.3522 32.4714 40.9428C33.4607 40.5333 34.3064 39.8397 34.9015 38.9496C35.4966 38.0596 35.8144 37.013 35.8147 35.9423C35.8139 34.507 35.2435 33.1306 34.2288 32.1154C33.2142 31.1001 31.8381 30.529 30.4028 30.5274Z" fill="#3BB895"/>
<path d="M62.9189 45.1722C62.5234 45.1723 62.1431 45.0203 61.8565 44.7478C61.5699 44.4752 61.3991 44.103 61.3793 43.708C61.3595 43.313 61.4922 42.9255 61.7501 42.6257C62.008 42.3258 62.3713 42.1366 62.7648 42.0971L64.5436 41.9106L61.4145 12.1197L11.7918 17.3297C11.3851 17.3724 10.978 17.2518 10.6602 16.9944C10.3423 16.737 10.1398 16.3638 10.0971 15.9571C10.0543 15.5503 10.175 15.1432 10.4324 14.8254C10.6898 14.5076 11.0629 14.305 11.4697 14.2623L62.6199 8.89202C62.8213 8.87066 63.025 8.8892 63.2192 8.9466C63.4135 9.004 63.5945 9.09912 63.752 9.22653C63.9095 9.35393 64.0403 9.51113 64.137 9.68912C64.2336 9.86712 64.2943 10.0624 64.3154 10.2639L67.7667 43.1222C67.788 43.3236 67.7695 43.5272 67.7121 43.7215C67.6547 43.9157 67.5596 44.0968 67.4322 44.2543C67.3047 44.4117 67.1476 44.5425 66.9696 44.6392C66.7916 44.7359 66.5963 44.7965 66.3948 44.8177L63.0823 45.1661C63.0268 45.1691 62.9729 45.1722 62.9189 45.1722Z" fill="#3BB895"/>
<path d="M69.9292 36.0164C69.5458 36.016 69.1764 35.8729 68.8929 35.6148C68.6094 35.3567 68.4323 35.0022 68.3961 34.6205C68.3599 34.2389 68.4672 33.8574 68.6971 33.5506C68.927 33.2438 69.263 33.0337 69.6394 32.9613L70.6429 32.7686L64.9982 3.34925L16.6889 12.6162C16.4898 12.6544 16.2851 12.6529 16.0866 12.612C15.8881 12.5711 15.6996 12.4914 15.5318 12.3776C15.193 12.1478 14.9594 11.7929 14.8823 11.3908C14.8442 11.1917 14.8456 10.9871 14.8865 10.7885C14.9275 10.59 15.0071 10.4015 15.1209 10.2337C15.2347 10.066 15.3804 9.92228 15.5497 9.81085C15.7191 9.69941 15.9087 9.62242 16.1078 9.58426L65.9323 0.027507C66.3336 -0.0493142 66.7489 0.0362733 67.087 0.265467C67.4252 0.49466 67.6585 0.848715 67.7358 1.24985L73.96 33.6981C74.0368 34.0995 73.951 34.515 73.7215 34.8532C73.492 35.1914 73.1376 35.4246 72.7361 35.5016L70.2206 35.984C70.1247 36.0038 70.0271 36.0147 69.9292 36.0164Z" fill="#3BB895"/>
</svg>
