<svg width="50" height="55" viewBox="0 0 50 55" fill="none" xmlns="http://www.w3.org/2000/svg">
<path d="M0.00149454 23.0249V35.3065C-0.000380026 37.7424 0.582894 40.1346 1.69091 42.2352C2.79892 44.3359 4.39139 46.0687 6.30337 47.2542L8.18575 48.4231V53.0838C8.18575 53.4864 8.32946 53.8726 8.58526 54.1573C8.84107 54.442 9.18802 54.6019 9.54979 54.6019H20.4621C20.8239 54.6019 21.1708 54.442 21.4266 54.1573C21.6825 53.8726 21.8262 53.4864 21.8262 53.0838V41.713C21.8262 37.6444 21.5261 36.1415 19.5482 33.925L16.179 30.1601C15.3567 29.302 14.2953 28.7829 13.1713 28.689C12.0472 28.5951 10.9281 28.932 9.99992 29.6439L8.63588 22.0533C8.44437 20.85 7.85125 19.7719 6.97546 19.035C6.09966 18.298 5.00594 17.9568 3.91358 18.0797C2.82123 18.2027 1.81101 18.7806 1.08548 19.6977C0.359941 20.6149 -0.0272651 21.8033 0.00149454 23.0249ZM5.96236 22.7212L8.02206 34.1376C8.02206 34.3197 8.02206 34.4867 8.02206 34.6689C8.01535 34.8156 8.01535 34.9625 8.02206 35.1092C8.02206 35.3065 8.13118 35.5039 8.18575 35.7012L8.29487 36.0656C8.38593 36.286 8.49076 36.4991 8.6086 36.7032C8.64428 36.7873 8.68531 36.8685 8.73136 36.9461C8.89871 37.2294 9.09059 37.4938 9.30426 37.7355L12.5643 41.3638C12.8212 41.6497 13.1695 41.8103 13.5328 41.8103C13.896 41.8103 14.2444 41.6497 14.5013 41.3638C14.7581 41.078 14.9024 40.6903 14.9024 40.286C14.9024 39.8817 14.7581 39.494 14.5013 39.2081L11.2412 35.5798C10.858 35.1528 10.6428 34.574 10.6428 33.9706C10.6428 33.3671 10.858 32.7883 11.2412 32.3614C11.6299 31.9457 12.148 31.7136 12.6871 31.7136C13.2261 31.7136 13.7443 31.9457 14.133 32.3614L17.5021 36.1263C18.7434 37.5078 18.989 38.0847 18.989 41.7586V51.5657H10.9138V47.5274C10.9134 47.2584 10.8488 46.9944 10.7265 46.7623C10.6043 46.5302 10.4289 46.3385 10.2182 46.2067L7.64013 44.6885C6.13936 43.7605 4.89117 42.3993 4.02699 40.7482C3.16281 39.0971 2.71461 37.2172 2.72958 35.3065V23.0249C2.74938 22.5845 2.91202 22.167 3.18734 21.8499C3.46266 21.5329 3.83196 21.3377 4.22674 21.3006C4.62152 21.2635 5.01499 21.3871 5.33416 21.6483C5.65332 21.9096 5.87652 22.2908 5.96236 22.7212ZM44.7421 18.1669C43.7339 18.1637 42.7563 18.5514 41.9771 19.2634C41.198 19.9754 40.666 20.9673 40.4726 22.0684L39.1086 29.6591C38.1813 28.9445 37.0616 28.6059 35.9369 28.6998C34.8122 28.7938 33.7505 29.3146 32.9295 30.1752L29.5603 33.9402C27.5824 36.1415 27.2823 37.6444 27.2823 41.713V53.0838C27.2823 53.4864 27.426 53.8726 27.6818 54.1573C27.9377 54.442 28.2846 54.6019 28.6464 54.6019H39.5587C39.9205 54.6019 40.2674 54.442 40.5232 54.1573C40.779 53.8726 40.9227 53.4864 40.9227 53.0838V48.4231L42.8051 47.2542C44.7171 46.0687 46.3096 44.3359 47.4176 42.2352C48.5256 40.1346 49.1089 37.7424 49.107 35.3065V23.0249C49.1034 21.7377 48.6424 20.5043 47.8246 19.5942C47.0068 18.684 45.8986 18.1709 44.7421 18.1669ZM46.3789 35.3065C46.3816 37.2044 45.9276 39.0685 45.0641 40.705C44.2005 42.3415 42.959 43.6908 41.4684 44.6126L38.8903 46.1308C38.6796 46.2626 38.5042 46.4543 38.3819 46.6864C38.2597 46.9185 38.1951 47.1825 38.1947 47.4515V51.5657H30.0104V41.713C30.0104 38.0391 30.2559 37.4623 31.4972 36.0808L34.8664 32.3158C35.2551 31.9002 35.7732 31.668 36.3123 31.668C36.8513 31.668 37.3695 31.9002 37.7582 32.3158C38.1413 32.7428 38.3565 33.3216 38.3565 33.925C38.3565 34.5285 38.1413 35.1073 37.7582 35.5342L34.4981 39.1626C34.2413 39.4484 34.097 39.8362 34.097 40.2404C34.097 40.6447 34.2413 41.0324 34.4981 41.3183C34.755 41.6042 35.1033 41.7648 35.4666 41.7648C35.8298 41.7648 36.1782 41.6042 36.435 41.3183L39.6951 37.69C39.9041 37.4437 40.0956 37.1797 40.268 36.9006C40.3188 36.8076 40.3643 36.7113 40.4044 36.6121C40.5132 36.4231 40.6089 36.2252 40.6909 36.02C40.7378 35.896 40.7788 35.7693 40.8136 35.6405C40.8136 35.4431 40.9227 35.261 40.9637 35.0484C40.9712 34.8967 40.9712 34.7447 40.9637 34.593C40.9637 34.426 40.9637 34.2742 40.9637 34.1072L43.1461 22.7212C43.232 22.2908 43.4552 21.9096 43.7743 21.6483C44.0935 21.3871 44.487 21.2635 44.8818 21.3006C45.2765 21.3377 45.6458 21.5329 45.9211 21.8499C46.1965 22.167 46.3591 22.5845 46.3789 23.0249V35.3065ZM23.5994 32.9079C23.8544 33.186 24.1972 33.3418 24.5542 33.3418C24.9113 33.3418 25.2541 33.186 25.5091 32.9079L39.5587 17.4685C40.4174 16.5202 41.0989 15.3921 41.5639 14.1492C42.029 12.9064 42.2684 11.5734 42.2684 10.227C42.2684 8.88072 42.029 7.54771 41.5639 6.30486C41.0989 5.06201 40.4174 3.9339 39.5587 2.98558C37.8023 1.07178 35.4421 0 32.984 0C30.526 0 28.1658 1.07178 26.4093 2.98558L24.5542 4.97432L22.6991 2.98558C20.9427 1.07178 18.5825 0 16.1245 0C13.6664 0 11.3062 1.07178 9.54979 2.98558C8.68495 3.93469 7.99821 5.06564 7.52947 6.31269C7.06074 7.55974 6.81936 8.89804 6.81936 10.2498C6.81936 11.6016 7.06074 12.9399 7.52947 14.1869C7.99821 15.434 8.68495 16.5649 9.54979 17.5141L23.5994 32.9079ZM11.4731 5.11095C12.7156 3.75082 14.3885 2.98859 16.1313 2.98859C17.8741 2.98859 19.547 3.75082 20.7895 5.11095L23.5994 8.14721C23.8544 8.42537 24.1972 8.58118 24.5542 8.58118C24.9113 8.58118 25.2541 8.42537 25.5091 8.14721L28.319 5.11095C29.5632 3.75444 31.2355 2.99468 32.9772 2.99468C34.7189 2.99468 36.3912 3.75444 37.6354 5.11095C38.2437 5.77519 38.727 6.56776 39.0569 7.44229C39.3867 8.31683 39.5567 9.25579 39.5567 10.2043C39.5567 11.1528 39.3867 12.0917 39.0569 12.9663C38.727 13.8408 38.2437 14.6334 37.6354 15.2976L24.5542 29.6894L11.4731 15.2976C10.8648 14.6334 10.3815 13.8408 10.0516 12.9663C9.72174 12.0917 9.55183 11.1528 9.55183 10.2043C9.55183 9.25579 9.72174 8.31683 10.0516 7.44229C10.3815 6.56776 10.8648 5.77519 11.4731 5.11095Z" fill="#3BB895"/>
<path d="M20.4621 18.1668H23.1902V21.2031C23.1902 21.6057 23.3339 21.9918 23.5897 22.2765C23.8455 22.5613 24.1925 22.7212 24.5543 22.7212C24.916 22.7212 25.263 22.5613 25.5188 22.2765C25.7746 21.9918 25.9183 21.6057 25.9183 21.2031V18.1668H28.6464C29.0081 18.1668 29.3551 18.0069 29.6109 17.7222C29.8667 17.4375 30.0104 17.0513 30.0104 16.6487C30.0104 16.2461 29.8667 15.8599 29.6109 15.5752C29.3551 15.2905 29.0081 15.1306 28.6464 15.1306H25.9183V12.0943C25.9183 11.6917 25.7746 11.3055 25.5188 11.0208C25.263 10.7361 24.916 10.5762 24.5543 10.5762C24.1925 10.5762 23.8455 10.7361 23.5897 11.0208C23.3339 11.3055 23.1902 11.6917 23.1902 12.0943V15.1306H20.4621C20.1004 15.1306 19.7534 15.2905 19.4976 15.5752C19.2418 15.8599 19.0981 16.2461 19.0981 16.6487C19.0981 17.0513 19.2418 17.4375 19.4976 17.7222C19.7534 18.0069 20.1004 18.1668 20.4621 18.1668Z" fill="#3BB895"/>
</svg>
