<svg width="48" height="52" viewBox="0 0 48 52" fill="none" xmlns="http://www.w3.org/2000/svg">
<path d="M44.0705 20.9748L44.0671 20.9711L25.2117 0.544513C25.0526 0.3719 24.8637 0.23496 24.6557 0.141526C24.4478 0.0480927 24.2248 0 23.9997 0C23.7746 0 23.5516 0.0480927 23.3437 0.141526C23.1357 0.23496 22.9468 0.3719 22.7877 0.544513L3.93231 20.9711L3.92888 20.9748L0.502026 24.6872C0.180584 25.0354 0 25.5077 0 26.0002C0 26.4927 0.180584 26.965 0.502026 27.3132C0.823468 27.6614 1.25944 27.857 1.71402 27.857C2.16861 27.857 2.60458 27.6614 2.92602 27.3132L3.42831 26.769V50.1429C3.42831 50.6354 3.60892 51.1078 3.93041 51.4561C4.2519 51.8043 4.68793 52 5.14259 52H42.8568C43.3115 52 43.7475 51.8043 44.069 51.4561C44.3905 51.1078 44.5711 50.6354 44.5711 50.1429V26.769L45.0734 27.3132C45.2322 27.4862 45.4211 27.6236 45.6291 27.7173C45.8371 27.811 46.0601 27.8592 46.2854 27.8592C46.5106 27.8592 46.7337 27.811 46.9417 27.7173C47.1497 27.6236 47.3385 27.4862 47.4974 27.3132C47.6567 27.1409 47.7831 26.9362 47.8694 26.7109C47.9556 26.4856 48 26.2441 48 26.0002C48 25.7563 47.9556 25.5148 47.8694 25.2895C47.7831 25.0642 47.6567 24.8595 47.4974 24.6872L44.0705 20.9748ZM18.8569 48.2857V33.4287H29.1425V48.2857H18.8569ZM41.1425 48.2857H32.5711V31.5716C32.5711 31.079 32.3905 30.6067 32.069 30.2584C31.7475 29.9101 31.3115 29.7144 30.8568 29.7144H17.1426C16.6879 29.7144 16.2519 29.9101 15.9304 30.2584C15.6089 30.6067 15.4283 31.079 15.4283 31.5716V48.2857H6.85687V23.0548L23.9997 4.48348L41.1425 23.0548V48.2857Z" fill="#3BB895"/>
</svg>
