<svg width="341" height="83" viewBox="0 0 341 83" fill="none" xmlns="http://www.w3.org/2000/svg">
<path d="M121.576 50.32C120.253 50.32 119.112 50.1707 118.152 49.872C117.213 49.552 116.445 49.168 115.848 48.72C115.272 48.272 114.835 47.824 114.536 47.376C114.259 46.9067 114.109 46.512 114.088 46.192C114.067 45.9573 114.141 45.7653 114.312 45.616C114.483 45.4667 114.653 45.392 114.824 45.392H117.928C117.992 45.392 118.056 45.4027 118.12 45.424C118.184 45.4453 118.248 45.4987 118.312 45.584C118.589 45.776 118.877 46 119.176 46.256C119.475 46.4907 119.816 46.6933 120.2 46.864C120.605 47.0347 121.107 47.12 121.704 47.12C122.408 47.12 123.005 46.9813 123.496 46.704C123.987 46.4053 124.232 45.9893 124.232 45.456C124.232 45.072 124.115 44.752 123.88 44.496C123.667 44.24 123.251 44.0053 122.632 43.792C122.013 43.5787 121.096 43.344 119.88 43.088C118.728 42.832 117.747 42.4907 116.936 42.064C116.125 41.6373 115.517 41.104 115.112 40.464C114.707 39.8027 114.504 39.0133 114.504 38.096C114.504 37.264 114.76 36.464 115.272 35.696C115.805 34.928 116.584 34.2987 117.608 33.808C118.632 33.296 119.912 33.04 121.448 33.04C122.621 33.04 123.645 33.1893 124.52 33.488C125.416 33.7653 126.163 34.128 126.76 34.576C127.357 35.0027 127.805 35.4507 128.104 35.92C128.424 36.368 128.595 36.7627 128.616 37.104C128.637 37.3173 128.573 37.4987 128.424 37.648C128.275 37.7973 128.104 37.872 127.912 37.872H125.064C124.957 37.872 124.861 37.8613 124.776 37.84C124.691 37.7973 124.616 37.744 124.552 37.68C124.296 37.5093 124.029 37.3173 123.752 37.104C123.496 36.8693 123.187 36.6667 122.824 36.496C122.461 36.3253 121.992 36.24 121.416 36.24C120.712 36.24 120.168 36.4 119.784 36.72C119.421 37.0187 119.24 37.4027 119.24 37.872C119.24 38.1707 119.336 38.448 119.528 38.704C119.72 38.96 120.115 39.1947 120.712 39.408C121.309 39.6213 122.216 39.8453 123.432 40.08C124.883 40.336 126.035 40.72 126.888 41.232C127.741 41.744 128.349 42.3413 128.712 43.024C129.096 43.6853 129.288 44.4 129.288 45.168C129.288 46.1707 128.989 47.0667 128.392 47.856C127.795 48.624 126.92 49.232 125.768 49.68C124.637 50.1067 123.24 50.32 121.576 50.32ZM138.472 50.32C137.234 50.32 136.136 50.0427 135.176 49.488C134.237 48.912 133.501 48.0907 132.968 47.024C132.456 45.936 132.2 44.624 132.2 43.088V34.16C132.2 33.9253 132.274 33.7333 132.424 33.584C132.573 33.4347 132.754 33.36 132.968 33.36H136.36C136.594 33.36 136.786 33.4347 136.936 33.584C137.085 33.7333 137.16 33.9253 137.16 34.16V42.896C137.16 45.2853 138.205 46.48 140.296 46.48C141.298 46.48 142.088 46.1707 142.664 45.552C143.261 44.912 143.56 44.0267 143.56 42.896V34.16C143.56 33.9253 143.634 33.7333 143.784 33.584C143.933 33.4347 144.125 33.36 144.36 33.36H147.752C147.965 33.36 148.146 33.4347 148.296 33.584C148.445 33.7333 148.52 33.9253 148.52 34.16V49.2C148.52 49.4347 148.445 49.6267 148.296 49.776C148.146 49.9253 147.965 50 147.752 50H144.616C144.381 50 144.189 49.9253 144.04 49.776C143.89 49.6267 143.816 49.4347 143.816 49.2V47.952C143.261 48.72 142.546 49.3067 141.672 49.712C140.797 50.1173 139.73 50.32 138.472 50.32ZM153.347 56.08C153.113 56.08 152.921 56.0053 152.771 55.856C152.622 55.7067 152.547 55.5147 152.547 55.28V34.16C152.547 33.9253 152.622 33.7333 152.771 33.584C152.921 33.4347 153.113 33.36 153.347 33.36H156.387C156.622 33.36 156.814 33.4347 156.963 33.584C157.113 33.7333 157.187 33.9253 157.187 34.16V35.376C157.699 34.6933 158.361 34.1387 159.171 33.712C159.982 33.264 160.995 33.04 162.211 33.04C163.321 33.04 164.281 33.2213 165.091 33.584C165.923 33.9253 166.617 34.4267 167.171 35.088C167.747 35.728 168.185 36.5067 168.483 37.424C168.803 38.3413 168.985 39.376 169.027 40.528C169.049 40.9333 169.059 41.3173 169.059 41.68C169.059 42.0427 169.049 42.4373 169.027 42.864C169.006 43.952 168.835 44.9547 168.515 45.872C168.217 46.7893 167.779 47.5787 167.203 48.24C166.627 48.9013 165.923 49.4133 165.091 49.776C164.281 50.1387 163.321 50.32 162.211 50.32C161.123 50.32 160.174 50.128 159.363 49.744C158.574 49.3387 157.923 48.7947 157.411 48.112V55.28C157.411 55.5147 157.337 55.7067 157.187 55.856C157.038 56.0053 156.857 56.08 156.643 56.08H153.347ZM160.771 46.48C161.582 46.48 162.222 46.3093 162.691 45.968C163.161 45.6053 163.491 45.136 163.683 44.56C163.897 43.984 164.025 43.3547 164.067 42.672C164.11 42.0107 164.11 41.3493 164.067 40.688C164.025 40.0053 163.897 39.376 163.683 38.8C163.491 38.224 163.161 37.7653 162.691 37.424C162.222 37.0613 161.582 36.88 160.771 36.88C159.982 36.88 159.342 37.0613 158.851 37.424C158.361 37.7867 158.009 38.2453 157.795 38.8C157.582 39.3547 157.454 39.952 157.411 40.592C157.39 40.976 157.379 41.3707 157.379 41.776C157.379 42.1813 157.39 42.5867 157.411 42.992C157.433 43.5893 157.561 44.1547 157.795 44.688C158.051 45.2 158.414 45.6267 158.883 45.968C159.374 46.3093 160.003 46.48 160.771 46.48ZM179.878 50.32C177.424 50.32 175.472 49.6373 174.022 48.272C172.592 46.9067 171.835 44.9227 171.75 42.32C171.75 42.1493 171.75 41.9253 171.75 41.648C171.75 41.3493 171.75 41.1147 171.75 40.944C171.835 39.3013 172.208 37.8933 172.87 36.72C173.531 35.5253 174.459 34.6187 175.654 34C176.848 33.36 178.246 33.04 179.845 33.04C181.638 33.04 183.131 33.4133 184.326 34.16C185.542 34.8853 186.448 35.888 187.046 37.168C187.664 38.4267 187.974 39.8773 187.974 41.52V42.256C187.974 42.4693 187.888 42.6507 187.718 42.8C187.568 42.9493 187.387 43.024 187.174 43.024H176.71C176.71 43.0453 176.71 43.088 176.71 43.152C176.71 43.1947 176.71 43.2373 176.71 43.28C176.731 43.9627 176.859 44.592 177.094 45.168C177.35 45.7227 177.702 46.1707 178.15 46.512C178.619 46.8533 179.174 47.024 179.814 47.024C180.347 47.024 180.784 46.9493 181.126 46.8C181.467 46.6507 181.744 46.4693 181.958 46.256C182.192 46.0427 182.363 45.8613 182.47 45.712C182.662 45.4987 182.811 45.3707 182.918 45.328C183.046 45.264 183.238 45.232 183.494 45.232H186.822C187.035 45.232 187.206 45.296 187.333 45.424C187.483 45.5307 187.547 45.6907 187.526 45.904C187.504 46.2453 187.323 46.672 186.982 47.184C186.662 47.6747 186.182 48.1653 185.542 48.656C184.902 49.1253 184.102 49.52 183.142 49.84C182.203 50.16 181.115 50.32 179.878 50.32ZM176.71 40.112H182.982V40.048C182.982 39.28 182.854 38.6187 182.598 38.064C182.363 37.488 182.011 37.04 181.542 36.72C181.072 36.4 180.507 36.24 179.845 36.24C179.184 36.24 178.619 36.4 178.15 36.72C177.68 37.04 177.318 37.488 177.062 38.064C176.827 38.6187 176.71 39.28 176.71 40.048V40.112ZM191.94 50C191.727 50 191.546 49.9253 191.396 49.776C191.247 49.6267 191.172 49.4347 191.172 49.2V34.16C191.172 33.9467 191.247 33.7653 191.396 33.616C191.546 33.4453 191.727 33.36 191.94 33.36H195.076C195.29 33.36 195.471 33.4453 195.62 33.616C195.791 33.7653 195.876 33.9467 195.876 34.16V35.44C196.41 34.7787 197.06 34.2667 197.828 33.904C198.618 33.5413 199.524 33.36 200.548 33.36H201.924C202.138 33.36 202.319 33.4347 202.468 33.584C202.618 33.7333 202.692 33.9253 202.692 34.16V36.912C202.692 37.1467 202.618 37.3387 202.468 37.488C202.319 37.6373 202.138 37.712 201.924 37.712H199.108C198.17 37.712 197.434 37.9787 196.9 38.512C196.367 39.024 196.1 39.76 196.1 40.72V49.2C196.1 49.4347 196.026 49.6267 195.876 49.776C195.727 49.9253 195.535 50 195.3 50H191.94ZM304.03 50C303.796 50 303.604 49.9253 303.454 49.776C303.305 49.6267 303.23 49.4347 303.23 49.2V45.616C303.23 45.3813 303.305 45.1893 303.454 45.04C303.604 44.8907 303.796 44.816 304.03 44.816H307.614C307.849 44.816 308.041 44.8907 308.19 45.04C308.34 45.1893 308.414 45.3813 308.414 45.616V49.2C308.414 49.4347 308.34 49.6267 308.19 49.776C308.041 49.9253 307.849 50 307.614 50H304.03ZM314.14 50C313.905 50 313.713 49.9253 313.564 49.776C313.415 49.6267 313.34 49.4347 313.34 49.2V37.136H310.844C310.609 37.136 310.417 37.0613 310.268 36.912C310.119 36.7627 310.044 36.5707 310.044 36.336V34.16C310.044 33.9253 310.119 33.7333 310.268 33.584C310.417 33.4347 310.609 33.36 310.844 33.36H313.34V32.208C313.34 30.8427 313.596 29.7227 314.108 28.848C314.62 27.9733 315.367 27.3333 316.348 26.928C317.329 26.5227 318.535 26.32 319.964 26.32H322.3C322.535 26.32 322.727 26.3947 322.876 26.544C323.025 26.6933 323.1 26.8853 323.1 27.12V29.296C323.1 29.5307 323.025 29.7227 322.876 29.872C322.727 30.0213 322.535 30.096 322.3 30.096H320.156C319.367 30.096 318.812 30.288 318.492 30.672C318.193 31.056 318.044 31.6213 318.044 32.368V33.36H321.98C322.215 33.36 322.407 33.4347 322.556 33.584C322.705 33.7333 322.78 33.9253 322.78 34.16V36.336C322.78 36.5707 322.705 36.7627 322.556 36.912C322.407 37.0613 322.215 37.136 321.98 37.136H318.044V49.2C318.044 49.4347 317.969 49.6267 317.82 49.776C317.671 49.9253 317.489 50 317.276 50H314.14ZM325.972 50C325.758 50 325.577 49.9253 325.428 49.776C325.278 49.6267 325.204 49.4347 325.204 49.2V34.16C325.204 33.9467 325.278 33.7653 325.428 33.616C325.577 33.4453 325.758 33.36 325.972 33.36H329.108C329.321 33.36 329.502 33.4453 329.652 33.616C329.822 33.7653 329.908 33.9467 329.908 34.16V35.44C330.441 34.7787 331.092 34.2667 331.86 33.904C332.649 33.5413 333.556 33.36 334.58 33.36H335.956C336.169 33.36 336.35 33.4347 336.5 33.584C336.649 33.7333 336.724 33.9253 336.724 34.16V36.912C336.724 37.1467 336.649 37.3387 336.5 37.488C336.35 37.6373 336.169 37.712 335.956 37.712H333.14C332.201 37.712 331.465 37.9787 330.932 38.512C330.398 39.024 330.132 39.76 330.132 40.72V49.2C330.132 49.4347 330.057 49.6267 329.908 49.776C329.758 49.9253 329.566 50 329.332 50H325.972Z" fill="#323232"/>
<path d="M211.639 50.32C210.316 50.32 209.175 50.1707 208.215 49.872C207.276 49.552 206.508 49.168 205.911 48.72C205.335 48.272 204.897 47.824 204.599 47.376C204.321 46.9067 204.172 46.512 204.151 46.192C204.129 45.9573 204.204 45.7653 204.375 45.616C204.545 45.4667 204.716 45.392 204.887 45.392H207.991C208.055 45.392 208.119 45.4027 208.183 45.424C208.247 45.4453 208.311 45.4987 208.375 45.584C208.652 45.776 208.94 46 209.239 46.256C209.537 46.4907 209.879 46.6933 210.263 46.864C210.668 47.0347 211.169 47.12 211.767 47.12C212.471 47.12 213.068 46.9813 213.559 46.704C214.049 46.4053 214.295 45.9893 214.295 45.456C214.295 45.072 214.177 44.752 213.943 44.496C213.729 44.24 213.313 44.0053 212.695 43.792C212.076 43.5787 211.159 43.344 209.943 43.088C208.791 42.832 207.809 42.4907 206.999 42.064C206.188 41.6373 205.58 41.104 205.174 40.464C204.769 39.8027 204.567 39.0133 204.567 38.096C204.567 37.264 204.823 36.464 205.335 35.696C205.868 34.928 206.647 34.2987 207.671 33.808C208.695 33.296 209.975 33.04 211.51 33.04C212.684 33.04 213.708 33.1893 214.583 33.488C215.479 33.7653 216.225 34.128 216.823 34.576C217.42 35.0027 217.868 35.4507 218.167 35.92C218.487 36.368 218.657 36.7627 218.679 37.104C218.7 37.3173 218.636 37.4987 218.487 37.648C218.337 37.7973 218.167 37.872 217.975 37.872H215.127C215.02 37.872 214.924 37.8613 214.839 37.84C214.753 37.7973 214.679 37.744 214.615 37.68C214.359 37.5093 214.092 37.3173 213.815 37.104C213.559 36.8693 213.249 36.6667 212.887 36.496C212.524 36.3253 212.055 36.24 211.479 36.24C210.775 36.24 210.231 36.4 209.847 36.72C209.484 37.0187 209.303 37.4027 209.303 37.872C209.303 38.1707 209.399 38.448 209.591 38.704C209.783 38.96 210.177 39.1947 210.775 39.408C211.372 39.6213 212.279 39.8453 213.495 40.08C214.945 40.336 216.097 40.72 216.951 41.232C217.804 41.744 218.412 42.3413 218.775 43.024C219.159 43.6853 219.351 44.4 219.351 45.168C219.351 46.1707 219.052 47.0667 218.455 47.856C217.857 48.624 216.983 49.232 215.831 49.68C214.7 50.1067 213.303 50.32 211.639 50.32ZM229.846 50.32C227.393 50.32 225.441 49.6373 223.99 48.272C222.561 46.9067 221.804 44.9227 221.718 42.32C221.718 42.1493 221.718 41.9253 221.718 41.648C221.718 41.3493 221.718 41.1147 221.718 40.944C221.804 39.3013 222.177 37.8933 222.838 36.72C223.5 35.5253 224.428 34.6187 225.622 34C226.817 33.36 228.214 33.04 229.814 33.04C231.606 33.04 233.1 33.4133 234.294 34.16C235.51 34.8853 236.417 35.888 237.014 37.168C237.633 38.4267 237.942 39.8773 237.942 41.52V42.256C237.942 42.4693 237.857 42.6507 237.686 42.8C237.537 42.9493 237.356 43.024 237.142 43.024H226.678C226.678 43.0453 226.678 43.088 226.678 43.152C226.678 43.1947 226.678 43.2373 226.678 43.28C226.7 43.9627 226.828 44.592 227.062 45.168C227.318 45.7227 227.67 46.1707 228.118 46.512C228.588 46.8533 229.142 47.024 229.782 47.024C230.316 47.024 230.753 46.9493 231.094 46.8C231.436 46.6507 231.713 46.4693 231.926 46.256C232.161 46.0427 232.332 45.8613 232.438 45.712C232.63 45.4987 232.78 45.3707 232.886 45.328C233.014 45.264 233.206 45.232 233.462 45.232H236.79C237.004 45.232 237.174 45.296 237.302 45.424C237.452 45.5307 237.516 45.6907 237.494 45.904C237.473 46.2453 237.292 46.672 236.95 47.184C236.63 47.6747 236.15 48.1653 235.51 48.656C234.87 49.1253 234.07 49.52 233.11 49.84C232.172 50.16 231.084 50.32 229.846 50.32ZM226.678 40.112H232.95V40.048C232.95 39.28 232.822 38.6187 232.566 38.064C232.332 37.488 231.98 37.04 231.51 36.72C231.041 36.4 230.476 36.24 229.814 36.24C229.153 36.24 228.588 36.4 228.118 36.72C227.649 37.04 227.286 37.488 227.03 38.064C226.796 38.6187 226.678 39.28 226.678 40.048V40.112ZM241.909 50C241.696 50 241.514 49.9253 241.365 49.776C241.216 49.6267 241.141 49.4347 241.141 49.2V34.16C241.141 33.9253 241.216 33.7333 241.365 33.584C241.514 33.4347 241.696 33.36 241.909 33.36H245.045C245.28 33.36 245.472 33.4347 245.621 33.584C245.77 33.7333 245.845 33.9253 245.845 34.16V35.408C246.4 34.7253 247.114 34.16 247.989 33.712C248.864 33.264 249.93 33.04 251.189 33.04C252.448 33.04 253.546 33.328 254.485 33.904C255.445 34.4587 256.192 35.28 256.725 36.368C257.28 37.4347 257.557 38.736 257.557 40.272V49.2C257.557 49.4347 257.472 49.6267 257.301 49.776C257.152 49.9253 256.97 50 256.757 50H253.365C253.13 50 252.938 49.9253 252.789 49.776C252.64 49.6267 252.565 49.4347 252.565 49.2V40.464C252.565 39.3333 252.288 38.4587 251.733 37.84C251.2 37.2 250.41 36.88 249.365 36.88C248.362 36.88 247.562 37.2 246.965 37.84C246.368 38.4587 246.069 39.3333 246.069 40.464V49.2C246.069 49.4347 245.994 49.6267 245.845 49.776C245.696 49.9253 245.514 50 245.301 50H241.909ZM262.159 50C261.946 50 261.764 49.9253 261.615 49.776C261.466 49.6267 261.391 49.4347 261.391 49.2V34.16C261.391 33.9253 261.466 33.7333 261.615 33.584C261.764 33.4347 261.946 33.36 262.159 33.36H265.359C265.594 33.36 265.786 33.4347 265.935 33.584C266.084 33.7333 266.159 33.9253 266.159 34.16V49.2C266.159 49.4347 266.084 49.6267 265.935 49.776C265.786 49.9253 265.594 50 265.359 50H262.159ZM262.063 30.8C261.85 30.8 261.668 30.7253 261.519 30.576C261.37 30.4267 261.295 30.2347 261.295 30V27.44C261.295 27.2053 261.37 27.0133 261.519 26.864C261.668 26.6933 261.85 26.608 262.063 26.608H265.423C265.658 26.608 265.85 26.6933 265.999 26.864C266.17 27.0133 266.255 27.2053 266.255 27.44V30C266.255 30.2347 266.17 30.4267 265.999 30.576C265.85 30.7253 265.658 30.8 265.423 30.8H262.063ZM277.913 50.32C276.143 50.32 274.66 50.032 273.465 49.456C272.271 48.8587 271.353 48.016 270.713 46.928C270.095 45.84 269.753 44.5707 269.689 43.12C269.668 42.6933 269.657 42.2133 269.657 41.68C269.657 41.1253 269.668 40.6453 269.689 40.24C269.753 38.768 270.116 37.4987 270.777 36.432C271.439 35.344 272.367 34.512 273.561 33.936C274.756 33.3387 276.207 33.04 277.913 33.04C279.599 33.04 281.039 33.3387 282.233 33.936C283.428 34.512 284.356 35.344 285.017 36.432C285.679 37.4987 286.041 38.768 286.105 40.24C286.148 40.6453 286.169 41.1253 286.169 41.68C286.169 42.2133 286.148 42.6933 286.105 43.12C286.041 44.5707 285.689 45.84 285.049 46.928C284.431 48.016 283.524 48.8587 282.329 49.456C281.135 50.032 279.663 50.32 277.913 50.32ZM277.913 46.8C278.959 46.8 279.748 46.48 280.281 45.84C280.815 45.1787 281.103 44.2187 281.145 42.96C281.167 42.64 281.177 42.2133 281.177 41.68C281.177 41.1467 281.167 40.72 281.145 40.4C281.103 39.1627 280.815 38.2133 280.281 37.552C279.748 36.8907 278.959 36.56 277.913 36.56C276.868 36.56 276.068 36.8907 275.513 37.552C274.98 38.2133 274.692 39.1627 274.649 40.4C274.628 40.72 274.617 41.1467 274.617 41.68C274.617 42.2133 274.628 42.64 274.649 42.96C274.692 44.2187 274.98 45.1787 275.513 45.84C276.068 46.48 276.868 46.8 277.913 46.8ZM290.284 50C290.071 50 289.889 49.9253 289.74 49.776C289.591 49.6267 289.516 49.4347 289.516 49.2V34.16C289.516 33.9467 289.591 33.7653 289.74 33.616C289.889 33.4453 290.071 33.36 290.284 33.36H293.42C293.633 33.36 293.815 33.4453 293.964 33.616C294.135 33.7653 294.22 33.9467 294.22 34.16V35.44C294.753 34.7787 295.404 34.2667 296.172 33.904C296.961 33.5413 297.868 33.36 298.892 33.36H300.268C300.481 33.36 300.663 33.4347 300.812 33.584C300.961 33.7333 301.036 33.9253 301.036 34.16V36.912C301.036 37.1467 300.961 37.3387 300.812 37.488C300.663 37.6373 300.481 37.712 300.268 37.712H297.452C296.513 37.712 295.777 37.9787 295.244 38.512C294.711 39.024 294.444 39.76 294.444 40.72V49.2C294.444 49.4347 294.369 49.6267 294.22 49.776C294.071 49.9253 293.879 50 293.644 50H290.284Z" fill="#39B889"/>
<g clip-path="url(#clip0_53_1817)">
<path d="M86.9429 23.4291C90.8259 31.437 94.6849 39.402 92.2226 48.3044C91.0825 52.2491 88.9637 55.8479 86.0597 58.7722C82.446 62.4243 77.8686 64.9949 72.8508 66.19C61.965 69.0449 59.3347 63.416 45.9962 63.6397C32.2833 63.8776 29.2786 69.9441 19.1992 66.8895C14.3484 65.352 9.99916 62.5598 6.59981 58.8007C3.53225 55.4727 1.4062 51.4004 0.436926 46.9959C-1.11819 39.3972 1.73766 33.3069 4.8431 26.7027C7.86645 20.2169 12.2119 14.422 17.6056 9.68301C20.7351 6.96615 24.6613 3.55936 30.8866 1.53241C35.9071 -0.0948507 40.0493 0.00031099 46.0778 0.00031099C50.1432 0.00031099 54.9285 0.000311013 60.3858 1.38491C64.048 2.30798 73.0044 4.71557 80.1944 12.5854C83.3766 16.0684 84.8742 19.1516 86.9429 23.4291Z" fill="#3BB895"/>
<path d="M12.0666 54.9987C19.4054 50.3405 21.0565 54.2707 21.0565 54.2707C21.049 54.7676 20.9258 55.2561 20.6965 55.6981C19.823 57.3444 17.7495 57.5443 17.5335 57.5633C16.5665 57.7045 15.5796 57.6165 14.6536 57.3063C14.1182 57.1327 13.6201 56.8616 13.1849 56.507C12.7067 56.0901 12.3252 55.5756 12.0666 54.9987Z" fill="#BED371"/>
<path d="M20.5189 19.9365C20.5189 19.9365 26.3986 17.9761 27.9538 24.9562C27.5121 25.1979 27.0181 25.3301 26.5138 25.3416C24.9826 25.4865 23.4544 25.0361 22.2516 24.0855C21.5645 23.5463 21.0426 22.8279 20.7445 22.011C20.507 21.3464 20.4297 20.6359 20.5189 19.9365Z" fill="#4BB196"/>
<path d="M30.7808 12.2235C30.7808 12.2235 36.6749 10.2584 38.2156 17.2433C37.7741 17.4845 37.2798 17.6152 36.7757 17.6239C35.2427 17.7716 33.712 17.321 32.5087 16.3678C31.8244 15.829 31.3044 15.1125 31.0064 14.298C30.7688 13.6335 30.6916 12.923 30.7808 12.2235Z" fill="#4E5E81"/>
<path d="M17.8311 28.6675C17.8311 28.6675 21.6709 27.3876 22.6932 31.9458C22.3986 32.1057 22.0691 32.1922 21.7333 32.198C20.7381 32.2998 19.7419 32.0149 18.9542 31.4034C18.5068 31.0496 18.1664 30.5804 17.9703 30.0473C17.8164 29.6043 17.7688 29.1319 17.8311 28.6675Z" fill="#3D5470"/>
<path d="M11.3754 36.3422C11.3754 36.3422 16.7991 32.7927 20.2502 39.5635C19.8645 39.9297 19.3926 40.1947 18.8774 40.3343C17.3627 40.8859 15.6896 40.8226 14.2217 40.1582C13.38 39.7813 12.6606 39.18 12.1434 38.4215C11.7284 37.7967 11.4655 37.0849 11.3754 36.3422Z" fill="#BCD673"/>
<path d="M10.0795 43.4937C10.0795 43.4937 17.3991 39.8442 20.7925 48.2518C20.249 48.645 19.6189 48.9044 18.9542 49.0083C16.9927 49.5077 14.9135 49.2598 13.1273 48.3136C12.1259 47.7944 11.2937 47.004 10.7274 46.0345C10.3059 45.2525 10.0835 44.3803 10.0795 43.4937Z" fill="#4CB38A"/>
<path d="M22.7316 45.7062C22.7316 45.7062 25.5347 44.9402 26.0531 48.2851C25.8373 48.3859 25.6001 48.4332 25.3619 48.4231C24.6421 48.4499 23.9405 48.1953 23.4084 47.7141C23.1048 47.4378 22.8839 47.0838 22.77 46.6911C22.6803 46.3702 22.6672 46.033 22.7316 45.7062Z" fill="#A9DA7C"/>
<path d="M43.5962 7.0564C43.5962 7.0564 48.4871 10.8629 43.4474 15.973C42.9957 15.7368 42.6099 15.3935 42.3242 14.9738C41.3596 13.7856 40.8984 12.2724 41.0379 10.7534C41.1178 9.89131 41.4367 9.06792 41.9594 8.37439C42.3939 7.81457 42.9544 7.36322 43.5962 7.0564Z" fill="#B1CE73"/>
<path d="M56.5987 13.6654C56.5987 13.6654 58.557 19.5083 51.4917 21.0071C51.2519 20.5685 51.1235 20.0786 51.1174 19.5797C50.9771 18.0599 51.4403 16.5458 52.4085 15.3593C52.9565 14.6836 53.6824 14.1714 54.506 13.8795C55.1774 13.6484 55.8938 13.5752 56.5987 13.6654Z" fill="#495470"/>
<path d="M67.0285 21.811C67.0285 21.811 68.1565 27.8776 60.9569 28.3915C60.7758 27.9185 60.7164 27.4083 60.7841 26.9069C60.8522 25.3824 61.5188 23.9447 62.6416 22.9006C63.2787 22.3059 64.0694 21.8974 64.9263 21.7206C65.6247 21.5898 66.3442 21.6207 67.0285 21.811Z" fill="#425466"/>
<path d="M79.9063 26.4027C79.9063 26.4027 79.2679 32.5359 72.2267 31.0323C72.188 30.529 72.2754 30.0239 72.4811 29.5621C72.9774 28.1165 74.0249 26.921 75.3993 26.2314C76.1778 25.8359 77.052 25.6629 77.924 25.7318C78.6281 25.8011 79.3064 26.0307 79.9063 26.4027Z" fill="#39B889"/>
<path d="M84.3413 37.2559C84.3413 37.2559 83.7029 43.3891 76.6616 41.8855C76.6226 41.3811 76.7083 40.8748 76.9112 40.4105C77.4125 38.9678 78.4586 37.7739 79.8295 37.0799C80.6121 36.6926 81.4876 36.5279 82.3589 36.6041C83.0614 36.6676 83.7397 36.8906 84.3413 37.2559Z" fill="#394B82"/>
<path d="M82.5557 53.6904C82.5557 53.6904 76.9784 59.1431 71.3387 52.0869C71.7101 51.5658 72.2045 51.1428 72.7786 50.8546C74.4346 49.8559 76.4176 49.5351 78.308 49.96C79.3924 50.1914 80.3899 50.7188 81.1878 51.4826C81.8094 52.1042 82.2775 52.8598 82.5557 53.6904Z" fill="#BCD06F"/>
<path d="M76.0473 38.45L65.4878 40.8862C65.6566 39.9063 65.8956 38.9395 66.203 37.9933C67.9357 32.6547 71.2763 29.7475 71.0459 29.5382C70.8155 29.3288 67.5949 31.9172 64.6047 35.9758C63.3365 37.7086 62.2311 39.5529 61.3024 41.4857C57.093 47.4952 52.1205 54.1755 51.055 53.576C50.8006 53.4333 50.8582 52.9194 50.9014 52.4531C51.8085 43.3842 50.6902 41.3382 52.8213 38.7022C53.3828 38.0123 53.8628 37.6602 56.4163 36.0996C59.1953 34.3962 63.1359 32.0457 68.1181 29.3193C67.2317 29.6143 66.3326 29.9029 65.4206 30.1853C63.0015 30.9434 60.6353 31.619 58.3218 32.2122L59.6417 24.9561C58.9919 26.4086 58.0362 27.7065 56.8387 28.7626C55.3132 30.1059 53.4516 31.018 51.4485 31.4033C50.507 30.7547 49.6564 29.9851 48.9191 29.1147C47.4311 27.3542 46.932 25.784 46.0392 23.7143C45.149 21.6288 44.1179 19.6052 42.953 17.6572C43.2122 19.294 43.4665 20.9308 43.7257 22.5676L38.134 18.2472L44.2393 29.1575C45.1059 31.1166 45.538 33.2374 45.5064 35.3763C45.4776 36.9084 45.4344 39.0734 44.3497 39.5777C42.6074 40.3866 39.1612 36.1091 38.998 35.9045C37.3655 32.2673 35.5324 28.722 33.5071 25.2844C32.6719 23.8634 31.8287 22.4994 30.9776 21.1925C31.7648 25.1036 32.5535 29.0132 33.3439 32.9212C31.5769 30.9687 29.3723 29.4547 26.9074 28.5009C25.2353 27.8621 23.4705 27.4942 21.6805 27.4113C22.5732 28.1107 23.8116 29.0957 25.2563 30.3042C29.0961 33.5302 29.7585 34.439 30.152 35.4334C30.7161 36.9364 30.7933 38.5764 30.3728 40.1249C30.3728 40.1249 22.0789 33.849 16.8903 34.0108C18.9516 35.2567 20.87 36.7213 22.6116 38.3787C24.4484 40.1114 26.0738 42.0517 27.4546 44.1597C28.5764 45.8973 29.5172 47.7434 30.2624 49.6696C30.3438 49.7789 30.398 49.9056 30.4205 50.0396C30.443 50.1736 30.4333 50.3109 30.392 50.4404C30.0224 51.2493 27.613 50.6974 24.2099 50.5974C22.8522 50.5564 21.4932 50.5929 20.1398 50.7069C21.1253 51.5379 22.1931 52.268 23.3268 52.8861C26.2354 54.4705 28.5153 54.737 30.5936 55.2651C33.6839 56.1158 36.5666 57.5826 39.0652 59.5759C40.6877 61.2122 41.7229 63.3315 42.0117 65.6079C42.3005 67.8844 41.8268 70.1918 40.6635 72.1753C39.6843 73.3807 38.6876 74.5877 37.6732 75.7962C35.5998 78.2704 33.5327 80.6638 31.472 82.9762C31.472 82.9762 41.1579 78.3942 47.9831 82.9762C47.9831 82.9762 56.3155 78.8462 62.0416 82.9524C61.4032 82.3909 50.455 72.6559 52.1637 63.3396C53.2628 57.3539 62.8815 53.8853 73.0762 49.5887C73.8538 49.2652 74.5161 49.0035 74.9481 48.8274L62.104 49.3365L76.0473 38.45ZM40.7163 55.1652C29.4177 50.2406 33.1615 36.5658 33.1615 36.5658C46.956 47.6665 40.7163 55.1652 40.7163 55.1652Z" fill="#27334E"/>
</g>
<defs>
<clipPath id="clip0_53_1817">
<rect width="93" height="83" fill="white"/>
</clipPath>
</defs>
</svg>
