<svg width="67" height="67" viewBox="0 0 67 67" fill="none" xmlns="http://www.w3.org/2000/svg">
<path d="M64.5001 62.0121H60.4871V31.3881L60.6501 31.5461C60.8449 31.7346 61.1066 31.8381 61.3777 31.8337C61.6488 31.8293 61.907 31.7174 62.0956 31.5226C62.2841 31.3278 62.3876 31.066 62.3832 30.7949C62.3788 30.5239 62.2669 30.2656 62.0721 30.0771L54.0551 22.3221V9.70905H54.7271C54.9927 9.70075 55.2447 9.58938 55.4297 9.39853C55.6146 9.20768 55.7181 8.95233 55.7181 8.68655C55.7181 8.42077 55.6146 8.16543 55.4297 7.97458C55.2447 7.78373 54.9927 7.67236 54.7271 7.66405H42.4321C42.1664 7.67236 41.9144 7.78373 41.7294 7.97458C41.5445 8.16543 41.441 8.42077 41.441 8.68655C41.441 8.95233 41.5445 9.20768 41.7294 9.39853C41.9144 9.58938 42.1664 9.70075 42.4321 9.70905H43.1001V11.7251L34.3201 3.23005C34.1292 3.04444 33.8733 2.94104 33.6071 2.94205C33.3409 2.93976 33.0845 3.04211 32.8931 3.22705L4.93005 30.0741C4.8332 30.167 4.75561 30.2782 4.70172 30.4011C4.64782 30.5241 4.61867 30.6565 4.61593 30.7907C4.61319 30.9249 4.63692 31.0584 4.68575 31.1834C4.73459 31.3085 4.80758 31.4227 4.90055 31.5196C4.99353 31.6164 5.10467 31.694 5.22763 31.7479C5.35059 31.8018 5.48297 31.8309 5.61719 31.8337C5.75142 31.8364 5.88487 31.8127 6.00993 31.7639C6.13499 31.715 6.2492 31.642 6.34605 31.5491L6.51205 31.3891V62.0121H2.50005C2.2344 62.0204 1.98242 62.1317 1.79744 62.3226C1.61247 62.5134 1.50903 62.7688 1.50903 63.0346C1.50903 63.3003 1.61247 63.5557 1.79744 63.7465C1.98242 63.9374 2.2344 64.0487 2.50005 64.0571H64.5001C64.7657 64.0487 65.0177 63.9374 65.2027 63.7465C65.3876 63.5557 65.4911 63.3003 65.4911 63.0346C65.4911 62.7688 65.3876 62.5134 65.2027 62.3226C65.0177 62.1317 64.7657 62.0204 64.5001 62.0121ZM45.1451 13.7021V9.70805H52.0101V20.3421C51.8551 20.1921 44.6901 13.2621 45.1451 13.7001V13.7021ZM38.1081 49.5631V62.0121H34.5221V49.5631H38.1081ZM32.4781 62.0121H28.8901V49.5631H32.4771L32.4781 62.0121ZM40.1531 62.0121V48.5401C40.1531 47.9761 39.6951 47.5181 39.1311 47.5181H27.8681C27.3041 47.5181 26.8461 47.9761 26.8461 48.5401V62.0101H8.55605V29.4281L33.6031 5.39005L58.4431 29.4171V62.0121H40.1531Z" fill="#3BB895"/>
<path d="M21.622 30.4361H14.732C14.168 30.4361 13.71 30.8941 13.71 31.458V40.938C13.71 41.502 14.168 41.96 14.732 41.96H21.622C22.187 41.96 22.645 41.5021 22.645 40.937V31.458C22.645 30.8941 22.187 30.4361 21.622 30.4361ZM20.6 32.48V35.175H15.755V32.48H20.6ZM15.755 39.9151V37.2201H20.6V39.9151H15.755ZM36.945 30.4351H30.055C29.49 30.4351 29.032 30.8941 29.032 31.458V40.938C29.032 41.502 29.49 41.96 30.055 41.96H36.945C37.509 41.96 37.967 41.5021 37.967 40.937V31.458C37.967 30.8941 37.509 30.4361 36.944 30.4361L36.945 30.4351ZM35.922 32.48V35.175H31.077V32.48H35.922ZM31.077 39.9151V37.2201H35.922V39.9151H31.077ZM52.267 30.4351H45.377C44.812 30.4351 44.354 30.8941 44.354 31.458V40.938C44.354 41.502 44.812 41.96 45.377 41.96H52.267C52.831 41.96 53.289 41.5021 53.289 40.937V31.458C53.289 30.8941 52.831 30.4351 52.267 30.4351ZM51.244 32.48V35.175H46.4V32.48H51.244ZM46.4 39.9151V37.2201H51.245V39.9151H46.4ZM31.347 23.5731H35.652C36.217 23.5731 36.675 23.1151 36.675 22.5511V14.3741C36.675 13.8101 36.217 13.3521 35.652 13.3521H31.347C30.782 13.3521 30.324 13.8101 30.324 14.3741V22.5511C30.324 23.1151 30.782 23.5731 31.347 23.5731ZM32.369 15.3961H34.629V21.5281H32.369V15.3961ZM21.622 47.5201H14.732C14.168 47.5201 13.71 47.9781 13.71 48.542V58.022C13.71 58.587 14.168 59.045 14.732 59.045H21.622C22.187 59.045 22.645 58.587 22.645 58.022V48.542C22.645 47.9781 22.187 47.5201 21.622 47.5201ZM20.6 49.563V52.259H15.755V49.563H20.6ZM15.755 57V54.305H20.6V57H15.755ZM52.267 47.5201H45.377C44.812 47.5201 44.354 47.9781 44.354 48.542V58.022C44.354 58.587 44.812 59.045 45.377 59.045H52.267C52.831 59.045 53.289 58.587 53.289 58.022V48.542C53.289 47.9781 52.831 47.5201 52.267 47.5201ZM51.244 49.564V52.26H46.4V49.564H51.244ZM46.4 57V54.305H51.245V57H46.4Z" fill="#3BB895"/>
</svg>
