<svg width="57" height="57" viewBox="0 0 57 57" fill="none" xmlns="http://www.w3.org/2000/svg">
<g clip-path="url(#clip0_53_1894)">
<path d="M34.2543 5.26586C34.4131 4.37381 34.2935 3.45452 33.9117 2.63279C33.53 1.81106 32.9047 1.12672 32.1206 0.67268C31.3365 0.218641 30.4316 0.0169043 29.5289 0.0948631C28.6262 0.172822 27.7694 0.526698 27.0748 1.10844C26.3801 1.69019 25.8813 2.47161 25.6461 3.34662C25.411 4.22162 25.4507 5.14781 25.7601 5.99942C26.0695 6.85104 26.6334 7.58681 27.3754 8.10684C28.1174 8.62687 29.0014 8.90597 29.9075 8.90623C30.9421 8.89904 31.942 8.53172 32.7352 7.86739C33.5285 7.20306 34.0656 6.2832 34.2543 5.26586ZM32.5135 4.94068C32.4153 5.45783 32.166 5.93428 31.7972 6.30982C31.4283 6.68536 30.9564 6.94315 30.4411 7.0506C29.9258 7.15806 29.3902 7.11037 28.902 6.91356C28.4138 6.71674 27.9948 6.37964 27.6981 5.94483C27.4014 5.51003 27.2402 4.99704 27.235 4.47067C27.2297 3.9443 27.3805 3.42817 27.6685 2.9875C27.9564 2.54683 28.3685 2.20139 28.8526 1.99482C29.3368 1.78825 29.8713 1.72982 30.3887 1.82692C30.7331 1.89089 31.0615 2.02233 31.355 2.21368C31.6485 2.40504 31.9012 2.65252 32.0987 2.9419C32.2962 3.23128 32.4345 3.55684 32.5057 3.89987C32.5769 4.2429 32.5795 4.59662 32.5135 4.94068ZM36.6656 21.0291L29.1596 16.8405L28.5633 13.2141C28.5449 13.0988 28.5039 12.9883 28.4426 12.8889C28.3813 12.7895 28.301 12.7033 28.2062 12.6351C28.1114 12.5669 28.0041 12.5181 27.8904 12.4915C27.7768 12.4649 27.6589 12.4611 27.5438 12.4803C27.4286 12.4994 27.3183 12.5412 27.2194 12.6031C27.1204 12.6651 27.0346 12.7459 26.9671 12.8412C26.8995 12.9364 26.8514 13.044 26.8256 13.1578C26.7997 13.2717 26.7967 13.3896 26.8166 13.5046L27.5525 17.9808L36.9939 23.2493C37.1231 23.3339 37.23 23.4484 37.3054 23.5831C37.3809 23.7178 37.4227 23.8688 37.4273 24.0231C37.4319 24.1774 37.3992 24.3306 37.3319 24.4696C37.2646 24.6086 37.1647 24.7293 37.0408 24.8214C36.9497 24.8842 36.844 24.9228 36.7339 24.9333C36.6237 24.9438 36.5126 24.9259 36.4113 24.8814L26.2099 20.4809L25.0172 14.4587C24.9949 14.3441 24.9503 14.235 24.8857 14.1378C24.8212 14.0405 24.738 13.957 24.6411 13.8919C24.5441 13.8269 24.4353 13.7817 24.3208 13.7589C24.2063 13.7361 24.0884 13.7362 23.974 13.7592C23.8595 13.7821 23.7507 13.8274 23.6538 13.8926C23.557 13.9577 23.4739 14.0414 23.4095 14.1387C23.3451 14.2361 23.3005 14.3452 23.2784 14.4598C23.2564 14.5744 23.2572 14.6923 23.2808 14.8066L24.6556 21.749L35.7136 26.5183C36.0836 26.6811 36.489 26.7473 36.8916 26.7106C37.2942 26.674 37.6809 26.5357 38.0154 26.3087C38.457 26.0129 38.7984 25.59 38.9944 25.096C39.1286 25.474 39.1976 25.8722 39.1982 26.2734V56.1094C39.1971 56.2263 39.2192 56.3423 39.2632 56.4506C39.3072 56.559 39.3723 56.6576 39.4546 56.7406C39.5369 56.8237 39.6348 56.8896 39.7428 56.9346C39.8507 56.9796 39.9665 57.0028 40.0835 57.0028C40.2004 57.0028 40.3162 56.9796 40.4241 56.9346C40.5321 56.8896 40.63 56.8237 40.7123 56.7406C40.7946 56.6576 40.8597 56.559 40.9037 56.4506C40.9477 56.3423 40.9698 56.2263 40.9687 56.1094V26.2734C40.9697 25.0362 40.5412 23.837 39.7564 22.8806C38.9716 21.9241 37.8792 21.2697 36.6656 21.0291Z" fill="#3BB895"/>
<path d="M30.7668 15.7004L31.5607 16.1434L31.9855 13.8856C32.2182 12.7228 32.1422 11.5193 31.7653 10.3949C31.1888 10.5788 30.5884 10.6762 29.9834 10.6842C30.2885 11.413 30.4048 12.2071 30.3215 12.9928L30.7668 15.7004ZM28.2875 33.541L29.7305 25.8772L28.0618 25.1557L26.9287 31.1942L26.8756 31.4747L18.1028 29.8672L18.1736 29.502L21.2764 13.0032C21.8119 10.1398 23.4939 8.87512 25.2423 8.5545C25.0822 8.37343 24.9329 8.1831 24.7952 7.9845C24.5818 7.6674 24.3966 7.33212 24.242 6.98254C22.0775 7.63715 20.1477 9.4184 19.5369 12.6736L16.0312 31.2966L16.7262 31.4257L18.7003 52.6493V57H29.0179V54.9872C29.0391 54.1433 28.7249 53.3254 28.1441 52.7127C27.5634 52.1 26.7634 51.7425 25.9195 51.7186H24.9236L27.2916 33.3584L28.2875 33.541ZM22.9097 53.4999H25.9195C26.2921 53.5231 26.6405 53.6922 26.8891 53.9707C27.1377 54.2492 27.2664 54.6144 27.2474 54.9872V55.2188H20.4708V52.6093L18.5365 31.7553L25.5477 33.0378L22.9097 53.4999Z" fill="#3BB895"/>
</g>
<defs>
<clipPath id="clip0_53_1894">
<rect width="57" height="57" fill="white"/>
</clipPath>
</defs>
</svg>
